<?xml version="1.0" encoding="UTF-8" standalone="no"?>
<!-- Created with Inkscape (http://www.inkscape.org/) -->

<svg
   width="210mm"
   height="297mm"
   viewBox="0 0 210 297"
   version="1.1"
   id="svg1020"
   inkscape:version="1.1.2 (0a00cf5339, 2022-02-04)"
   sodipodi:docname="conicet.svg"
   xmlns:inkscape="http://www.inkscape.org/namespaces/inkscape"
   xmlns:sodipodi="http://sodipodi.sourceforge.net/DTD/sodipodi-0.dtd"
   xmlns="http://www.w3.org/2000/svg"
   xmlns:svg="http://www.w3.org/2000/svg">
  <sodipodi:namedview
     id="namedview1022"
     pagecolor="#ffffff"
     bordercolor="#999999"
     borderopacity="1"
     inkscape:pageshadow="0"
     inkscape:pageopacity="0"
     inkscape:pagecheckerboard="0"
     inkscape:document-units="mm"
     showgrid="false"
     inkscape:zoom="0.7483165"
     inkscape:cx="396.22272"
     inkscape:cy="561.25984"
     inkscape:window-width="1920"
     inkscape:window-height="1025"
     inkscape:window-x="0"
     inkscape:window-y="31"
     inkscape:window-maximized="1"
     inkscape:current-layer="layer1" />
  <defs
     id="defs1017" />
  <g
     inkscape:label="Layer 1"
     inkscape:groupmode="layer"
     id="layer1">
    <path
       style="fill:#eabe52;stroke-width:0.030987"
       d="m 97.362834,112.90476 -0.21691,-0.004 -0.263387,-0.0268 -0.263391,-0.0268 -0.418752,-0.0762 -0.418752,-0.0762 -0.371416,-0.10802 -0.371415,-0.10801 -0.402832,-0.15348 -0.402832,-0.15348 -0.90791,-0.39005 -0.907914,-0.39006 -0.342312,-0.19686 -0.342312,-0.19687 -0.361099,-0.25088 -0.361098,-0.25088 -0.402832,-0.32311 -0.402828,-0.32312 -0.38734,-0.34053 -0.387336,-0.34053 -0.449312,-0.44167 -0.449309,-0.44167 0.07747,0.0444 0.07747,0.0444 1.652058,0.96909 1.652059,0.9691 0.01109,-0.0111 0.01109,-0.0111 -0.587964,-1.14635 -0.587967,-1.14635 -0.33826,-0.65848 -0.338257,-0.65847 h 0.01131 0.01131 l 1.307924,1.58224 1.307923,1.58223 0.0081,-0.01 0.0081,-0.01 -0.228358,-1.78175 -0.228362,-1.78175 0.0079,-0.0572 0.0079,-0.0572 0.618508,1.92769 0.618509,1.92768 0.02255,-0.0577 0.02254,-0.0577 0.363478,-2.0219 0.363481,-2.0219 h 0.0258 0.0258 l -3.37e-4,0.20916 -3.4e-4,0.20917 0.047,1.48737 0.047,1.48738 0.0194,0.29437 0.0194,0.29438 0.05971,-0.13944 0.05971,-0.13944 0.684138,-1.58902 0.684138,-1.58901 0.01321,0.0132 0.01321,0.0132 -0.283084,1.17298 -0.283081,1.17297 -0.138596,0.58875 -0.138592,0.58876 -0.01552,0.0465 -0.01552,0.0465 0.120721,-0.12395 0.120725,-0.12395 1.034977,-1.13066 1.034981,-1.13067 0.210904,-0.21726 0.210904,-0.21727 -0.0525,0.10845 -0.0525,0.10845 -0.71895,1.34794 -0.718951,1.34793 -0.208719,0.39508 -0.208719,0.39509 h 0.01837 0.01837 l 0.657933,-0.43913 0.657937,-0.43913 0.914113,-0.62443 0.914117,-0.62444 0.309871,-0.21098 0.309867,-0.21098 -0.433816,0.43064 -0.433817,0.43064 -1.19969,1.18476 -1.199686,1.18476 h 0.02006 0.02006 l 0.776791,-0.24719 0.776788,-0.24719 1.386666,-0.46306 1.38667,-0.46305 v 0.01 0.01 l -1.912954,1.08018 -1.912953,1.08018 0.08468,0.01 0.08467,0.01 1.830178,-0.11242 1.830169,-0.11241 0.0678,0.01 0.0678,0.01 -1.719777,0.44195 -1.719777,0.44194 z m 0.588754,-5.8528 h -0.01548 v -0.0155 -0.0155 h 0.01548 0.01548 v 0.0155 0.0155 z m -1.854055,-0.72303 -0.02064,0.0206 v -0.0413 -0.0413 l 0.02064,0.0207 0.02064,0.0206 z m -3.75459,-0.20658 h -0.01548 v -0.0155 -0.0155 h 0.01548 0.01548 v 0.0155 0.0155 z"
       id="path1298" />
    <path
       style="fill:#5c94cb;stroke-width:0.030987"
       d="m 93.024655,115.50645 -0.526778,-0.004 -0.41469,-0.0235 -0.41469,-0.0235 -0.313505,-0.0348 -0.313502,-0.0348 -0.564309,-0.093 -0.564306,-0.0929 -0.540945,-0.13697 -0.540941,-0.13697 -0.459593,-0.15351 -0.459593,-0.15351 -0.391336,-0.15616 -0.391337,-0.15615 -0.475974,-0.21898 -0.475978,-0.21898 -0.485231,-0.2621 -0.48523,-0.26209 -0.444701,-0.26725 -0.444701,-0.26724 -0.619739,-0.41147 -0.619742,-0.41145 -0.557765,-0.4001 -0.557766,-0.4001 -1.131023,-0.83757 -1.131024,-0.83758 -0.418324,-0.29533 -0.418324,-0.29533 -0.511286,-0.34021 -0.511285,-0.34021 -0.397935,-0.23915 -0.397931,-0.23915 -0.426109,-0.23084 -0.426112,-0.23085 -0.399945,-0.18159 -0.39994,-0.18158 -0.356352,-0.14033 -0.356348,-0.14034 -0.340859,-0.10977 -0.340855,-0.10977 -0.371844,-0.0938 -0.371844,-0.0938 -0.418324,-0.0764 -0.418324,-0.0764 -0.356352,-0.039 -0.356351,-0.039 -0.54227,-10e-4 -0.542273,-0.001 -0.309871,0.0858 -0.309868,0.0858 -0.282681,0.1338 -0.282682,0.13379 -0.187924,0.12762 -0.18792,0.12761 -0.187825,0.17389 -0.187822,0.1739 -0.149356,0.19037 -0.149356,0.19037 -0.09945,0.16456 -0.09945,0.16455 -0.108673,0.25377 -0.108676,0.25377 0.01863,-0.10845 0.01863,-0.10846 0.06359,-0.26339 0.06359,-0.26339 0.09193,-0.2324 0.09193,-0.2324 0.141981,-0.27512 0.141982,-0.27512 0.169199,-0.23617 0.169197,-0.23616 0.189706,-0.2147 0.189702,-0.21469 0.278883,-0.24513 0.278883,-0.24512 0.367503,-0.24458 0.367503,-0.24456 0.391681,-0.19916 0.391676,-0.19915 0.309871,-0.12307 0.309871,-0.12307 0.355858,-0.11469 0.355857,-0.11469 0.386,-0.0922 0.386004,-0.0922 0.466631,-0.0729 0.466635,-0.0729 0.491404,-0.0382 0.491409,-0.0382 0.732579,0.0186 0.732576,0.0186 0.356352,0.048 0.356351,0.048 0.386509,0.0797 0.386513,0.0797 0.512112,0.17075 0.512109,0.17075 0.464804,0.18641 0.464805,0.1864 0.604246,0.29284 0.604246,0.29283 0.38734,0.22097 0.387336,0.22096 0.405559,0.25676 0.405558,0.25677 0.47757,0.33104 0.477571,0.33105 0.945101,0.70259 0.945102,0.70258 0.402832,0.28973 0.402832,0.28972 0.495789,0.3314 0.495793,0.33139 0.325363,0.19973 0.325364,0.19973 0.42385,0.23893 0.423851,0.23893 0.676188,0.32534 0.676185,0.32534 0.232402,0.1237 0.232403,0.1237 0.588753,0.29786 0.588754,0.29786 0.438377,0.19464 0.438377,0.19464 0.522217,0.20053 0.522221,0.20054 0.495793,0.16062 0.495789,0.16062 0.464804,0.12121 0.464805,0.12122 0.378227,0.0769 0.378226,0.0769 0.473918,0.0707 0.473914,0.0707 0.960598,-0.002 0.960597,-0.002 0.333108,-0.0614 0.33312,-0.0614 v 0.0173 0.0174 l -0.3641,0.35944 -0.364104,0.35945 -0.201414,0.16756 -0.201414,0.16757 -0.265583,0.17662 -0.265579,0.17662 -0.35416,0.16888 -0.354159,0.16889 -0.294375,0.0976 -0.294379,0.0976 -0.318281,0.0754 -0.318285,0.0754 -0.378922,0.061 -0.378926,0.061 -0.480297,0.047 -0.4803,0.047 -0.75918,0.0309 -0.75918,0.0309 -0.526781,-0.004 z m -18.173864,-0.63096 -0.63523,0.0121 -0.333979,-0.028 -0.333975,-0.028 -0.394216,-0.064 -0.394221,-0.064 -0.319412,-0.0784 -0.319416,-0.0784 -0.331311,-0.1097 -0.331314,-0.1097 -0.3789,-0.16394 -0.3789,-0.16395 -0.209854,-0.13212 -0.20985,-0.13213 -0.21691,-0.16089 -0.21691,-0.16089 -0.218451,-0.19824 -0.218454,-0.19825 -0.169273,-0.18592 -0.169277,-0.18592 -0.142509,-0.18592 -0.142508,-0.18592 -0.127591,-0.20866 -0.127587,-0.20865 -0.110894,-0.2202 -0.110894,-0.2202 -0.105339,-0.31484 -0.105339,-0.31483 -0.05105,-0.29438 -0.05106,-0.29437 0.01464,-0.4803 0.01464,-0.4803 0.08314,-0.27697 0.08314,-0.27697 0.142944,-0.27677 0.142948,-0.27677 0.254896,-0.26741 0.254896,-0.26742 0.243583,-0.14448 0.243583,-0.14448 0.07437,-0.0218 0.07437,-0.0218 -0.06316,0.0888 -0.06316,0.0888 -0.04994,0.1683 -0.04994,0.16831 v 0.28532 0.28534 l 0.04806,0.25336 0.04806,0.25337 0.09269,0.28458 0.09269,0.28458 0.163758,0.34086 0.163753,0.34086 0.162829,0.26217 0.162828,0.26218 0.196173,0.24911 0.196169,0.24911 0.273851,0.26774 0.273847,0.26774 0.232402,0.17735 0.232402,0.17735 0.278883,0.16413 0.278883,0.16412 0.282678,0.12437 0.282674,0.12438 0.349299,0.1106 0.349299,0.11061 0.363979,0.0768 0.363975,0.0769 0.38297,0.0491 0.382969,0.0491 0.697207,0.0178 0.697207,0.0177 0.511286,-0.0352 0.511285,-0.0352 0.304052,-0.0459 0.304051,-0.0459 0.362167,-0.0799 0.362171,-0.0799 0.415481,-0.13953 0.415476,-0.13953 0.293665,-0.13723 0.293666,-0.13723 0.266944,-0.16023 0.266948,-0.16023 0.309025,-0.21586 0.30903,-0.21585 0.197673,0.0364 0.197678,0.0364 0.272459,0.10905 0.272457,0.10905 0.05425,0.0397 0.05425,0.0397 -0.322125,0.26997 -0.322124,0.26996 -0.379193,0.26943 -0.379189,0.26943 -0.349002,0.21052 -0.349006,0.21052 -0.480297,0.24333 -0.480297,0.24334 -0.325364,0.13859 -0.325363,0.13858 -0.418324,0.14548 -0.418324,0.14549 -0.402832,0.10582 -0.402832,0.10582 -0.309867,0.0636 -0.309872,0.0636 -0.480296,0.0623 -0.480301,0.0623 z m 27.736879,-5.59397 -0.019,-0.001 -0.4803,-0.29854 -0.4803,-0.29854 -0.58875,-0.33615 -0.58875,-0.33617 -0.697209,-0.35189 -0.697207,-0.3519 -0.402832,-0.17781 -0.402829,-0.17781 -0.495793,-0.19422 -0.495792,-0.19422 -0.480297,-0.15489 -0.480301,-0.1549 -0.356348,-0.0953 -0.356351,-0.0953 -0.464805,-0.0915 -0.464805,-0.0915 -0.402832,-0.0551 -0.402828,-0.0551 -0.836648,-7.3e-4 -0.836649,-7.4e-4 -0.371844,0.0549 -0.371843,0.0549 -0.38734,0.0885 -0.387336,0.0885 -0.352238,0.11412 -0.352241,0.11412 -0.468915,0.20031 -0.468915,0.20031 -0.345924,0.16958 -0.345928,0.16957 -0.413256,0.27547 -0.413255,0.27547 -0.231253,0.16902 -0.231249,0.16902 -0.09411,-0.027 -0.09411,-0.0271 -0.345936,-0.0351 -0.345935,-0.0351 -0.04129,-0.0255 -0.04129,-0.0255 0.139328,-0.14407 0.139325,-0.14407 0.543477,-0.51571 0.543478,-0.5157 0.355147,-0.30621 0.355144,-0.30622 0.418324,-0.32527 0.418324,-0.32527 0.480297,-0.31888 0.480301,-0.31888 0.449206,-0.25043 0.44921,-0.25043 0.456932,-0.20134 0.456936,-0.20134 0.396629,-0.13586 0.396628,-0.13585 0.293058,-0.0796 0.293057,-0.0796 0.38734,-0.0767 0.387336,-0.0768 0.433816,-0.0525 0.43382,-0.0525 0.728192,-10e-4 0.728195,-0.001 0.356352,0.0375 0.356351,0.0375 0.325363,0.0475 0.325364,0.0475 0.448287,0.0909 0.448288,0.0909 0.357373,0.0951 0.357372,0.0951 0.43382,0.14083 0.433814,0.14083 0.44993,0.17867 0.44992,0.17868 0.40362,0.18925 0.40362,0.18926 0.41692,0.22173 0.41693,0.22173 0.45147,0.2774 0.45148,0.2774 0.44714,0.32011 0.44715,0.3201 0.0882,0.073 0.0882,0.073 -0.98334,1.50957 -0.98333,1.50958 -0.019,-0.001 z M 75.873362,98.986059 h -0.170426 l 0.08521,-0.01292 0.08521,-0.01292 0.08522,0.01292 0.08521,0.01292 z m 16.469581,-3.19e-4 -0.185921,-3.15e-4 0.101261,-0.01255 0.101262,-0.01255 0.08466,0.01285 0.08466,0.01285 -0.185922,-3.15e-4 z M 75.408557,98.96437 h -0.04132 l 0.02064,-0.02064 0.02064,-0.02068 0.02064,0.02068 0.02064,0.02064 z m 0.929609,0 h -0.04132 l 0.02064,-0.02064 0.02064,-0.02068 0.02064,0.02068 0.02064,0.02064 z m 15.493492,0 h -0.04132 l 0.02064,-0.02064 0.02064,-0.02068 0.02064,0.02068 0.02064,0.02064 z m 1.053555,0 H 92.8439 l 0.02064,-0.02064 0.02064,-0.02068 0.02064,0.02068 0.02064,0.02064 z m -17.647082,-0.031 h -0.01548 v -0.01548 -0.01548 h 0.01548 0.01548 v 0.01548 0.01548 z m 1.270465,0 h -0.01548 v -0.01548 -0.01548 h 0.01548 0.01548 v 0.01548 0.01548 z m 15.13714,0 h -0.04132 l 0.02064,-0.02068 0.02064,-0.02064 0.02064,0.02064 0.02064,0.02068 z m 1.487375,0 h -0.04132 l 0.02064,-0.02068 0.02068,-0.02064 0.02064,0.02064 0.02068,0.02068 z m 5.453707,-0.0049 h -0.07746 l 0.03873,-0.01563 0.03873,-0.01563 0.03874,0.01563 0.03873,0.01563 z M 75.114182,98.90238 h -0.01548 V 98.8869 98.87142 h 0.01548 0.01548 v 0.01548 0.01548 z m 1.518363,0 h -0.01548 V 98.8869 98.87142 h 0.01548 0.01548 v 0.01548 0.01548 z m 14.87375,0 h -0.01548 V 98.8869 98.87142 h 0.01548 0.01548 v 0.01548 0.01548 z m 1.797242,0 h -0.01548 V 98.8869 98.87142 h 0.01548 0.01548 v 0.01548 0.01548 z m 4.16775,-0.0072 h -0.108453 l 0.05423,-0.01416 0.05423,-0.01416 0.05423,0.01416 0.05423,0.01416 z m 1.384086,-0.0033 -0.02064,0.02064 V 98.8712 98.82988 l 0.02064,0.02064 0.02064,0.02064 z M 70.047811,98.8712 h -0.04132 l 0.02064,-0.02064 0.02064,-0.02064 0.02064,0.02064 0.02064,0.02064 z m 0.774672,-0.0049 h -0.07747 l 0.03873,-0.01563 0.03873,-0.01563 0.03874,0.01563 0.03873,0.01563 z m 4.16775,0.0049 h -0.01548 v -0.01548 -0.01548 h 0.01548 0.01548 v 0.01548 0.01548 z m 1.766258,0 h -0.01548 v -0.01548 -0.01548 h 0.01548 0.01548 v 0.01548 0.01548 z m 3.974065,-0.01468 -0.766942,7.32e-4 0.757188,-0.0091 0.757193,-0.0091 0.01354,-0.07731 0.01354,-0.07731 -0.0038,0.0856 -0.0038,0.0856 -0.766946,7.32e-4 z m 6.577001,7.32e-4 h -0.945102 l 0.472553,-0.0094 0.472549,-0.0094 0.472553,0.0094 0.472552,0.0094 z m 4.074789,0.01376 h -0.01548 v -0.01548 -0.01548 h 0.01548 0.01548 v 0.01548 0.01548 z m 2.076129,0 h -0.01548 v -0.01548 -0.01548 h 0.01548 0.01548 v 0.01548 0.01548 z m 2.695867,-0.01336 -0.743688,-2.9e-5 0.381367,-0.0098 0.381367,-0.0098 0.362321,0.0098 0.36232,0.0098 -0.743687,-3.3e-5 z m 6.197398,-7.32e-4 -1.05356,2.2e-5 0.51705,-0.0093 0.51705,-0.0093 0.53651,0.0093 0.5365,0.0093 z M 69.799913,98.839894 H 69.7586 l 0.02064,-0.02064 0.02064,-0.02064 0.02064,0.02064 0.02064,0.02064 z m 1.301453,0 h -0.04131 l 0.02064,-0.02064 0.02064,-0.02064 0.02064,0.02064 0.02064,0.02064 z m 5.748086,0 h -0.01548 v -0.01548 -0.01548 h 0.01548 0.01548 v 0.01548 0.01548 z m 14.439933,0 h -0.01548 v -0.01548 -0.01548 h 0.01548 0.01548 v 0.01548 0.01548 z m 2.324023,0 h -0.01548 v -0.01548 -0.01548 h 0.01548 0.01548 v 0.01548 0.01548 z m -23.952937,-0.031 h -0.01548 v -0.01548 -0.01548 h 0.01548 0.01548 v 0.01548 0.01548 z m 1.657805,0 h -0.04132 l 0.02064,-0.02064 0.02064,-0.02064 0.02064,0.02064 0.02064,0.02064 z m 3.517023,0 h -0.01548 v -0.01548 -0.01548 h 0.01548 0.01548 v 0.01548 0.01548 z m 0.852141,0 h -0.04132 l 0.02064,-0.02064 0.02064,-0.02064 0.02064,0.02064 0.02064,0.02064 z m 0.371844,0 h -0.04132 l 0.02064,-0.02064 0.02064,-0.02064 0.02064,0.02064 0.02064,0.02064 z m 16.11323,0 h -0.04132 l 0.02064,-0.02064 0.02064,-0.02064 0.02064,0.02064 0.02064,0.02064 z m 0.477717,-0.0026 -0.05939,-0.0026 0.04067,-0.01629 0.04067,-0.01629 0.0187,0.0187 0.01874,0.01874 -0.05939,-0.0026 z m 1.087126,0.0026 h -0.01548 v -0.01548 -0.01548 h 0.01548 0.01548 v 0.01548 0.01548 z m -24.200831,-0.031 h -0.01548 v -0.01548 -0.01548 h 0.01548 0.01548 v 0.01548 0.01548 z m 1.952179,0 h -0.01548 v -0.01548 -0.01548 h 0.01548 0.01548 v 0.01548 0.01548 z m 4.028309,0 h -0.01548 v -0.01548 -0.01548 h 0.01548 0.01548 v 0.01548 0.01548 z m 0.712699,0 h -0.01548 v -0.01548 -0.01548 h 0.01548 0.01548 v 0.01548 0.01548 z m 14.904738,0 h -0.01548 v -0.01548 -0.01548 h 0.01548 0.01548 v 0.01548 0.01548 z m 0.836649,0 h -0.01548 v -0.01548 -0.01548 h 0.01548 0.01548 v 0.01548 0.01548 z m 0.867633,0 h -0.01548 v -0.01548 -0.01548 h 0.01548 0.01548 v 0.01548 0.01548 z m -23.426156,-0.031 h -0.01548 v -0.01548 -0.01548 h 0.01548 0.01548 v 0.01548 0.01548 z m 2.231062,0 h -0.01548 v -0.01548 -0.01548 h 0.01548 0.01548 v 0.01548 0.01548 z m 4.710023,0 h -0.01548 v -0.01548 -0.01548 h 0.01548 0.01548 v 0.01548 0.01548 z m 0.7127,0 h -0.01548 v -0.01548 -0.01548 h 0.01548 0.01548 v 0.01548 0.01548 z m 14.006113,0 h -0.01548 v -0.01548 -0.01548 h 0.01548 0.01548 v 0.01548 0.01548 z m 1.890207,0 H 92.9472 v -0.01548 -0.01548 h 0.01548 0.01548 v 0.01548 0.01548 z m -22.465562,-0.03985 -0.154934,-3.66e-4 0.08564,-0.01296 0.08564,-0.01296 0.06929,0.01336 0.0693,0.01336 z m 1.270468,0.0089 h -0.01548 v -0.01548 -0.01548 h 0.01548 0.01548 v 0.01548 0.01548 z m 5.360746,0 h -0.01548 v -0.01548 -0.01548 h 0.01548 0.01548 v 0.01548 0.01548 z m 13.882168,0 h -0.01548 v -0.01548 -0.01548 h 0.01548 0.01548 v 0.01548 0.01548 z m 2.045141,0 h -0.01548 v -0.01548 -0.01548 h 0.01548 0.01548 v 0.01548 0.01548 z m -23.798,-0.031 h -0.01548 v -0.01548 -0.01548 h 0.01548 0.01548 v 0.01548 0.01548 z m 0.883129,0 h -0.04132 l 0.02064,-0.02064 0.02064,-0.02068 0.02064,0.02068 0.02064,0.02064 z m 0.728191,0 h -0.01548 v -0.01548 -0.01548 h 0.01548 0.01548 v 0.01548 0.01548 z m 4.369168,0 h -0.01548 v -0.01548 -0.01548 h 0.01548 0.01548 v 0.01548 0.01548 z m 1.270465,0 h -0.01548 v -0.01548 -0.01548 h 0.01548 0.01548 v 0.01548 0.01548 z m 3.640969,0 h -0.04132 l 0.02064,-0.02064 0.02064,-0.02068 0.02064,0.02068 0.02064,0.02064 z m 1.128443,-0.0026 -0.05939,-0.0026 0.04067,-0.01629 0.04067,-0.01629 0.01874,0.0187 0.01874,0.01874 -0.05939,-0.0026 z m 5.31685,0.0026 h -0.04132 l 0.02064,-0.02064 0.02064,-0.02068 0.02064,0.02068 0.02064,0.02064 z m 1.425402,0 h -0.04132 l 0.02064,-0.02064 0.02064,-0.02068 0.02064,0.02068 0.02064,0.02064 z m 2.928269,0 h -0.01548 v -0.01548 -0.01548 h 0.01548 0.01548 v 0.01548 0.01548 z m 0.743688,0 h -0.01548 v -0.01548 -0.01548 h 0.01548 0.01548 v 0.01548 0.01548 z m 1.425398,0 h -0.01548 v -0.01548 -0.01548 h 0.01548 0.01548 v 0.01548 0.01548 z m 2.525442,0 h -0.04132 l 0.02064,-0.02064 0.02068,-0.02068 0.02064,0.02068 0.02068,0.02064 z m 5.931423,-0.0026 -0.0594,-0.0026 0.0407,-0.01629 0.0407,-0.01629 0.0187,0.0187 0.0187,0.01874 -0.0594,-0.0026 z m 1.56742,0.0026 h -0.0413 l 0.0206,-0.02064 0.0207,-0.02068 0.0206,0.02068 0.0206,0.02064 z m -33.14057,-0.031 h -0.01548 v -0.01548 -0.01548 h 0.01548 0.01548 v 0.01548 0.01548 z m 0.991582,0 h -0.01548 v -0.01548 -0.01548 h 0.01548 0.01548 v 0.01548 0.01548 z m 0.898622,0 h -0.01548 v -0.01548 -0.01548 h 0.01548 0.01548 v 0.01548 0.01548 z m 2.633894,0 h -0.01548 v -0.01548 -0.01548 h 0.01548 0.01548 v 0.01548 0.01548 z m 0.650727,0 h -0.01548 v -0.01548 -0.01548 h 0.01548 0.01548 v 0.01548 0.01548 z m 1.394414,0 h -0.01548 v -0.01548 -0.01548 h 0.01548 0.01548 v 0.01548 0.01548 z m 4.555086,0 h -0.01548 v -0.01548 -0.01548 h 0.01548 0.01548 v 0.01548 0.01548 z m 9.760898,0 h -0.01548 v -0.01548 -0.01548 h 0.01548 0.01548 v 0.01548 0.01548 z m 4.895945,0 h -0.01548 v -0.01548 -0.01548 h 0.01548 0.01548 v 0.01548 0.01548 z m 2.107113,-0.01061 -0.247894,-2.16e-4 0.132513,-0.01189 0.132513,-0.01189 0.115382,0.01211 0.115385,0.01211 -0.247899,-2.19e-4 z m 3.873379,0.01061 h -0.0155 v -0.01548 -0.01548 h 0.0155 0.0155 v 0.01548 0.01548 z m 1.20849,0 h -0.0155 v -0.01548 -0.01548 h 0.0155 0.0155 v 0.01548 0.01548 z m -33.063111,-0.031 h -0.01548 v -0.01548 -0.01548 h 0.01548 0.01548 v 0.01548 0.01548 z m 7.374903,0 h -0.01548 v -0.01548 -0.01548 h 0.01548 0.01548 v 0.01548 0.01548 z m 3.098695,0 h -0.01548 v -0.01548 -0.01548 h 0.01548 0.01548 v 0.01548 0.01548 z m 6.445293,0 h -0.01548 v -0.01548 -0.01548 h 0.01548 0.01548 v 0.01548 0.01548 z m 0.960598,0 h -0.01548 v -0.01548 -0.01548 h 0.01548 0.01548 v 0.01548 0.01548 z m 3.78041,0 h -0.01548 v -0.01548 -0.01548 h 0.01548 0.01548 v 0.01548 0.01548 z m 1.673297,0 h -0.01548 v -0.01548 -0.01548 h 0.01548 0.01548 v 0.01548 0.01548 z m 4.0438,0 h -0.04132 l 0.02064,-0.02064 0.02064,-0.02068 0.02068,0.02068 0.02064,0.02064 z m 1.007078,0 h -0.01548 v -0.01548 -0.01548 h 0.01548 0.01548 v 0.01548 0.01548 z m 0.591982,-0.0084 -0.01874,0.01874 0.0026,-0.05939 0.0026,-0.05939 0.01629,0.04067 0.01629,0.04067 -0.01874,0.0187 z m 3.994095,0.0084 h -0.0155 v -0.01548 -0.01548 h 0.0155 0.0155 v 0.01548 0.01548 z m -33.063111,-0.031 h -0.01548 v -0.01548 -0.01548 h 0.01548 0.01548 v 0.01548 0.01548 z m 1.363425,0 h -0.01548 v -0.01548 -0.01548 h 0.01548 0.01548 v 0.01548 0.01548 z m 19.614758,0 h -0.01548 v -0.01548 -0.01548 h 0.01548 0.01548 v 0.01548 0.01548 z m 0.712703,0 h -0.01548 v -0.01548 -0.01548 h 0.01548 0.01548 v 0.01548 0.01548 z m 2.329187,-0.01032 -0.02064,0.02068 v -0.04132 -0.04132 l 0.02064,0.02064 0.02064,0.02064 z m 2.067305,0.01032 h -0.01548 l 0.01914,-0.031 0.01914,-0.031 h 0.01548 0.01548 l -0.01914,0.031 -0.01914,0.031 z m 1.212152,0 h -0.01548 v -0.01548 -0.01548 h 0.01548 0.01548 v 0.01548 0.01548 z m -19.738706,-0.031 h -0.01548 v -0.01548 -0.01548 h 0.01548 0.01548 v 0.01548 0.01548 z m 3.06771,0 h -0.01548 v -0.01548 -0.01548 h 0.01548 0.01548 v 0.01548 0.01548 z m 16.547047,0 h -0.01548 v -0.01548 -0.01548 h 0.01548 0.01548 v 0.01548 0.01548 z m -28.043218,-0.031 h -0.01548 v -0.01548 -0.01548 h 0.01548 0.01548 v 0.01548 0.01548 z m 2.355011,0 h -0.01548 v -0.01548 -0.01548 h 0.01548 0.01548 v 0.01548 0.01548 z m 3.036723,0 h -0.01548 v -0.01548 -0.01548 h 0.01548 0.01548 v 0.01548 0.01548 z m 0.650727,0 h -0.01548 v -0.01548 -0.01548 h 0.01548 0.01548 v 0.01548 0.01548 z m 1.766258,0 h -0.01548 v -0.01548 -0.01548 h 0.01548 0.01548 v 0.01548 0.01548 z m 10.938406,0 h -0.01548 v -0.01548 -0.01548 h 0.01548 0.01548 v 0.01548 0.01548 z m 3.005734,0 h -0.01548 v -0.01548 -0.01548 h 0.01548 0.01548 v 0.01548 0.01548 z m 0.712703,0 h -0.01548 v -0.01548 -0.01548 h 0.01548 0.01548 v 0.01548 0.01548 z m 10.535576,0 h -0.0155 v -0.01548 -0.01548 h 0.0155 0.0155 v 0.01548 0.01548 z m -21.473982,-0.031 h -0.01548 v -0.01548 -0.01548 h 0.01548 0.01548 v 0.01548 0.01548 z m 15.493492,0 h -0.01548 v -0.01548 -0.01548 h 0.01548 0.01548 v 0.01548 0.01548 z m 6.78615,0 h -0.0155 v -0.01548 -0.01548 h 0.0155 0.0155 v 0.01548 0.01548 z m -33.18706,-0.031 h -0.01548 v -0.01548 -0.01548 h 0.01548 0.01548 v 0.01548 0.01548 z m 1.828234,0 h -0.01548 v -0.01548 -0.01548 h 0.01548 0.01548 v 0.01548 0.01548 z m 6.100778,0 h -0.01548 l 0.01914,-0.031 0.01914,-0.031 h 0.01548 0.01548 l -0.01914,0.031 -0.01914,0.031 z m 3.443211,0 h -0.01548 v -0.01548 -0.01548 h 0.01548 0.01548 v 0.01548 0.01548 z m -9.012047,-0.04132 -0.02068,0.02064 v -0.04132 -0.04132 l 0.02068,0.02068 0.02064,0.02064 z m 15.023523,0.01032 h -0.01548 v -0.01548 -0.01548 h 0.01548 0.01548 v 0.01548 0.01548 z m 0.712699,0 h -0.01548 v -0.01548 -0.01548 h 0.01548 0.01548 v 0.01548 0.01548 z m -18.902058,-0.031 h -0.01548 v -0.01548 -0.01548 h 0.01548 0.01548 v 0.01548 0.01548 z m 0.712699,0 h -0.01548 v -0.01548 -0.01548 h 0.01548 0.01548 v 0.01548 0.01548 z m 4.711853,0 h -0.01365 l -0.02211,-0.03576 -0.0221,-0.03576 0.03579,0.0221 0.03579,0.02211 v 0.01365 0.01365 z m 6.319514,0 h -0.01548 v -0.01548 -0.01548 h 0.01548 0.01548 v 0.01548 0.01548 z m 10.757883,0 h -0.0101 l -0.07512,-0.08521 -0.07512,-0.08521 0.08521,0.07512 0.08522,0.07512 v 0.0101 0.0101 z m 4.735605,0 h -0.01548 v -0.01548 -0.01548 h 0.01548 0.01548 v 0.01548 0.01548 z m 2.571922,0 h -0.01548 v -0.01548 -0.01548 h 0.01548 0.01548 v 0.01548 0.01548 z m 4.152254,0 h -0.0155 v -0.01548 -0.01548 h 0.0155 0.0155 v 0.01548 0.01548 z m -12.204065,-0.031 h -0.01069 l -0.05903,-0.06972 -0.05903,-0.06972 0.06972,0.05903 0.06972,0.05903 v 0.01069 0.01069 z m 2.969944,0 h -0.01548 v -0.01548 -0.01548 h 0.01548 0.01548 v 0.01548 0.01548 z m -21.973425,-0.031 h -0.01548 l 0.01914,-0.031 0.01914,-0.031 h 0.01548 0.01548 l -0.01914,0.031 -0.01914,0.031 z m 22.350437,-0.01032 -0.02068,0.02064 v -0.04132 -0.04132 l 0.02068,0.02064 0.02064,0.02064 z m 2.845636,0.01032 h -0.01548 v -0.01548 -0.01548 h 0.01548 0.01548 v 0.01548 0.01548 z m 2.203303,-0.0084 -0.01874,0.01874 0.0026,-0.05939 0.0026,-0.05939 0.01629,0.04067 0.01629,0.04067 -0.01874,0.0187 z m -18.001831,-0.04525 -0.01544,0.03815 0.0011,-0.09296 0.0011,-0.09296 0.01427,0.05481 0.01427,0.05482 -0.01544,0.03814 z m 21.102461,0.01233 -0.0206,0.02068 v -0.04132 -0.04132 l 0.0206,0.02064 0.0206,0.02064 z m -27.951621,-0.02064 h -0.01171 l -0.04253,-0.05423 -0.04253,-0.05423 0.05423,0.04253 0.05423,0.04253 v 0.01171 0.01171 z m 9.329574,0 h -0.0092 l -0.122489,-0.131697 -0.122489,-0.131693 0.131693,0.122489 0.131694,0.122492 v 0.0092 0.0092 z m 10.157443,0 h -0.01548 v -0.01548 -0.01548 h 0.01548 0.01548 v 0.01548 0.01548 z m 5.081863,-0.031 h -0.01548 v -0.01548 -0.01548 h 0.01548 0.01548 v 0.01548 0.01548 z m -27.020648,-0.031 h -0.01548 v -0.01548 -0.01548 h 0.01548 0.01548 v 0.01548 0.01548 z m 3.067714,0 h -0.01548 v -0.01548 -0.01548 h 0.01548 0.01548 v 0.01548 0.01548 z m 2.385997,0 h -0.01548 v -0.01548 -0.01548 h 0.01548 0.01548 v 0.01548 0.01548 z m 10.57427,-0.687333 -0.0089,0.702829 1.1e-5,-1.425402 1.5e-5,-1.425403 0.0089,0.722574 0.0089,0.722574 z m 9.048133,0.338729 -0.0098,0.3641 v -0.728195 -0.728196 l 0.0098,0.3641 0.0098,0.364096 z m 6.011545,-0.447131 -0.009,0.811231 1e-5,-1.642312 10e-6,-1.642309 0.009,0.831082 0.009,0.831081 z m -30.741636,0.754419 -0.02064,0.02068 v -0.04132 -0.04132 l 0.02064,0.02068 0.02064,0.02064 z m 5.820387,0.01032 h -0.01548 v -0.01548 -0.01548 h 0.01548 0.01548 v 0.01548 0.01548 z m -6.135422,-0.0303 h -0.01548 v -0.01548 -0.01548 h 0.01548 0.01548 v 0.01548 0.01548 z m 2.97475,-0.031 h -0.01548 v -0.01548 -0.01548 h 0.01548 0.01548 v 0.01548 0.01548 z m 15.679414,0 h -0.01548 v -0.01548 -0.01548 h 0.01548 0.01548 v 0.01548 0.01548 z m 0.712699,0 h -0.01548 v -0.01548 -0.01548 h 0.01548 0.01548 v 0.01548 0.01548 z m 7.653785,0 h -0.01548 v -0.01548 -0.01548 h 0.01548 0.01548 v 0.01548 0.01548 z m -21.504964,-0.031 h -0.01548 v -0.01548 -0.01548 h 0.01548 0.01548 v 0.01548 0.01548 z m 16.738132,-0.01032 -0.02064,0.02068 v -0.04132 -0.04132 l 0.02064,0.02068 0.02068,0.02064 z M 71.674627,98.06572 h -0.01548 v -0.01548 -0.01548 h 0.01548 0.01548 v 0.01548 0.01548 z m 2.200075,0 h -0.01548 v -0.01548 -0.01548 h 0.01548 0.01548 v 0.01548 0.01548 z m -5.484696,-0.031 h -0.01548 v -0.01548 -0.01548 h 0.01548 0.01548 v 0.01548 0.01548 z m 0.7127,0 h -0.01548 v -0.01548 -0.01548 h 0.01548 0.01548 v 0.01548 0.01548 z m 5.45371,0 h -0.01548 v -0.01548 -0.01548 h 0.01548 0.01548 v 0.01548 0.01548 z m 16.392113,0 h -0.01548 v -0.01548 -0.01548 h 0.01548 0.01548 v 0.01548 0.01548 z m -0.743687,-0.031 h -0.01548 v -0.01548 -0.01548 h 0.01548 0.01548 v 0.01548 0.01548 z m -18.49923,-0.031 h -0.01548 v -0.01548 -0.01548 h 0.01548 0.01548 v 0.01548 0.01548 z m 2.107117,0 h -0.01548 v -0.01548 -0.01548 h 0.01548 0.01548 v 0.01548 0.01548 z m -4.771996,-0.031 h -0.01548 v -0.01548 -0.01548 h 0.01548 0.01548 v 0.01548 0.01548 z m 2.949445,-0.01083 -0.02119,0.02119 v -0.03616 -0.03616 l -0.131697,-0.0052 -0.131694,-0.0052 0.120286,-0.01241 0.120282,-0.01241 0.03257,0.03257 0.03257,0.03257 z m 18.183676,0.01083 h -0.01548 v -0.01548 -0.01548 h 0.01548 0.01548 v 0.01548 0.01548 z M 77.995971,97.87975 h -0.01548 v -0.01548 -0.01548 h 0.01548 0.01548 v 0.01548 0.01548 z m 12.859597,0 h -0.01548 v -0.01548 -0.01548 h 0.01548 0.01548 v 0.01548 0.01548 z m -22.589511,-0.031 h -0.01548 v -0.01548 -0.01548 h 0.01548 0.01548 v 0.01548 0.01548 z m 9.760902,-0.031 h -0.01548 v -0.01548 -0.01548 h 0.01548 0.01548 v 0.01548 0.01548 z m -3.594492,-0.031 h -0.01548 v -0.01548 -0.01548 h 0.01548 0.01548 v 0.01548 0.01548 z m 3.625477,-0.031 h -0.01548 v -0.01548 -0.01548 h 0.01548 0.01548 v 0.01548 0.01548 z m 5.672447,0 h -0.01365 l -0.02211,-0.03576 -0.02211,-0.03576 0.03579,0.0221 0.03576,0.02211 v 0.01365 0.01365 z m -6.385147,-0.031 h -0.01548 v -0.01548 -0.01548 h 0.01548 0.01548 v 0.01548 0.01548 z m 13.448348,0 h -0.01548 v -0.01548 -0.01548 h 0.01548 0.01548 v 0.01548 0.01548 z m -16.392109,-0.031 h -0.01548 v -0.01548 -0.01548 h 0.01548 0.01548 v 0.01548 0.01548 z m 3.687449,0 h -0.01548 v -0.01548 -0.01548 h 0.01548 0.01548 v 0.01548 0.01548 z m 11.960973,0 h -0.01548 v -0.01548 -0.01548 h 0.01548 0.01548 v 0.01548 0.01548 z m -16.39211,-0.031 h -0.01548 v -0.01548 -0.01548 h 0.01548 0.01548 v 0.01548 0.01548 z m -4.771996,-0.031 h -0.01548 v -0.01548 -0.01548 h 0.01548 0.01548 v 0.01548 0.01548 z m 8.490434,0 h -0.01548 v -0.01548 -0.01548 h 0.01548 0.01548 v 0.01548 0.01548 z m -9.234121,-0.031 h -0.01548 v -0.01548 -0.01548 h 0.01548 0.01548 v 0.01548 0.01548 z m 5.484695,0 h -0.01548 v -0.01548 -0.01548 h 0.01548 0.01548 v 0.01548 0.01548 z m 0.743687,0 h -0.01548 v -0.01548 -0.01548 h 0.01548 0.01548 v 0.01548 0.01548 z m 3.036723,-0.06197 h -0.01548 V 97.5233 97.50782 h 0.01548 0.01548 v 0.01548 0.01548 z m -3.811398,-0.03082 h -0.01548 V 97.49248 97.477 h 0.01548 0.01548 v 0.01548 0.01548 z m 0.743687,0 h -0.01548 V 97.49248 97.477 h 0.01548 0.01548 v 0.01548 0.01548 z m 15.648426,0 h -0.01548 V 97.49248 97.477 h 0.01548 0.01548 v 0.01548 0.01548 z m 0.712699,-0.06197 h -0.01548 v -0.01548 -0.01548 h 0.01548 0.01548 v 0.01548 0.01548 z m -13.262426,-0.031 h -0.01548 v -0.01548 -0.01548 h 0.01548 0.01548 v 0.01548 0.01548 z m 0.743688,0 h -0.01548 v -0.01548 -0.01548 h 0.01548 0.01548 v 0.01548 0.01548 z m -4.617059,-0.031 h -0.01548 v -0.01548 -0.01548 h 0.01548 0.01548 v 0.01548 0.01548 z m 0.748852,-0.01032 -0.02068,0.02064 v -0.04132 -0.04132 l 0.02068,0.02064 0.02064,0.02064 z m 15.643258,0.01032 h -0.01548 v -0.01548 -0.01548 h 0.01548 0.01548 v 0.01548 0.01548 z m -21.164106,-0.031 h -0.01548 v -0.01548 -0.01548 h 0.01548 0.01548 v 0.01548 0.01548 z m -0.743687,-0.031 h -0.01548 v -0.01548 -0.01548 h 0.01548 0.01548 v 0.01548 0.01548 z m 10.168894,-0.04132 -0.02064,0.02064 v -0.04132 -0.04132 l 0.02064,0.02064 0.02064,0.02068 z m 4.215354,0.01032 h -0.0092 l -0.122493,-0.131694 -0.122489,-0.131693 0.131694,0.122489 0.131697,0.122489 v 0.0092 0.0092 z m 8.236248,0 h -0.01548 v -0.01548 -0.01548 h 0.01548 0.01548 v 0.01548 0.01548 z m 7.676794,-0.04344 -0.131927,0.0029 0.123455,-0.01252 0.123455,-0.01252 0.0096,-0.525061 0.0096,-0.525061 -0.0011,0.534555 -0.0011,0.534551 -0.131924,0.0029 z M 73.533846,97.22903 h -0.01548 v -0.01548 -0.01548 h 0.01548 0.01548 v 0.01548 0.01548 z m 3.935348,0 h -0.01548 v -0.01548 -0.01548 h 0.01548 0.01548 v 0.01548 0.01548 z m 12.461929,-0.01032 -0.02064,0.02064 v -0.04132 -0.04132 l 0.02064,0.02064 0.02064,0.02064 z M 68.76185,97.198046 h -0.01548 v -0.01548 -0.01548 h 0.01548 0.01548 v 0.01548 0.01548 z m 5.520848,-0.01032 -0.02064,0.02068 v -0.04132 -0.04132 l 0.02064,0.02064 0.02064,0.02068 z m -6.264535,-0.02064 h -0.01548 v -0.01548 -0.01548 h 0.01548 0.01548 v 0.01548 0.01548 z m 22.623723,-0.101353 -0.0187,0.01874 0.0026,-0.05939 0.0026,-0.05939 0.01629,0.04067 0.01629,0.04067 -0.0187,0.01874 z m 7.557596,0.0084 h -0.01548 v -0.01548 -0.01548 h 0.01548 0.01548 v 0.01548 0.01548 z m -19.952388,-0.03938 -0.01874,0.01874 0.0026,-0.05939 0.0026,-0.05939 0.01629,0.04067 0.01629,0.04067 -0.0187,0.01874 z m -9.513004,-0.031 -0.01874,0.01874 0.0026,-0.05939 0.0026,-0.05939 0.01629,0.04067 0.01629,0.04067 z m 29.434404,-0.02258 h -0.01548 v -0.01548 -0.01548 h 0.01548 0.01548 v 0.01548 0.01548 z m -24.659316,-0.08479 -0.01336,0.06929 3.66e-4,-0.154934 3.66e-4,-0.154933 0.01296,0.08564 0.01296,0.08564 z m -5.517169,1.61e-4 -0.01544,0.03815 0.0011,-0.09296 0.0011,-0.09296 0.01427,0.05481 0.01427,0.05482 z m 9.513966,-0.0157 -0.01409,0.05387 7.32e-4,-0.123949 7.32e-4,-0.123949 0.01347,0.07008 0.01347,0.07008 -0.01409,0.05387 z m 12.393827,-0.01526 -0.01544,0.03814 0.0011,-0.09296 0.0011,-0.09296 0.01427,0.05482 0.01427,0.05482 -0.01544,0.03814 z m 8.113759,-0.0083 h -0.01548 v -0.01548 -0.01548 h 0.01548 0.01548 v 0.01548 0.01548 z m -0.188506,-0.03345 -0.05939,-0.0026 0.04067,-0.01629 0.04067,-0.01629 0.01874,0.01874 0.0187,0.01874 z m -19.577961,-0.160881 -0.01874,0.0187 0.0026,-0.05939 0.0026,-0.05939 0.01629,0.04067 0.01629,0.04067 -0.0187,0.01874 z m -10.254053,-0.06133 -0.01416,0.05423 v -0.108457 -0.108453 l 0.01416,0.05423 0.01416,0.05423 z m 14.657663,0.03873 h -0.0088 l -0.169368,-0.178174 -0.169368,-0.178174 0.178174,0.169369 0.178173,0.169372 v 0.0088 0.0088 z m 7.991182,-0.0084 -0.0187,0.01874 0.0026,-0.05939 0.0026,-0.05939 0.01629,0.04067 0.01629,0.04067 -0.0187,0.01874 z m 6.510812,0.0015 -0.45803,0.0068 -0.01504,-0.03924 -0.01504,-0.03924 0.0088,-0.805156 0.0088,-0.805151 0.0072,0.828073 0.0072,0.828074 0.457057,0.0095 0.457057,0.0095 z m 0.752409,-0.02412 h -0.04132 l 0.02064,-0.02068 0.02068,-0.02064 0.02064,0.02064 0.02064,0.02068 z m 0.139442,-0.031 h -0.01548 v -0.01548 -0.01548 h 0.01548 0.01548 v 0.01548 0.01548 z m 0.05832,-0.031 h -0.01548 l 0.01914,-0.031 0.01914,-0.031 h 0.01548 0.01548 l -0.01914,0.031 -0.01914,0.031 z m -29.368775,-0.07036 -0.01874,0.01874 0.0026,-0.05939 0.0026,-0.05939 0.01629,0.04067 0.01629,0.04067 z m 5.548608,-0.0018 -0.02064,0.02064 v -0.04132 -0.04132 l 0.02064,0.02068 0.02064,0.02064 z m -0.748852,-0.05164 h -0.01548 v -0.01548 -0.01548 h 0.01548 0.01548 v 0.01548 0.01548 z m 3.940512,-0.01032 -0.02064,0.02068 v -0.04132 -0.04132 l 0.02064,0.02068 0.02064,0.02064 z m 0.743687,0 -0.02064,0.02068 v -0.04132 -0.04132 l 0.02064,0.02068 0.02064,0.02064 z m 11.713078,0 -0.02064,0.02068 v -0.04132 -0.04132 l 0.02064,0.02068 0.02064,0.02064 z m 0.743688,-0.06197 -0.02064,0.02068 v -0.04132 -0.04132 l 0.02064,0.02064 0.02064,0.02068 z m 7.524671,0.01032 h -0.01548 v -0.01548 -0.01548 h 0.01548 0.01548 v 0.01548 0.01548 z m -16.695692,-0.031 h -0.0092 l -0.122492,-0.131697 -0.122489,-0.131694 0.131693,0.122489 0.131698,0.122493 v 0.0092 0.0092 z m -13.485627,-0.06198 h -0.01548 v -0.01548 -0.01548 h 0.01548 0.01548 v 0.01548 0.01548 z m 5.546671,0 h -0.01548 v -0.01548 -0.01548 h 0.01548 0.01548 v 0.01548 0.01548 z m 0.743688,0 h -0.01548 v -0.01548 -0.01548 h 0.01548 0.01548 v 0.01548 0.01548 z m 3.873371,0 h -0.01548 v -0.01548 -0.01548 h 0.01548 0.01548 v 0.01548 0.01548 z m -9.414879,-0.04132 -0.02064,0.02064 v -0.04132 -0.04132 l 0.02064,0.02064 0.02064,0.02064 z m 8.671191,0.01032 h -0.01548 v -0.01548 -0.01548 h 0.01548 0.01548 v 0.01548 0.01548 z m 12.518739,0 h -0.01548 v -0.01548 -0.01548 h 0.01548 0.01548 v 0.01548 0.01548 z m 0.743687,-0.031 h -0.01548 v -0.01548 -0.01548 h 0.01548 0.01548 v 0.01548 0.01548 z m -12.549726,-0.031 h -0.01548 v -0.01548 -0.01548 h 0.01548 0.01548 v 0.01548 0.01548 z m -4.555086,-0.03093 h -0.01548 v -0.01548 -0.01548 h 0.01548 0.01548 v 0.01548 0.01548 z m 0.743687,0 h -0.01548 v -0.01548 -0.01548 h 0.01548 0.01548 v 0.01548 0.01548 z m -6.290355,-0.031 h -0.01548 v -0.01548 -0.01548 h 0.01548 0.01548 v 0.01548 0.01548 z m 9.358066,0 h -0.01548 v -0.01548 -0.01548 h 0.01548 0.01548 v 0.01548 0.01548 z m -8.614379,-0.031 h -0.01548 v -0.01548 -0.01548 h 0.01548 0.01548 v 0.01548 0.01548 z m 9.327082,0 h -0.01548 v -0.01548 -0.01548 h 0.01548 0.01548 v 0.01548 0.01548 z m 12.611699,0 h -0.01548 v -0.01548 -0.01548 h 0.01548 0.01548 v 0.01548 0.01548 z m -17.104812,-0.031 h -0.01548 v -0.01548 -0.01548 h 0.01548 0.01548 v 0.01548 0.01548 z m 3.749426,-0.031 h -0.01548 v -0.01548 -0.01548 h 0.01548 0.01548 v 0.01548 0.01548 z m -9.296098,-0.031 h -0.01548 v -0.01548 -0.01548 h 0.01548 0.01548 v 0.01548 0.01548 z m 22.682472,0 h -0.01548 v -0.01548 -0.01548 h 0.01548 0.01548 v 0.01548 0.01548 z m -21.938784,-0.031 h -0.01548 v -0.01548 -0.01548 h 0.01548 0.01548 v 0.01548 0.01548 z m 21.226082,0 h -0.01548 v -0.01548 -0.01548 h 0.01548 0.01548 v 0.01548 0.01548 z m -12.704661,-0.031 h -0.01548 v -0.01548 -0.01548 h 0.01548 0.01548 v 0.01548 0.01548 z m 0.7127,0 h -0.01548 v -0.01548 -0.01548 h 0.01548 0.01548 v 0.01548 0.01548 z m -9.946821,-0.031 h -0.01548 v -0.01548 -0.01548 h 0.01548 0.01548 v 0.01548 0.01548 z m 5.577657,0 h -0.01548 v -0.01548 -0.01548 h 0.01548 0.01548 v 0.01548 0.01548 z m -4.833969,-0.031 h -0.01548 v -0.01548 -0.01548 h 0.01548 0.01548 v 0.01548 0.01548 z m 5.577656,0 h -0.01548 v -0.01548 -0.01548 h 0.01548 0.01548 v 0.01548 0.01548 z m 3.594492,0 h -0.01548 v -0.01548 -0.01548 h 0.01548 0.01548 v 0.01548 0.01548 z m -9.884847,-0.031 h -0.01548 v -0.01548 -0.01548 h 0.01548 0.01548 v 0.01548 0.01548 z m 5.577656,0 h -0.01548 v -0.01548 -0.01548 h 0.01548 0.01548 v 0.01548 0.01548 z m 17.104812,0 h -0.01548 v -0.01548 -0.01548 h 0.01548 0.01548 v 0.01548 0.01548 z m -12.828609,-0.031 h -0.01548 v -0.01548 -0.01548 h 0.01548 0.01548 v 0.01548 0.01548 z m -0.712699,-0.031 h -0.01548 v -0.01548 -0.01548 h 0.01548 0.01548 v 0.01548 0.01548 z m 13.572296,0 h -0.01548 v -0.01548 -0.01548 h 0.01548 0.01548 v 0.01548 0.01548 z m -9.94682,-0.031 h -0.01548 v -0.01548 -0.01548 h 0.01548 0.01548 v 0.01548 0.01548 z m -11.991964,-0.031 h -0.01548 v -0.01548 -0.01548 h 0.01548 0.01548 v 0.01548 0.01548 z m 8.335499,0 h -0.01548 v -0.01548 -0.01548 h 0.01548 0.01548 v 0.01548 0.01548 z m 13.63427,0 h -0.01548 v -0.01548 -0.01548 h 0.01548 0.01548 v 0.01548 0.01548 z m -17.073824,-0.031 h -0.01548 v -0.01548 -0.01548 h 0.01548 0.01548 v 0.01548 0.01548 z m -4.864957,-0.031 h -0.01548 v -0.01548 -0.01548 h 0.01548 0.01548 v 0.01548 0.01548 z m 8.273523,0 h -0.01548 v -0.01548 -0.01548 h 0.01548 0.01548 v 0.01548 0.01548 z m 0.681715,0 h -0.01548 v -0.01548 -0.01548 h 0.01548 0.01548 v 0.01548 0.01548 z m 12.301832,0 h -0.01548 v -0.01548 -0.01548 h 0.01548 0.01548 v 0.01548 0.01548 z m 0.712699,0 h -0.01548 v -0.01548 -0.01548 h 0.01548 0.01548 v 0.01548 0.01548 z m 13.355385,0 h -0.0155 v -0.01548 -0.01548 h 0.0155 0.0155 v 0.01548 0.01548 z m -29.71651,-0.031 h -0.01548 v -0.01548 -0.01548 h 0.01548 0.01548 v 0.01548 0.01548 z m 19.304887,0 h -0.01548 v -0.01548 -0.01548 h 0.01548 0.01548 v 0.01548 0.01548 z m -25.595246,-0.031 h -0.01548 v -0.01548 -0.01548 h 0.01548 0.01548 v 0.01548 0.01548 z m 0.712703,0 h -0.01548 v -0.01548 -0.01548 h 0.01548 0.01548 v 0.01548 0.01548 z m 4.895942,0 h -0.01548 v -0.01548 -0.01548 h 0.01548 0.01548 v 0.01548 0.01548 z m 3.284621,-0.031 h -0.01548 v -0.01548 -0.01548 h 0.01548 0.01548 v 0.01548 0.01548 z m 0.681714,0 h -0.01548 v -0.01548 -0.01548 h 0.01548 0.01548 v 0.01548 0.01548 z m 12.425778,0 h -0.01548 v -0.01548 -0.01548 h 0.01548 0.01548 v 0.01548 0.01548 z m 0.712699,0 h -0.01548 v -0.01548 -0.01548 h 0.01548 0.01548 v 0.01548 0.01548 z m 2.602906,0 h -0.01548 v -0.01548 -0.01548 h 0.01548 0.01548 v 0.01548 0.01548 z m 6.605386,-0.01032 -0.0207,0.02064 v -0.04132 -0.04132 l 0.0207,0.02064 0.0207,0.02064 z m 0.27372,0.01032 h -0.0155 v -0.01548 -0.01548 h 0.0155 0.0155 v 0.01548 0.01548 z m -1.637141,-0.04132 -0.02064,0.02068 v -0.04132 -0.04132 l 0.02064,0.02064 0.02068,0.02068 z m -27.149758,-0.02064 h -0.01548 v -0.01548 -0.01548 h 0.01548 0.01548 v 0.01548 0.01548 z m 32.567309,0 h -0.0155 v -0.01548 -0.01548 h 0.0155 0.0155 v 0.01548 0.01548 z m -30.274274,-0.031 h -0.01548 v -0.01548 -0.01548 h 0.01548 0.01548 v 0.01548 0.01548 z m 3.129688,0 h -0.01548 v -0.01548 -0.01548 h 0.01548 0.01548 v 0.01548 0.01548 z m 13.94414,0 h -0.01548 v -0.01548 -0.01548 h 0.01548 0.01548 v 0.01548 0.01548 z m 2.509946,0 h -0.01548 v -0.01548 -0.01548 h 0.01548 0.01548 v 0.01548 0.01548 z m 10.97455,-0.01032 -0.0206,0.02064 v -0.04132 -0.04132 l 0.0206,0.02064 0.0206,0.02064 z m -29.845621,-0.02064 h -0.01548 v -0.01548 -0.01548 h 0.01548 0.01548 v 0.01548 0.01548 z m 3.067711,0 H 77.7326 v -0.01548 -0.01548 h 0.01548 0.01548 v 0.01548 0.01548 z m 12.608043,0 h -0.01548 l 0.01914,-0.031 0.01914,-0.031 h 0.01548 0.01548 l -0.01914,0.031 -0.01914,0.031 z m 8.184219,0 h -0.01548 v -0.01548 -0.01548 h 0.01548 0.01548 v 0.01548 0.01548 z m 1.952178,0 h -0.0155 v -0.01548 -0.01548 h 0.0155 0.0155 v 0.01548 0.01548 z m -32.10251,-0.031 h -0.01548 v -0.01548 -0.01548 h 0.01548 0.01548 v 0.01548 0.01548 z m 0.7127,0 h -0.01548 v -0.01548 -0.01548 h 0.01548 0.01548 v 0.01548 0.01548 z m 2.82498,-0.01032 -0.02068,0.02064 v -0.04132 -0.04132 l 0.02068,0.02064 0.02064,0.02064 z m 21.907796,0 -0.02064,0.02064 v -0.04132 -0.04132 l 0.02064,0.02064 0.02064,0.02064 z m 10.375474,0.01032 h -0.0155 v -0.01548 -0.01548 h 0.0155 0.0155 v 0.01548 0.01548 z m -32.567317,-0.031 h -0.01548 v -0.01548 -0.01548 h 0.01548 0.01548 v 0.01548 0.01548 z m 8.867079,-0.031 h -0.01069 l -0.05903,-0.06972 -0.05903,-0.06972 0.06972,0.05903 0.06972,0.05903 v 0.01069 0.01069 z m 3.594851,-0.01032 -0.02064,0.02064 v -0.04132 -0.04132 l 0.02064,0.02064 0.02068,0.02068 z m 20.074397,0.01032 h -0.0155 v -0.01548 -0.01548 h 0.0155 0.0155 v 0.01548 0.01548 z m -27.201163,-0.031 h -0.0101 l -0.07512,-0.08522 -0.07512,-0.08521 0.08521,0.07512 0.08522,0.07512 v 0.0101 0.0101 z m 6.754922,-0.01032 -0.02064,0.02068 v -0.04132 -0.04132 l 0.02064,0.02068 0.02064,0.02064 z m 14.775628,0.01032 h -0.01548 v -0.01548 -0.01548 h 0.01548 0.01548 v 0.01548 0.01548 z m 0.284047,-0.01032 -0.02068,0.02068 v -0.04132 -0.04132 l 0.02068,0.02068 0.02064,0.02064 z m 1.425396,0 -0.0206,0.02068 v -0.04132 -0.04132 l 0.0206,0.02068 0.0206,0.02064 z m -31.026786,-0.02064 h -0.01548 l 0.01914,-0.031 0.01914,-0.031 h 0.01548 0.01548 l -0.01914,0.031 -0.01914,0.031 z m 24.266465,0 h -0.01548 v -0.01548 -0.01548 h 0.01548 0.01548 v 0.01548 0.01548 z m 10.690501,0 h -0.0155 v -0.01548 -0.01548 h 0.0155 0.0155 v 0.01548 0.01548 z m -22.861697,-0.031 h -0.0088 l -0.169368,-0.178174 -0.169372,-0.178174 0.178178,0.169368 0.178174,0.169372 v 0.0088 0.0088 z m 19.298197,0 H 100.57 v -0.01548 -0.01548 h 0.0155 0.0155 v 0.01548 0.01548 z m -13.634267,-0.031 h -0.01548 v -0.01548 -0.01548 h 0.01548 0.01548 v 0.01548 0.01548 z m 0.712699,0 h -0.01548 v -0.01548 -0.01548 h 0.01548 0.01548 v 0.01548 0.01548 z m 2.909118,0 h -0.01548 l 0.01914,-0.031 0.01914,-0.031 h 0.01548 0.01548 l -0.01914,0.031 -0.01914,0.031 z m 5.426378,0 h -0.01548 v -0.01548 -0.01548 h 0.01548 0.01548 v 0.01548 0.01548 z m 8.495602,-0.01032 -0.0206,0.02064 v -0.04132 -0.04132 l 0.0206,0.02068 0.0206,0.02064 z m -32.944328,-0.02064 h -0.01548 v -0.01548 -0.01548 h 0.01548 0.01548 v 0.01548 0.01548 z m 2.692211,0 h -0.01548 l 0.01914,-0.031 0.01914,-0.031 h 0.01548 0.01548 l -0.01914,0.031 -0.01914,0.031 z m 24.204488,0 h -0.01548 v -0.01548 -0.01548 h 0.01548 0.01548 v 0.01548 0.01548 z m -20.978183,-0.031 h -0.01548 v -0.01548 -0.01548 h 0.01548 0.01548 v 0.01548 0.01548 z m 2.85263,0 h -0.01365 l -0.02211,-0.03579 -0.0221,-0.03576 0.03576,0.02211 0.03576,0.02211 v 0.01365 0.01365 z m 3.375752,0 H 83.6821 v -0.01548 -0.01548 h 0.01548 0.01548 v 0.01548 0.01548 z m 10.106918,-0.01032 -0.02064,0.02068 v -0.04132 -0.04132 l 0.02064,0.02064 0.02064,0.02064 z m 6.873942,0.01032 h -0.0155 v -0.01548 -0.01548 h 0.0155 0.0155 v 0.01548 0.01548 z m -28.781735,-0.04132 -0.02064,0.02064 v -0.04132 -0.04132 l 0.02064,0.02064 0.02064,0.02064 z m 15.02352,0.01032 h -0.01548 v -0.01548 -0.01548 h 0.01548 0.01548 v 0.01548 0.01548 z m 0.774676,0 h -0.01548 v -0.01548 -0.01548 h 0.01548 0.01548 v 0.01548 0.01548 z m 3.687449,0 h -0.01548 v -0.01548 -0.01548 h 0.01548 0.01548 v 0.01548 0.01548 z m 4.586074,0 h -0.01548 v -0.01548 -0.01548 h 0.01548 0.01548 v 0.01548 0.01548 z m 8.025626,0 h -0.0155 v -0.01548 -0.01548 h 0.0155 0.0155 v 0.01548 0.01548 z m -34.616114,-0.031 h -0.01548 l 0.01914,-0.031 0.01914,-0.031 h 0.01548 0.01548 l -0.01914,0.031 -0.01914,0.031 z m 5.643289,0 h -0.01548 v -0.01548 -0.01548 h 0.01548 0.01548 v 0.01548 0.01548 z m 1.704285,0 h -0.01548 v -0.01548 -0.01548 h 0.01548 0.01548 v 0.01548 0.01548 z m 6.941082,0 h -0.01548 v -0.01548 -0.01548 h 0.01548 0.01548 v 0.01548 0.01548 z m 0.495793,0 H 84.1469 v -0.01548 -0.01548 h 0.01548 0.01548 v 0.01548 0.01548 z m 6.569238,0 h -0.01548 v -0.01548 -0.01548 h 0.01548 0.01548 v 0.01548 0.01548 z m 7.622797,0 h -0.01548 v -0.01548 -0.01548 h 0.01548 0.01548 v 0.01548 0.01548 z m 2.41698,0 h -0.0155 v -0.01548 -0.01548 h 0.0155 0.0155 v 0.01548 0.01548 z m 3.16067,0 h -0.0155 v -0.01548 -0.01548 h 0.0155 0.0155 v 0.01548 0.01548 z m -26.586822,-0.031 h -0.01548 v -0.01548 -0.01548 h 0.01548 0.01548 v 0.01548 0.01548 z m 14.130063,0 h -0.01548 v -0.01548 -0.01548 h 0.01548 0.01548 v 0.01548 0.01548 z m 1.766258,0 h -0.01548 v -0.01548 -0.01548 h 0.01548 0.01548 v 0.01548 0.01548 z m 5.050878,0 h -0.01548 v -0.01548 -0.01548 h 0.01548 0.01548 v 0.01548 0.01548 z m 0.469969,-0.01032 -0.02064,0.02064 v -0.04132 -0.04132 l 0.02064,0.02064 0.02064,0.02068 z m 1.487374,0 -0.0206,0.02064 v -0.04132 -0.04132 l 0.0206,0.02064 0.0206,0.02068 z m 0.61457,0.01032 h -0.0155 v -0.01548 -0.01548 h 0.0155 0.0155 v 0.01548 0.01548 z m -32.102506,-0.031 h -0.01548 v -0.01548 -0.01548 h 0.01548 0.01548 v 0.01548 0.01548 z m 6.352332,0 h -0.01548 v -0.01548 -0.01548 h 0.01548 0.01548 v 0.01548 0.01548 z m 1.518363,0 h -0.01548 v -0.01548 -0.01548 h 0.01548 0.01548 v 0.01548 0.01548 z m 3.532516,0 h -0.01548 v -0.01548 -0.01548 h 0.01548 0.01548 v 0.01548 0.01548 z m 4.059293,0 h -0.01548 v -0.01548 -0.01548 h 0.01548 0.01548 v 0.01548 0.01548 z m 6.600226,0 h -0.01548 v -0.01548 -0.01548 h 0.01548 0.01548 v 0.01548 0.01548 z m 7.343914,0 h -0.01548 v -0.01548 -0.01548 h 0.01548 0.01548 v 0.01548 0.01548 z m 2.819812,0 h -0.0155 v -0.01548 -0.01548 h 0.0155 0.0155 v 0.01548 0.01548 z m 2.74235,0 h -0.0413 l 0.0206,-0.02068 0.0207,-0.02064 0.0207,0.02064 0.0207,0.02068 z m -26.478373,-0.031 h -0.01548 v -0.01548 -0.01548 h 0.01548 0.01548 v 0.01548 0.01548 z m 2.850801,0 h -0.01548 v -0.01548 -0.01548 h 0.01548 0.01548 v 0.01548 0.01548 z m 3.439555,0 h -0.01548 v -0.01548 -0.01548 h 0.01548 0.01548 v 0.01548 0.01548 z m 0.743687,0 h -0.01548 v -0.01548 -0.01548 h 0.01548 0.01548 v 0.01548 0.01548 z m 2.509946,0 h -0.01548 v -0.01548 -0.01548 h 0.01548 0.01548 v 0.01548 0.01548 z m 1.02257,0 h -0.01548 v -0.01548 -0.01548 h 0.01548 0.01548 v 0.01548 0.01548 z m 8.025629,0 h -0.01548 v -0.01548 -0.01548 h 0.01548 0.01548 v 0.01548 0.01548 z m 2.014156,-0.006 -0.09296,-0.0011 0.05481,-0.01427 0.05482,-0.01427 0.03814,0.01544 0.03815,0.01544 -0.09296,-0.0011 z m 3.362079,0.0011 h -0.0775 l 0.0387,-0.01563 0.0387,-0.01563 0.0387,0.01563 0.0387,0.01563 z m 2.27497,0.0026 -0.0594,-0.0026 0.0407,-0.01629 0.0407,-0.01629 0.0187,0.01874 0.0187,0.01874 -0.0594,-0.0026 z m -33.95915,-0.02855 h -0.01548 v -0.01548 -0.01548 h 0.01548 0.01548 v 0.01548 0.01548 z m 5.01989,0 h -0.01548 v -0.01548 -0.01548 h 0.01548 0.01548 v 0.01548 0.01548 z m 5.453707,0 h -0.01548 v -0.01548 -0.01548 h 0.01548 0.01548 v 0.01548 0.01548 z m 3.424063,0 h -0.04132 l 0.02064,-0.02064 0.02064,-0.02064 0.02064,0.02064 0.02064,0.02064 z m 0.960597,0 h -0.04132 l 0.02064,-0.02064 0.02064,-0.02064 0.02064,0.02064 0.02064,0.02064 z m 2.277543,0 h -0.01548 v -0.01548 -0.01548 h 0.01548 0.01548 v 0.01548 0.01548 z m 1.270465,0 h -0.01548 v -0.01548 -0.01548 h 0.01548 0.01548 v 0.01548 0.01548 z m 7.777731,0 h -0.01548 v -0.01548 -0.01548 h 0.01548 0.01548 v 0.01548 0.01548 z m 8.743494,-0.01032 -0.0207,0.02068 v -0.04132 -0.04132 l 0.0207,0.02064 0.0206,0.02068 z m -35.578217,-0.02064 h -0.01548 v -0.01548 -0.01548 h 0.01548 0.01548 v 0.01548 0.01548 z m 5.73259,0 h -0.01548 v -0.01548 -0.01548 h 0.01548 0.01548 v 0.01548 0.01548 z m 0.681715,0 h -0.01548 v -0.01548 -0.01548 h 0.01548 0.01548 v 0.01548 0.01548 z m 4.560952,-0.03874 -0.01416,0.05423 V 94.84304 94.734583 l 0.01416,0.05423 0.01416,0.05423 z m 11.118458,0.03874 h -0.01548 v -0.01548 -0.01548 h 0.01548 0.01548 v 0.01548 0.01548 z m 2.014156,0 h -0.01548 v -0.01548 -0.01548 h 0.01548 0.01548 v 0.01548 0.01548 z m -21.752863,-0.031 h -0.01548 v -0.01548 -0.01548 h 0.01548 0.01548 v 0.01548 0.01548 z m 5.14384,0 h -0.01548 v -0.01548 -0.01548 h 0.01548 0.01548 v 0.01548 0.01548 z m 0.712703,0 h -0.01548 v -0.01548 -0.01548 h 0.01548 0.01548 v 0.01548 0.01548 z m 13.94414,0 h -0.01548 v -0.01548 -0.01548 h 0.01548 0.01548 v 0.01548 0.01548 z m 0.743688,0 h -0.01548 v -0.01548 -0.01548 h 0.01548 0.01548 v 0.01548 0.01548 z m 1.115531,0 h -0.01548 v -0.01548 -0.01548 h 0.01548 0.01548 v 0.01548 0.01548 z m 0.872801,-0.01032 -0.02064,0.02064 v -0.04132 -0.04132 l 0.02064,0.02064 0.02064,0.02064 z m -24.082055,-0.0208 h -0.01548 V 94.8584 94.84292 h 0.01548 0.01548 v 0.01548 0.01548 z m 1.487375,0 h -0.01548 V 94.8584 94.84292 h 0.01548 0.01548 v 0.01548 0.01548 z m 0.686879,-0.01032 -0.02064,0.02068 V 94.84292 94.8016 l 0.02064,0.02064 0.02064,0.02064 z m 2.876625,0.01032 h -0.01548 V 94.8584 94.84292 h 0.01548 0.01548 v 0.01548 0.01548 z m 0.743688,0 h -0.01548 V 94.8584 94.84292 h 0.01548 0.01548 v 0.01548 0.01548 z m 1.549347,0 h -0.01548 V 94.8584 94.84292 h 0.01548 0.01548 v 0.01548 0.01548 z m 14.06809,0 h -0.01548 V 94.8584 94.84292 h 0.01548 0.01548 v 0.01548 0.01548 z m 0.80566,0 h -0.01548 V 94.8584 94.84292 h 0.01548 0.01548 v 0.01548 0.01548 z m 0.898625,0 h -0.01548 V 94.8584 94.84292 h 0.01548 0.01548 v 0.01548 0.01548 z m -23.767015,-0.031 h -0.01548 V 94.8274 94.81192 h 0.01548 0.01548 v 0.01548 0.01548 z m 2.076129,0 h -0.01548 V 94.8274 94.81192 h 0.01548 0.01548 v 0.01548 0.01548 z m 3.687449,0 h -0.01548 V 94.8274 94.81192 h 0.01548 0.01548 v 0.01548 0.01548 z m 0.805664,0 h -0.01548 V 94.8274 94.81192 h 0.01548 0.01548 v 0.01548 0.01548 z m 0.526777,0 h -0.01548 V 94.8274 94.81192 h 0.01548 0.01548 v 0.01548 0.01548 z m 15.911813,0 h -0.04131 l 0.02064,-0.02064 0.02064,-0.02064 0.02064,0.02064 0.02064,0.02064 z m 0.588753,0 h -0.04132 l 0.02064,-0.02064 0.02064,-0.02064 0.02068,0.02064 0.02064,0.02064 z m -23.534612,-0.031 h -0.01548 V 94.7964 94.78092 h 0.01548 0.01548 v 0.01548 0.01548 z m 0.743687,0 h -0.01548 V 94.7964 94.78092 h 0.01548 0.01548 v 0.01548 0.01548 z m 1.177508,0 h -0.01548 V 94.7964 94.78092 h 0.01548 0.01548 v 0.01548 0.01548 z m 5.856539,0 H 76.86496 V 94.7964 94.78092 h 0.01548 0.01548 v 0.01548 0.01548 z m 14.377957,0 h -0.01548 V 94.7964 94.78092 h 0.01548 0.01548 v 0.01548 0.01548 z m 7.467863,0 H 98.71078 V 94.7964 94.78092 h 0.01548 0.01548 v 0.01548 0.01548 z m 1.55452,-0.01032 -0.0206,0.02064 v -0.04132 -0.04132 l 0.0206,0.02068 0.0206,0.02064 z M 69.164682,94.78092 h -0.01548 v -0.01548 -0.01548 h 0.01548 0.01548 v 0.01548 0.01548 z m 0.774672,0 h -0.01548 v -0.01548 -0.01548 h 0.01548 0.01548 v 0.01548 0.01548 z m 0.991586,0 h -0.01548 v -0.01548 -0.01548 h 0.01548 0.01548 v 0.01548 0.01548 z m 4.028308,0 h -0.01548 v -0.01548 -0.01548 h 0.01548 0.01548 v 0.01548 0.01548 z m 16.39211,0 h -0.01548 v -0.01548 -0.01548 h 0.01548 0.01548 v 0.01548 0.01548 z m 2.277543,0 h -0.04131 l 0.02064,-0.02064 0.02064,-0.02068 0.02064,0.02068 0.02064,0.02064 z m -23.565598,-0.031 h -0.01548 v -0.01548 -0.01548 h 0.01548 0.01548 v 0.01548 0.01548 z m 0.728195,0 h -0.04132 l 0.02064,-0.02068 0.02064,-0.02064 0.02064,0.02064 0.02064,0.02068 z m 5.90302,0 h -0.01548 v -0.01548 -0.01548 h 0.01548 0.01548 v 0.01548 0.01548 z m 14.749801,0 h -0.01548 v -0.01548 -0.01548 h 0.01548 0.01548 v 0.01548 0.01548 z m 2.029648,0 h -0.04132 l 0.02068,-0.02068 0.02064,-0.02064 0.02064,0.02064 0.02064,0.02068 z m 7.576313,-0.006 -0.093,-0.0011 0.0548,-0.01427 0.0548,-0.01427 0.0381,0.01544 0.0381,0.01544 z m 2.60291,0 -0.093,-0.0011 0.0548,-0.01427 0.0548,-0.01427 0.0382,0.01544 0.0381,0.01544 z M 69.319616,94.71896 h -0.01548 V 94.70348 94.688 h 0.01548 0.01548 v 0.01548 0.01548 z m 1.100039,-0.0093 h -0.17043 l 0.08521,-0.01292 0.08522,-0.01292 0.08521,0.01292 0.08521,0.01292 z m 4.7565,0.0093 h -0.01548 V 94.70348 94.688 h 0.01548 0.01548 v 0.01548 0.01548 z m 1.394414,0 h -0.01548 V 94.70348 94.688 h 0.01548 0.01548 v 0.01548 0.01548 z m 14.997699,0 h -0.01548 V 94.70348 94.688 h 0.01548 0.01548 v 0.01548 0.01548 z m 1.719777,0 h -0.04132 l 0.02064,-0.02064 0.02064,-0.02068 0.02068,0.02068 0.02064,0.02064 z m 7.263865,-0.0026 -0.0594,-0.0026 0.0407,-0.01629 0.0407,-0.01629 0.0187,0.01874 0.0187,0.01874 z m 3.59449,0 -0.0594,-0.0026 0.0407,-0.01629 0.0407,-0.01629 0.0187,0.01874 0.0187,0.01874 z m 0.28147,0.0026 h -0.0155 V 94.70348 94.688 h 0.0155 0.0155 v 0.01548 0.01548 z m -32.660282,-0.031 h -0.01548 V 94.67248 94.657 h 0.01548 0.01548 v 0.01548 0.01548 z m 3.578996,0 h -0.04132 l 0.02064,-0.02064 0.02064,-0.02068 0.02064,0.02068 0.02064,0.02064 z m 1.069051,0 h -0.01548 V 94.67248 94.657 h 0.01548 0.01548 v 0.01548 0.01548 z m 15.323062,0 h -0.04132 l 0.02064,-0.02064 0.02064,-0.02068 0.02064,0.02068 0.02064,0.02064 z m 1.314365,-0.0026 -0.05939,-0.0026 0.04067,-0.01629 0.04067,-0.01629 0.0187,0.0187 0.01874,0.01874 z M 69.505538,94.65681 h -0.01548 v -0.01548 -0.01548 h 0.01548 0.01548 v 0.01548 0.01548 z m 2.107113,0 h -0.01548 v -0.01548 -0.01548 h 0.01548 0.01548 v 0.01548 0.01548 z m 3.99474,-0.0026 -0.05939,-0.0026 0.04067,-0.01629 0.04067,-0.01629 0.01874,0.01874 0.0187,0.01874 z m 0.544853,-0.0026 h -0.07746 l 0.03873,-0.01563 0.03873,-0.01563 0.03874,0.01563 0.03873,0.01563 z m 15.84726,0.0026 -0.05939,-0.0026 0.04067,-0.01629 0.04067,-0.01629 0.01874,0.01874 0.01874,0.01874 z m 0.668803,-0.0026 h -0.07747 l 0.03873,-0.01563 0.03874,-0.01563 0.03873,0.01563 0.03873,0.01563 z M 69.598498,94.62552 h -0.01548 v -0.01548 -0.01548 h 0.01548 0.01548 v 0.01548 0.01548 z m 1.843727,0 h -0.04132 l 0.02064,-0.02064 0.02064,-0.02068 0.02064,0.02068 0.02064,0.02064 z m -1.688793,-0.031 h -0.01548 v -0.01548 -0.01548 h 0.01548 0.01548 v 0.01548 0.01548 z m 1.471883,0 h -0.04132 l 0.02064,-0.02064 0.02064,-0.02064 0.02064,0.02064 0.02064,0.02064 z m -1.239481,-0.031 h -0.04131 l 0.02064,-0.02064 0.02064,-0.02064 0.02064,0.02064 0.02064,0.02064 z m 0.92961,-0.0049 h -0.07746 l 0.03873,-0.01563 0.03873,-0.01563 0.03874,0.01563 0.03873,0.01563 z"
       id="path1296" />
    <path
       style="fill:#000000;stroke:#fc0000;stroke-width:0.030987;stroke-opacity:0"
       d="m 75.857869,98.961325 -0.309871,-0.0026 -0.221239,-0.04015 -0.22124,-0.04016 -0.119616,-0.03831 -0.119616,-0.03831 -0.247192,-0.127268 -0.247192,-0.127269 -0.251133,-0.248528 -0.251134,-0.248524 -0.12975,-0.26339 -0.12975,-0.263391 -0.04889,-0.232402 -0.04889,-0.232403 0.01402,-0.356348 0.01402,-0.356351 0.09156,-0.264759 0.09155,-0.264756 0.116926,-0.176157 0.116926,-0.176158 0.229061,-0.213916 0.229061,-0.21392 0.256404,-0.125786 0.2564,-0.125787 0.201414,-0.05591 0.201418,-0.05591 0.573258,3.29e-4 0.573261,3.3e-4 0.287813,0.100065 0.287817,0.100068 0.176988,0.111685 0.176991,0.111688 0.180129,0.175137 0.180132,0.175136 0.134423,0.216906 0.13442,0.21691 0.08421,0.232403 0.08421,0.232402 0.01479,0.371844 0.01479,0.371844 -0.04853,0.228222 -0.04853,0.228223 -0.113299,0.229295 -0.113299,0.229299 -0.19931,0.215274 -0.199313,0.215274 -0.21919,0.145718 -0.21919,0.145718 -0.251544,0.0863 -0.251547,0.0863 -0.201414,0.03232 -0.201414,0.03232 -0.309871,-0.0026 z m 0,-0.153071 0.247895,3.66e-4 0.159578,-0.04249 0.159578,-0.04249 0.165785,-0.08822 0.165786,-0.08822 0.189966,-0.193399 0.189962,-0.193403 0.126657,-0.256531 0.126662,-0.256529 0.05304,-0.21691 0.05304,-0.21691 -7.32e-4,-0.418324 -7.32e-4,-0.418324 -0.06583,-0.241713 -0.06583,-0.24171 -0.117036,-0.223091 -0.117036,-0.223092 -0.20145,-0.204448 -0.201447,-0.204448 -0.203376,-0.0965 -0.203376,-0.0965 -0.217005,-0.03367 -0.217005,-0.03367 -0.207852,0.03319 -0.207849,0.0332 -0.163248,0.06108 -0.163249,0.06108 -0.183258,0.147632 -0.18325,0.147636 -0.162283,0.238588 -0.162279,0.238587 -0.07985,0.252762 -0.07985,0.252763 -0.02932,0.283062 -0.02932,0.283059 0.02994,0.288936 0.02994,0.288941 0.07949,0.23784 0.07949,0.237841 0.07419,0.127324 0.07419,0.127323 0.120238,0.152112 0.120234,0.152112 0.176066,0.121263 0.17607,0.121259 0.208488,0.07106 0.208489,0.07105 0.247895,3.66e-4 z m 8.227043,-1.747885 -0.01548,1.894701 -1.563189,-1.614427 -1.563186,-1.614424 -0.02489,-0.01032 -0.02489,-0.01032 1.86e-4,1.311781 1.87e-4,1.311785 0.03235,0.116494 0.03235,0.116494 0.07482,0.04902 0.07482,0.04902 0.18703,0.01695 0.187028,0.01694 v 0.07316 0.07317 h -0.75918 -0.759184 v -0.07747 -0.07747 l 0.131698,-6.2e-5 0.131693,-6.3e-5 0.10842,-0.05418 0.108417,-0.05418 0.04652,-0.09296 0.04652,-0.09296 0.0101,-1.514912 0.0101,-1.514908 -0.149565,-0.153115 -0.149539,-0.15314 -0.114968,-0.05947 -0.114964,-0.05947 h -0.0787 -0.0787 v -0.07747 -0.07747 h 0.475751 0.475748 l 1.453192,1.489677 1.453188,1.489677 0.0081,-1.261882 0.0081,-1.261879 -0.05458,-0.111348 -0.05458,-0.111352 -0.07747,-0.03852 -0.07747,-0.03852 -0.162681,-3.66e-4 -0.162682,-3.66e-4 v -0.07747 -0.07747 h 0.75918 0.759183 v 0.07747 0.07747 H 84.520767 84.36785 l -0.07786,0.02961 -0.07786,0.02961 -0.05585,0.08521 -0.05585,0.08521 z m 8.227856,1.900162 -0.341668,-0.0038 -0.201418,-0.02855 -0.201414,-0.02855 -0.255991,-0.08802 -0.25599,-0.08801 -0.176787,-0.104281 -0.176786,-0.104277 -0.220885,-0.218345 -0.220885,-0.218344 -0.114082,-0.230968 -0.114086,-0.230968 -0.04681,-0.170426 -0.04681,-0.170429 -0.01859,-0.341463 -0.01859,-0.341463 0.05155,-0.262783 0.05154,-0.262783 0.124484,-0.255332 0.124483,-0.255328 0.172399,-0.186211 0.172399,-0.186211 0.226678,-0.15161 0.226678,-0.151614 0.242559,-0.07963 0.242554,-0.07962 0.211962,-0.03583 0.211962,-0.03583 0.578206,0.01555 0.578206,0.01555 0.294379,0.05305 0.294375,0.05305 0.02152,0.02028 0.02152,0.02028 0.03294,0.278883 0.03294,0.278883 0.01801,0.116201 0.01801,0.116201 h -0.123224 -0.123225 l -0.01951,-0.103999 -0.01951,-0.103999 -0.09263,-0.139848 -0.09263,-0.139844 -0.119759,-0.08299 -0.119755,-0.08299 -0.15333,-0.05826 -0.153327,-0.05826 -0.256569,-0.03513 -0.256568,-0.03513 -0.213093,0.03305 -0.213093,0.03305 -0.170349,0.06373 -0.170349,0.06374 -0.184334,0.135701 -0.184337,0.135697 -0.124176,0.16449 -0.124176,0.164489 -0.109127,0.232403 -0.109126,0.232402 -0.05216,0.262567 -0.05216,0.262564 0.01687,0.37267 0.01687,0.372668 0.07949,0.247894 0.07948,0.247895 0.116996,0.197289 0.116995,0.197286 0.186987,0.174558 0.186991,0.174554 0.174656,0.08497 0.174661,0.08497 0.179389,0.04672 0.179385,0.04673 0.295616,-3.66e-4 0.295612,-3.66e-4 0.160003,-0.0426 0.160006,-0.0426 0.146113,-0.07297 0.146114,-0.07297 0.1051,-0.122789 0.105105,-0.122789 0.06548,-0.179594 0.06548,-0.179594 h 0.104303 0.104303 l -0.0011,0.08522 -0.0011,0.08521 -0.03979,0.301713 -0.03979,0.301717 -0.01768,0.01768 -0.01768,0.01768 -0.290012,0.05874 -0.290009,0.05875 -0.262578,0.03243 -0.262574,0.03243 z m 6.511511,-0.04266 h -0.0051 l -0.433816,-0.01925 -0.433817,-0.01925 -1.26272,-0.02448 -1.262721,-0.02448 v -0.07245 -0.07245 h 0.140437 0.140437 l 0.105401,-0.04404 0.1054,-0.04404 0.05629,-0.103146 0.05629,-0.10315 v -1.580336 -1.580336 l -0.0431,-0.102169 -0.0431,-0.102169 -0.08706,-0.04502 -0.08706,-0.04502 h -0.171966 -0.171967 v -0.07747 -0.07747 h 1.642312 1.642309 l 0.0011,0.02324 0.0011,0.02324 0.0449,0.309871 0.04489,0.309871 7.32e-4,0.03873 7.32e-4,0.03873 H 98.6948 98.585373 l -0.01087,-0.03873 -0.01087,-0.03873 -0.03909,-0.130167 -0.0391,-0.130164 -0.08326,-0.07977 -0.08326,-0.07977 -0.183423,-0.03005 -0.183418,-0.03005 -0.642982,-1.79e-4 -0.642979,-1.8e-4 v 0.840213 0.840214 l 0.627486,-0.01347 0.627487,-0.01347 0.116398,-0.05057 0.116399,-0.05056 0.03078,-0.08099 0.03078,-0.08098 v -0.09094 -0.09094 h 0.12395 0.123949 v 0.526781 0.526778 H 98.3394 98.21545 v -0.0945 -0.0945 l -0.04653,-0.08998 -0.04653,-0.08998 -0.11615,-0.03224 -0.116154,-0.03224 -0.61199,-1.72e-4 -0.611994,-1.72e-4 1.24e-4,0.73594 1.25e-4,0.735939 0.06268,0.102817 0.06269,0.102817 0.134661,0.05957 0.134666,0.05957 0.318845,0.0347 0.318848,0.0347 0.297856,-0.01197 0.297859,-0.01197 0.107678,-0.06288 0.107677,-0.06289 0.06822,-0.121621 0.06822,-0.121622 0.01973,-0.116801 0.01973,-0.116801 h 0.121226 0.121222 v 0.01698 0.01698 l -0.04917,0.42459 -0.04917,0.424587 h -0.005 z m -28.466601,-0.05052 -0.139441,-0.004 -0.230598,-0.02672 -0.230602,-0.02672 -0.227981,-0.06255 -0.227981,-0.06254 -0.176857,-0.08928 -0.176856,-0.08928 -0.192107,-0.144408 -0.192107,-0.144411 -0.128542,-0.161075 -0.128546,-0.161075 -0.09021,-0.178258 -0.09021,-0.178262 -0.06127,-0.255558 -0.06127,-0.255555 3.22e-4,-0.325363 3.22e-4,-0.325363 0.04576,-0.216021 0.04576,-0.216021 0.103947,-0.217796 0.103945,-0.217799 0.143006,-0.174701 0.143006,-0.1747 0.189691,-0.142593 0.189692,-0.142596 0.194102,-0.09264 0.194101,-0.09264 0.260137,-0.06213 0.260141,-0.06213 0.310047,-0.01947 0.310043,-0.01947 0.402832,0.0347 0.402831,0.0347 0.265964,0.04855 0.26596,0.04855 0.04446,0.400563 0.04446,0.400563 h -0.109478 -0.109474 l -0.05264,-0.14719 -0.05264,-0.147189 -0.09175,-0.110646 -0.09175,-0.110645 -0.187631,-0.100006 -0.187631,-0.100007 -0.209777,-0.04445 -0.209777,-0.04445 -0.201414,-8.1e-5 -0.201418,-7.7e-5 -0.19853,0.0468 -0.198531,0.0468 -0.181702,0.09684 -0.181702,0.09685 -0.199533,0.211512 -0.199529,0.211515 -0.123327,0.256379 -0.123323,0.256378 -0.05226,0.261114 -0.05226,0.261114 0.01596,0.389612 0.01596,0.389613 0.06845,0.216906 0.06845,0.21691 0.09768,0.185922 0.09768,0.185922 0.203233,0.204302 0.203234,0.204302 0.199598,0.09805 0.199599,0.09805 0.232403,0.04933 0.232402,0.04933 0.263387,-0.01658 0.26339,-0.01658 0.204621,-0.06379 0.20462,-0.06379 0.148452,-0.130672 0.148452,-0.130673 0.0727,-0.156115 0.0727,-0.156116 3.11e-4,-0.05423 3.08e-4,-0.05423 h 0.123949 0.123949 l -0.0011,0.05423 -0.0011,0.05423 -0.04299,0.321304 -0.04299,0.321301 -0.02576,0.02507 -0.02577,0.02507 -0.32981,0.06328 -0.329814,0.06328 -0.336408,0.03191 -0.33642,0.03191 z m 16.949879,-0.02694 h -0.898621 v -0.07747 -0.07747 h 0.124944 0.124941 l 0.10505,-0.04389 0.105049,-0.04389 0.05664,-0.08642 0.05664,-0.08642 v -1.597212 -1.597208 l -0.04407,-0.104518 -0.04407,-0.104519 -0.102122,-0.04267 -0.102121,-0.04267 H 86.54938 86.408943 v -0.07747 -0.07747 h 0.898621 0.898625 v 0.07747 0.07747 h -0.140437 -0.140437 l -0.102122,0.04267 -0.102121,0.04267 -0.04407,0.104519 -0.04407,0.104518 v 1.597212 1.597212 l 0.05664,0.08642 0.05664,0.08642 0.10505,0.04389 0.105045,0.04389 h 0.124945 0.124945 v 0.07747 0.07747 z m 15.059673,0 h -1.02257 v -0.0733 -0.0733 l 0.21593,-0.01544 0.21592,-0.01545 0.081,-0.0531 0.081,-0.0531 0.0439,-0.10505 0.0439,-0.105049 V 96.65332 94.960022 l -0.53452,0.01277 -0.53453,0.01277 -0.14046,0.06348 -0.14047,0.06348 -0.081,0.0962 -0.0809,0.0962 -0.0401,0.156409 -0.0401,0.156408 h -0.1225 -0.12251 l 0.0202,-0.193666 0.0202,-0.19367 0.0351,-0.273762 0.0351,-0.273759 0.0963,0.01742 0.0963,0.01742 0.77467,0.03565 0.77468,0.03565 0.86763,-0.0213 0.86764,-0.0213 0.30987,-0.02525 0.30987,-0.02525 0.0103,0.009 0.0103,0.009 0.0426,0.335688 0.0426,0.335684 0.0171,0.116201 0.0171,0.116201 h -0.12312 -0.12311 l -0.0322,-0.116201 -0.0322,-0.116201 -0.0697,-0.121208 -0.0697,-0.121208 -0.10941,-0.05648 -0.10941,-0.05648 -0.16596,-0.03148 -0.16595,-0.03148 h -0.43059 -0.43059 l 0.009,1.712033 0.009,1.712029 0.0448,0.08754 0.0448,0.08754 0.0944,0.04883 0.0944,0.04883 0.20941,0.01497 0.20941,0.01497 v 0.0733 0.0733 z"
       id="path1292" />
  </g>
</svg>
