<svg xmlns="http://www.w3.org/2000/svg" viewBox="0 0 182.99 42.35"><defs><style>.cls-1{fill:#e9be61;}.cls-2{fill:#d17b7c;}.cls-3{fill:#a97ca9;}.cls-4{fill:#779a60;}.cls-5{fill:#437ab2;}.cls-6{fill:#4a4a49;}</style></defs><title>logo</title><g id="Capa_2" data-name="Capa 2"><g id="Capa_1-2" data-name="Capa 1"><path class="cls-1" d="M.07,24.36c-.44.93,1.2,4.46,1.85,5.1a12.49,12.49,0,0,0,2.23,1.06,8.07,8.07,0,0,1,2.13,1.41L7.8,33.44c1.15,2,3.41.83,2.75-.57a4.28,4.28,0,0,1-1.43-2.39c-.48-1.76.61-3.09,1.17-4.43a10.8,10.8,0,0,1,2.34-2.76c1.1-1,3.46-2.31,3.53-3.87a.92.92,0,0,0-1.53-.67c-1.35.83-3.24,3.36-4.49,3.5-1.24-.16,1.25-2.15,1.76-2.69,1.17-1.07,3.62-3.15,2.64-4.13a1,1,0,0,0-1.46-.31c-.59.54-1.22,1.36-1.91,2.13-.45.41-2.25,2.39-2.67,2.61-.61.34-1,0-.43-.94C8.74,17.67,10,15.24,11,13.75c.55-1.12-.79-1.68-1.61-1.1a32.12,32.12,0,0,0-2.63,4c-.29.69-.88,1.86-1.34,1.86-.23-.06-.49,0-.52-.42A8.14,8.14,0,0,1,5,15.12c0-1.15.38-2-.39-2.3-.44,0-.79-.16-1.17.49a8.65,8.65,0,0,0-.55,2.83,15.76,15.76,0,0,0-.25,2.94C2.34,20.37.38,22.76.07,24.36"/><path class="cls-2" d="M10.79.29c-1-.13-3.88,2.52-4.28,3.33a12.23,12.23,0,0,0-.32,2.45,8,8,0,0,1-.69,2.46l-1,1.91c-1.58,1.73.27,3.5,1.4,2.44a4.26,4.26,0,0,1,1.84-2.09c1.52-1,3.13-.38,4.57-.26a10.82,10.82,0,0,1,3.35,1.38c1.25.75,3.26,2.58,4.77,2.16a.92.92,0,0,0,.17-1.66c-1.21-1-4.19-2-4.72-3.19-.23-1.23,2.43.52,3.1.85,1.38.79,4.11,2.47,4.74,1.24a1,1,0,0,0-.16-1.49c-.69-.4-1.67-.74-2.61-1.16-.53-.3-3-1.4-3.31-1.73-.51-.48-.29-1,.76-.7,1.38.24,4.09.7,5.82,1.17,1.23.18,1.35-1.27.55-1.87a31.89,31.89,0,0,0-4.58-1.27c-.74-.06-2-.27-2.18-.7,0-.23-.13-.47.24-.62a8.16,8.16,0,0,1,2.81-.8c1.1-.36,2-.26,2.07-1.09-.09-.43-.1-.8-.83-1a8.64,8.64,0,0,0-2.86.35,15.3,15.3,0,0,0-2.87.67c-1.32.12-4.19-1-5.81-.81"/><path class="cls-3" d="M37,3C36.8,2,33.4.13,32.5,0a12.17,12.17,0,0,0-2.43.46,8.06,8.06,0,0,1-2.55.11L25.4.24c-2.13-1-3.25,1.34-1.89,2.08a4.28,4.28,0,0,1,2.56,1.1c1.42,1.14,1.32,2.86,1.65,4.27a10.88,10.88,0,0,1-.27,3.61c-.33,1.42-1.45,3.9-.58,5.2a.92.92,0,0,0,1.63-.36c.6-1.47.65-4.62,1.58-5.47,1.09-.59.25,2.48.15,3.21-.32,1.56-1.08,4.67.29,4.89a1,1,0,0,0,1.36-.61c.17-.78.19-1.81.3-2.85.12-.6.41-3.25.63-3.68.3-.63.85-.58.9.5.2,1.39.6,4.1.68,5.89.21,1.22,1.63.9,2-.06a32.21,32.21,0,0,0-.21-4.75c-.17-.73-.38-2,0-2.29.22-.09.41-.27.67,0a8.24,8.24,0,0,1,1.63,2.43c.68.93.86,1.84,1.67,1.64.39-.22.73-.34.66-1.08a8.6,8.6,0,0,0-1.22-2.62A15.54,15.54,0,0,0,38,8.81C37.5,7.6,37.68,4.52,37,3"/><path class="cls-4" d="M30,37.78l.65-.33c2.3-.46,1.84-3,.31-2.8a3.1,3.1,0,0,1-1.06.46,5.53,5.53,0,0,1-1.66.16c-1.82-.08-2.75-1.53-3.85-2.48a10.87,10.87,0,0,1-1.9-3.08c-.56-1.34-1.12-4-2.59-4.55-.27-.25-1.47.15-1.11,1.25.37,1.54,2.19,4.12,1.94,5.35-.54,1.13-1.66-1.85-2-2.5-.66-1.45-1.87-4.42-3.11-3.79a1,1,0,0,0-.75,1.3c.32.73.92,1.58,1.43,2.48.25.55,1.58,2.88,1.65,3.34.13.69-.34,1-1,.12-1-1-2.89-3-4-4.37-.89-.86-1.84.23-1.55,1.19a32.3,32.3,0,0,0,3,3.72c.56.49,1.5,1.41,1.35,1.85-.12.2-.17.46-.56.37a8.15,8.15,0,0,1-2.74-1c-1.1-.35-1.78-1-2.32-.34-.18.4-.39.71.11,1.26a8.72,8.72,0,0,0,2.53,1.4,15.22,15.22,0,0,0,2.72,1.15c1.14.68,2.8,3.28,4.22,4.07.75.71,4.62.24,5.42-.19a12.18,12.18,0,0,0,1.7-1.8,8,8,0,0,1,2-1.59Z"/><path class="cls-5" d="M41.67,17.65l-.12-.72c.27-2.33-2.28-2.67-2.57-1.16a3.11,3.11,0,0,1,.11,1.15,5.67,5.67,0,0,1-.36,1.63c-.65,1.71-2.31,2.15-3.56,2.9a10.82,10.82,0,0,1-3.52.86c-1.45.12-4.16-.17-5.13,1.06-.32.18-.31,1.45.85,1.44,1.58.12,4.59-.81,5.69-.19.9.86-2.28,1-3,1.14-1.58.18-4.78.42-4.56,1.79-.09.44.21,1,1,1.11.79-.08,1.78-.38,2.8-.6.6-.07,3.23-.61,3.69-.54.69.08.81.62-.2,1-1.26.62-3.72,1.83-5.39,2.47-1.1.58-.35,1.82.66,1.84a32,32,0,0,0,4.46-1.67c.64-.39,1.81-1,2.18-.71.15.18.39.31.18.65a8.2,8.2,0,0,1-1.81,2.3c-.68.94-1.48,1.39-1,2.1.33.29.55.59,1.23.29a8.55,8.55,0,0,0,2.12-2,15.56,15.56,0,0,0,1.93-2.23c1-.87,4-1.65,5.17-2.76.9-.5,1.66-4.32,1.5-5.21a12.36,12.36,0,0,0-1.18-2.17A8,8,0,0,1,41.9,19Z"/><polygon class="cls-6" points="61.86 21.59 56.63 11.99 53.97 11.99 54.01 27.72 56.49 27.71 56.46 16.39 61.18 24.95 62.55 24.95 67.21 16.37 67.23 27.69 69.73 27.68 69.7 11.96 67.04 11.96 61.86 21.59"/><path class="cls-6" d="M83.33,24.78l0-8.7H80.87V23.3a3.8,3.8,0,0,1-3.43,2.51c-1.46,0-2.2-1.06-2.2-3.12v-6.6H72.81v7.09c0,3.1,1.27,4.72,3.66,4.71a5.41,5.41,0,0,0,4.76-2.58l0,1.2a1.48,1.48,0,0,0,1.55,1.26,7.21,7.21,0,0,0,1.2-.11V25.57c-.53,0-.71-.24-.71-.8"/><path class="cls-6" d="M93.39,15.85a5.35,5.35,0,0,0-4.71,2.53V16.06H86.45l0,11.58h2.44V20.76A4,4,0,0,1,92.37,18c1.33,0,2.06.95,2.07,3.12v6.49h2.44V20.56c0-2.55-.7-4.72-3.49-4.71"/><path class="cls-6" d="M110.66,24.72l0-13.29H108.2v6.78a4.72,4.72,0,0,0-4.08-2.38c-3,0-5.2,2.71-5.19,6s2.29,6,5.5,6a4.84,4.84,0,0,0,4.14-2.34l0,1a1.51,1.51,0,0,0,1.55,1.26,6.77,6.77,0,0,0,1.2-.11V25.52c-.51,0-.71-.24-.71-.8m-2.44-1.28a3.49,3.49,0,0,1-3.16,2.31,3.72,3.72,0,0,1-3.62-3.87c0-2,1.37-4,3.43-4a3.88,3.88,0,0,1,3.35,2.5Z"/><path class="cls-6" d="M119,15.8a5.86,5.86,0,0,0-5.94,6,6,6,0,1,0,11.92,0,5.84,5.84,0,0,0-6-6m0,9.92a3.63,3.63,0,0,1-3.46-3.89,3.48,3.48,0,1,1,6.91,0,3.67,3.67,0,0,1-3.45,3.93"/><path class="cls-6" d="M138.8,18.62c-2.61-.66-3.9-1-3.9-2.49s1-2.2,3-2.2a6.44,6.44,0,0,1,4.34,1.59l1.13-2A9,9,0,0,0,138,11.71c-3.19,0-5.67,1.7-5.66,4.8,0,2.46,1.58,3.39,4.68,4.2,2.72.7,4.3,1.14,4.3,2.72,0,1.33-1.1,2-3,2a8.49,8.49,0,0,1-5.45-2l-1.15,2.13a10.77,10.77,0,0,0,6.51,2.11c3.12,0,5.76-1.3,5.75-4.57,0-2.9-2.09-3.72-5.19-4.51"/><path class="cls-6" d="M155.67,24.63V20.44c0-3-1.89-4.71-5.06-4.71A8.18,8.18,0,0,0,146,17.25l.76,1.55a6.52,6.52,0,0,1,3.67-1.34,2.54,2.54,0,0,1,2.84,2.72V21a8.74,8.74,0,0,0-3.06-.52c-2.88,0-4.89,1.49-4.89,3.66a3.71,3.71,0,0,0,3.93,3.63,5.44,5.44,0,0,0,4.36-2.11l.07.73a1.45,1.45,0,0,0,1.53,1.26,6.41,6.41,0,0,0,1.2-.11V25.42c-.51,0-.69-.24-.69-.8m-2.44-.75a1.22,1.22,0,0,1-.46.84,3.73,3.73,0,0,1-2.9,1.22,2.12,2.12,0,0,1-2.28-2c0-1.22,1.24-2.06,3-2.07a7.86,7.86,0,0,1,2.68.5Z"/><path class="cls-6" d="M165.55,15.7a5.35,5.35,0,0,0-4.71,2.53V15.91h-2.22l0,11.58h2.44V20.61a4,4,0,0,1,3.47-2.73c1.33,0,2.06.95,2.07,3.12v6.49h2.44V20.41c0-2.55-.7-4.72-3.49-4.71"/><path class="cls-6" d="M177,15.68a5.86,5.86,0,0,0-5.95,6,6,6,0,1,0,11.92,0,5.85,5.85,0,0,0-6-6m0,9.92a3.63,3.63,0,0,1-3.46-3.89,3.48,3.48,0,1,1,6.91,0A3.67,3.67,0,0,1,177,25.6"/></g></g></svg>