<?xml version="1.0" encoding="UTF-8"?> <svg xmlns="http://www.w3.org/2000/svg" width="840" height="360" viewBox="0 0 840 360" fill="none"><path d="M21.4698 182.801C25.3102 220.407 58.7551 302.079 156.834 302.079C254.914 302.079 287.417 224.25 292.217 184.722H243.468" stroke="#F03861" stroke-width="11.5875" stroke-miterlimit="10" stroke-linecap="round" stroke-linejoin="round"></path><path d="M87.7047 250.99C68.5158 230.975 58.91 211.758 55.3031 187.462" stroke="#F03861" stroke-width="11.5875" stroke-miterlimit="10" stroke-linecap="round" stroke-linejoin="round"></path><path d="M254.633 216.037C246.132 231.937 239.411 239.624 227.525 250.327" stroke="#F03861" stroke-width="11.5875" stroke-miterlimit="10" stroke-linecap="round" stroke-linejoin="round"></path><path d="M289.787 148.344C289.787 115.229 250.423 29.1985 153.946 29.1985C61.2842 29.1985 27.6808 101.262 20 146.164H126.814" stroke="#F03861" stroke-width="11.5875" stroke-miterlimit="10" stroke-linecap="round" stroke-linejoin="round"></path><path d="M204.129 188.45C214.468 188.45 222.85 179.97 222.85 169.51C222.85 159.05 214.468 150.571 204.129 150.571C193.791 150.571 185.409 159.05 185.409 169.51C185.409 179.97 193.791 188.45 204.129 188.45Z" stroke="#F03861" stroke-width="9.9303" stroke-miterlimit="10" stroke-linejoin="round"></path><path d="M58.8494 68.8913C69.6525 76.091 72.6533 90.8084 65.5084 101.738C58.3636 112.668 43.8453 115.704 33.0422 108.475" stroke="#F03861" stroke-width="11.5875" stroke-miterlimit="10" stroke-linejoin="round"></path><path d="M284.15 130.017C273.861 134.841 261.598 130.293 256.795 119.875C251.991 109.458 256.452 97.0734 266.741 92.2495" stroke="#F03861" stroke-width="11.5875" stroke-miterlimit="10" stroke-linejoin="round"></path><path d="M176.653 32.2779C176.653 44.5066 166.86 54.4137 154.773 54.4137C142.686 54.4137 132.894 44.5066 132.894 32.2779" stroke="#F03861" stroke-width="11.5875" stroke-miterlimit="10" stroke-linejoin="round"></path><path d="M132.894 301.563C132.894 289.334 142.686 279.427 154.773 279.427C166.86 279.427 176.653 289.334 176.653 301.563" stroke="#F03861" stroke-width="11.5875" stroke-miterlimit="10" stroke-linejoin="round"></path><path d="M203.658 148.677C203.658 116.319 185.645 105.499 155.898 105.499L155.623 184.704L91.3505 184.537C91.3505 221.917 119.373 248.367 156.32 248.367L155.88 282.041" stroke="#F03861" stroke-width="11.5875" stroke-miterlimit="10" stroke-linejoin="round"></path><path d="M133.914 214.551H180.563V265.081" stroke="#F03861" stroke-width="11.5875" stroke-miterlimit="10" stroke-linecap="round" stroke-linejoin="round"></path><path d="M203.453 191.784V293.219" stroke="#F03861" stroke-width="11.5875" stroke-miterlimit="10" stroke-linejoin="round"></path><path d="M128.771 66.6387V116.106" stroke="#F03861" stroke-width="11.5875" stroke-miterlimit="10" stroke-linecap="round" stroke-linejoin="round"></path><path d="M65.8632 103.343L104.667 121.291V39.1232" stroke="#F03861" stroke-width="11.5875" stroke-miterlimit="10" stroke-linejoin="round"></path><path d="M155.898 56.4729L155.642 81.9642C194.286 81.9642 222.86 102.696 224.621 135.12L256.372 120.997" stroke="#F03861" stroke-width="11.5875" stroke-miterlimit="10" stroke-linejoin="round"></path><path d="M395.975 280.202V284.073H378.783V338.763H374.751V284.073H357.732V280.202H395.975Z" fill="#F03861"></path><path d="M421.959 332.505L423.935 335.31C422.34 336.573 420.55 337.581 418.551 338.312C416.552 339.053 414.53 339.424 412.508 339.424C409.216 339.424 406.269 338.682 403.67 337.199C401.059 335.704 399.037 333.687 397.581 331.126C396.125 328.565 395.409 325.691 395.409 322.504C395.409 319.432 396.171 316.581 397.708 313.962C399.245 311.355 401.324 309.28 403.959 307.739C406.593 306.197 409.47 305.432 412.589 305.432C416.321 305.432 419.498 306.533 422.121 308.724C424.755 310.926 426.673 313.893 427.875 317.636L400.412 328.275C401.451 330.581 403.057 332.459 405.218 333.884C407.378 335.31 409.839 336.028 412.578 336.028C416.032 336.04 419.163 334.858 421.959 332.505ZM405.68 310.566C403.647 311.772 402.064 313.406 400.908 315.469C399.753 317.532 399.187 319.826 399.187 322.353C399.187 323.512 399.291 324.52 399.51 325.401L423.195 316.083C422.156 313.881 420.7 312.108 418.84 310.763C416.968 309.419 414.807 308.747 412.347 308.747C409.92 308.747 407.702 309.35 405.68 310.566Z" fill="#F03861"></path><path d="M447.932 308.005C450.566 306.464 453.2 305.664 455.823 305.606L455.661 309.396C453.246 309.396 451.028 309.929 448.995 311.007C446.961 312.085 445.355 313.568 444.188 315.469C443.01 317.358 442.421 319.444 442.421 321.692V338.775H438.562V306.522H441.924L442.259 314.194C443.414 311.598 445.309 309.547 447.932 308.005Z" fill="#F03861"></path><path d="M476.053 308.005C478.687 306.464 481.322 305.664 483.944 305.606L483.783 309.396C481.368 309.396 479.15 309.929 477.116 311.007C475.083 312.085 473.477 313.568 472.31 315.469C471.131 317.358 470.542 319.444 470.542 321.692V338.775H466.683V306.522H470.045L470.38 314.194C471.536 311.598 473.431 309.547 476.053 308.005Z" fill="#F03861"></path><path d="M494.851 292.695C495.429 292.174 496.099 291.907 496.861 291.907C497.624 291.907 498.283 292.174 498.837 292.695C499.38 293.217 499.657 293.866 499.657 294.631C499.657 295.454 499.38 296.126 498.837 296.647C498.294 297.169 497.624 297.436 496.861 297.436C496.087 297.436 495.417 297.157 494.851 296.613C494.273 296.068 493.985 295.407 493.985 294.631C493.985 293.866 494.273 293.229 494.851 292.695ZM498.664 306.51V338.763H494.805V306.51H498.664Z" fill="#F03861"></path><path d="M520.465 292.336V306.939H530.413V310.068H520.465V338.775H516.514V310.068H509.686V306.939H516.514V292.336H520.465Z" fill="#F03861"></path><path d="M539.171 313.904C540.672 311.297 542.741 309.234 545.375 307.727C548.009 306.209 550.921 305.456 554.098 305.456C557.275 305.456 560.187 306.209 562.809 307.727C565.443 309.234 567.5 311.297 568.979 313.904C570.458 316.512 571.197 319.363 571.197 322.446C571.197 325.575 570.446 328.437 568.933 331.022C567.419 333.606 565.363 335.658 562.763 337.164C560.163 338.682 557.24 339.436 554.005 339.436C550.77 339.436 547.847 338.706 545.248 337.257C542.648 335.808 540.603 333.78 539.113 331.196C537.634 328.611 536.894 325.691 536.894 322.446C536.918 319.351 537.657 316.512 539.171 313.904ZM542.544 329.364C543.723 331.462 545.329 333.108 547.35 334.313C549.384 335.53 551.602 336.133 554.017 336.133C556.432 336.133 558.65 335.53 560.672 334.313C562.705 333.108 564.311 331.462 565.478 329.364C566.657 327.278 567.246 324.995 567.246 322.515C567.246 320.047 566.657 317.752 565.478 315.631C564.3 313.522 562.694 311.853 560.672 310.648C558.638 309.442 556.42 308.828 554.017 308.828C551.544 308.828 549.303 309.477 547.27 310.763C545.236 312.062 543.653 313.754 542.498 315.84C541.343 317.926 540.776 320.151 540.776 322.515C540.776 324.995 541.366 327.278 542.544 329.364Z" fill="#F03861"></path><path d="M592.086 308.005C594.721 306.464 597.355 305.664 599.978 305.606L599.816 309.396C597.401 309.396 595.183 309.929 593.149 311.007C591.116 312.085 589.51 313.568 588.343 315.469C587.164 317.358 586.575 319.444 586.575 321.692V338.775H582.716V306.522H586.078L586.413 314.194C587.569 311.598 589.452 309.547 592.086 308.005Z" fill="#F03861"></path><path d="M638.543 306.51L617.816 354.27H613.784L620.693 338.439L605.812 306.51H610.168L622.669 333.977L634.754 306.51H638.543Z" fill="#F03861"></path><path d="M709.586 327.962L717.893 338.775H713.214L707.703 331.601C706.005 333.965 703.659 335.866 700.667 337.292C697.686 338.717 694.347 339.436 690.673 339.436C687.057 339.436 683.81 338.705 680.933 337.257C678.056 335.808 675.792 333.803 674.151 331.277C672.511 328.75 671.69 325.945 671.69 322.863C671.69 320.012 672.441 317.381 673.955 314.993C675.457 312.606 677.467 310.624 679.963 309.048C682.447 307.483 685.185 306.452 688.143 305.954L682.886 299.104C681.892 297.517 681.118 295.987 680.541 294.527C679.963 293.078 679.674 291.467 679.674 289.705C679.674 287.283 680.252 285.081 681.396 283.111C682.551 281.129 684.145 279.576 686.202 278.44C688.258 277.316 690.604 276.748 693.238 276.748C695.653 276.748 697.917 277.189 700.066 278.07C702.204 278.95 704.121 280.075 705.82 281.454L703.844 284.177C700.228 281.535 696.889 280.225 693.816 280.225C690.916 280.225 688.513 281.118 686.618 282.902C684.723 284.687 683.776 286.959 683.776 289.705C683.776 291.351 684.076 292.869 684.677 294.237C685.278 295.616 685.832 296.659 686.317 297.366L707.125 324.671L714.196 305.699H718.148L709.586 327.962ZM699.639 333.78C702.204 332.436 704.156 330.709 705.473 328.623L690.419 308.99C688.062 309.106 685.774 309.767 683.556 310.972C681.338 312.177 679.512 313.823 678.091 315.874C676.67 317.926 675.954 320.232 675.954 322.758C675.954 325.285 676.635 327.545 678.01 329.527C679.374 331.508 681.211 333.05 683.521 334.151C685.832 335.252 688.351 335.796 691.089 335.796C694.208 335.808 697.062 335.124 699.639 333.78Z" fill="#F03861"></path><path d="M763.126 280.202V338.763H759.094V280.202H763.126Z" fill="#F03861"></path><path d="M815.256 280.202V284.073H798.076V338.763H794.044V284.073H777.014V280.202H815.256Z" fill="#F03861"></path><path d="M391.08 144.8C391.08 145.216 391.578 145.43 391.875 145.133C396.368 140.436 401.121 135.418 406.159 130.067C411.494 124.406 416.722 118.758 421.855 113.098C426.976 107.438 431.848 101.98 436.471 96.7355C444.153 87.9955 455.19 83.0012 466.807 83.0012H491.287C491.69 83.0012 491.903 83.4649 491.642 83.7741C481.613 95.0589 471.039 106.736 459.931 118.806C448.693 131.03 437.396 142.945 426.051 154.563C425.862 154.753 425.873 155.05 426.075 155.228C432.097 160.306 438.427 166.43 445.042 173.588C451.799 180.89 458.343 188.667 464.685 196.895C471.027 205.124 476.954 213.365 482.491 221.581C487.837 229.549 492.33 236.933 495.945 243.747C496.111 244.056 495.874 244.424 495.531 244.424H453.506C453.34 244.424 453.198 244.341 453.115 244.199C449.452 237.896 445.232 231.273 440.478 224.364C435.653 217.372 430.485 210.582 424.937 203.994C419.401 197.407 413.746 191.187 408.009 185.313C402.52 179.712 397.126 174.908 391.827 170.901C391.519 170.675 391.08 170.901 391.08 171.282V243.949C391.08 244.21 390.879 244.413 390.618 244.413H354.32C354.059 244.413 353.857 244.21 353.857 243.949V48.3858C353.857 26.8627 369.387 8.51459 390.547 5.00668C390.832 4.95912 391.08 5.17316 391.08 5.47044V144.8Z" fill="#F03861"></path><path d="M574.766 78.9819C587.071 78.9819 597.432 80.5278 605.849 83.6195C614.253 86.6993 620.975 91.0277 626.001 96.5809C631.027 102.134 634.619 108.876 636.777 116.796C638.934 124.716 640.001 133.408 640.001 142.873V240.714C634.264 241.951 625.586 243.449 614.004 245.185C602.411 246.933 589.335 247.813 574.766 247.813C565.128 247.813 556.309 246.886 548.307 245.031C540.305 243.176 533.489 240.203 527.846 236.077C522.203 231.962 517.793 226.611 514.616 220.024C511.439 213.436 509.851 205.314 509.851 195.635C509.851 186.371 511.641 178.559 515.233 172.173C518.813 165.8 523.697 160.603 529.849 156.584C536.002 152.565 543.126 149.687 551.235 147.939C559.331 146.191 567.796 145.311 576.615 145.311C580.717 145.311 585.02 145.573 589.537 146.084C594.041 146.607 598.866 147.475 603.999 148.712V142.54C603.999 138.224 603.489 134.11 602.458 130.197C601.427 126.297 599.637 122.849 597.076 119.852C594.516 116.879 591.125 114.56 586.929 112.908C582.72 111.267 577.433 110.446 571.079 110.446C562.473 110.446 554.566 111.064 547.394 112.301C540.21 113.538 534.366 114.977 529.861 116.618L528.237 106.011C526.471 94.4762 534.141 83.5719 545.58 81.4791C545.675 81.4672 545.758 81.4434 545.853 81.4315C554.862 79.8143 564.5 78.9819 574.766 78.9819ZM577.836 218.18C589.323 218.18 598.036 217.562 603.987 216.325V174.968C601.937 174.349 598.961 173.731 595.061 173.113C591.161 172.494 586.858 172.185 582.14 172.185C578.038 172.185 573.877 172.494 569.68 173.113C565.472 173.731 561.679 174.861 558.3 176.502C554.922 178.155 552.195 180.462 550.144 183.446C548.093 186.431 547.062 190.189 547.062 194.707C547.062 203.554 549.836 209.678 555.372 213.067C560.92 216.492 568.4 218.18 577.836 218.18Z" fill="#F03861"></path><path d="M685.534 88.2452C692.718 86.188 702.036 84.2379 713.535 82.3828C725.022 80.5278 737.742 79.6003 751.694 79.6003C764.817 79.6003 775.795 81.4077 784.614 84.9989C793.434 88.6019 800.464 93.6438 805.692 100.125C810.919 106.605 814.618 114.43 816.764 123.586C818.921 132.742 820 142.778 820 153.683V244.424H814.345C796.907 244.424 782.777 230.25 782.777 212.758V159.545C782.777 150.9 782.208 143.551 781.082 137.475C779.955 131.41 778.106 126.464 775.546 122.658C772.985 118.853 769.5 116.083 765.09 114.323C760.68 112.575 755.286 111.695 748.932 111.695C744.214 111.695 739.295 112.004 734.162 112.622C729.029 113.241 725.235 113.752 722.781 114.168V244.413C702.226 244.413 685.558 227.693 685.558 207.074V88.2452H685.534Z" fill="#F03861"></path></svg> 