<?xml version="1.0" encoding="UTF-8"?>
<svg id="Capa_1" data-name="Capa 1" xmlns="http://www.w3.org/2000/svg" viewBox="0 0 700.91 395.35">
  <defs>
    <style>
      .cls-1 {
        fill: #fff;
      }

      .cls-2 {
        fill: #1a428a;
      }

      .cls-3 {
        fill: #3a76ab;
      }

      .cls-4, .cls-5 {
        fill: #6aaae4;
      }

      .cls-5 {
        font-family: Poppins-Regular, Poppins;
        font-size: 6px;
      }
    </style>
  </defs>
  <rect class="cls-2" x="-5.02" y="-5.32" width="710.95" height="406"/>
  <text class="cls-5" transform="translate(9.16 384.51)"><tspan x="0" y="0">© 2022 INSTITUTO GULICH | Todos los derechos reservados.</tspan></text>
  <g>
    <g>
      <path class="cls-1" d="m353.5,193.74h.18v-.31h.15v-.15h-.15v-.16h-.18v.16h-.15v.15h.15v.31Zm-.54.8h.18v-.75h-.18v.75Zm1.5-.39s-.04-.04-.1-.05l-.13-.03s-.04-.02-.05-.02h0s-.03-.03-.03-.05c0-.02.01-.04.03-.05.02-.01.05-.02.08-.02.06,0,.12.03.16.07h.01s.08-.13.08-.13h-.01c-.05-.05-.13-.1-.23-.1s-.17.03-.22.07c-.05.04-.08.1-.08.17s.02.13.08.17c.03.02.06.04.14.06l.08.02s.05,0,.06.02h.01s.02.03.02.05c0,.03-.02.05-.05.07-.02,0-.05,0-.08,0-.07,0-.14-.04-.17-.07v-.02s-.09.14-.09.14h0c.05.05.14.1.25.1.1,0,.17-.02.22-.07.05-.05.08-.1.08-.18,0-.07-.03-.12-.08-.16h0Zm-.75-.09h-.25v-.27h-.18v.75h.18v-.32h.25v.32h.18v-.75h-.18v.27Zm-1.34,3.36h-.44c-.06-.06-.31-.31-.31-.31,0,0-.25.25-.31.31h-.44v.44c-.06.06-.31.31-.31.31,0,0,.25.25.31.31v.44h.44c.06.06.31.31.31.31,0,0,.25-.25.31-.31h.44v-.44c.06-.06.31-.31.31-.31,0,0-.25-.25-.31-.31v-.44Zm-.31.93v.26h-.26s-.11.11-.18.18c-.07-.07-.18-.18-.18-.18h-.26v-.26s-.11-.11-.18-.18c.06-.07.18-.18.18-.18v-.25h.26s.11-.12.18-.18c.07.06.18.18.18.18h.26v.25s.11.11.18.18c-.07.07-.18.18-.18.18Zm.53,6.74l.02.02c.09.08.19.14.28.19.36-.19.6-.56.6-1h-.31c0,.38-.26.69-.6.79Zm.45-1.09h-.31c0,.33-.2.62-.48.75.07.08.15.17.22.23.34-.2.57-.56.57-.98Zm7.37-5.2h-.99c-.14-.24-.33-.42-.58-.53.35-.1.59-.38.59-.71,0-.02,0-.03,0-.05-.02-.37-.26-.77-.82-.77-.03-.05-.07-.17-.08-.38,0-.02,0-.05,0-.07,0-.26.09-.56.18-.9.12-.43.26-.92.26-1.44,0-.06,0-.13,0-.19-.04-.68-.3-1.25-.75-1.63-.45-.39-1.07-.58-1.75-.54-.12,0-.24.02-.35.06.11-.08.19-.16.24-.26l1.2-2.04-.19-.4-.44.02s-.08.13-.11.18c-.05-.04-.19-.11-.19-.11l-.38.21.02.42s.12.08.17.11c-.04.07-.05.09-.09.16-.15-.1-.39-.26-.68-.38.03-.13.07-.26.1-.39.07.02.22.06.22.06l.35-.31-.15-.43s-.15-.04-.22-.06c.02-.08.06-.22.06-.22l-.3-.35-.44.15s-.04.15-.06.22c-.07-.02-.22-.06-.22-.06l-.35.3.15.44s.15.04.22.06c-.04.13-.06.23-.1.35-.18-.04-.5-.1-.87-.13v-.46h.27l.29-.44-.29-.44h-.27v-.26l-.44-.31-.44.31v.26h-.27l-.3.44.3.44h.27v.46c-.38.03-.7.09-.88.13-.03-.12-.06-.23-.1-.35.07-.02.22-.06.22-.06l.15-.44-.35-.3s-.15.04-.22.06c-.02-.07-.06-.22-.06-.22l-.44-.15-.3.35s.04.15.06.22c-.07.02-.22.06-.22.06l-.15.43.35.31s.15-.04.22-.06c.03.14.07.27.1.39-.29.12-.54.28-.68.38-.04-.07-.05-.09-.09-.16.05-.03.17-.11.17-.11l.02-.42-.38-.21s-.13.08-.19.11c-.04-.06-.11-.18-.11-.18l-.44-.02-.19.4,1.2,2.04c.05.09.13.18.24.26-.11-.04-.23-.05-.35-.06-.68-.04-1.3.15-1.75.54-.45.38-.7.95-.75,1.63,0,.06,0,.13,0,.19,0,.53.13,1.01.26,1.44.09.34.18.64.18.9,0,.02,0,.05,0,.07-.02.21-.06.32-.09.38-.57,0-.8.41-.82.77v.05c0,.33.24.61.59.71-.25.11-.44.29-.58.53h-.99l-.93.93.82.82c-.03.59-.14,1-.32,1.39-.22.44-.24,1-.24,1.16,0,.4.11,1.42,1.13,2.23.47.38.87.46,1.25.54.27.06.52.11.81.26.65.32.87.61,1.06.85l.03.04c1.13,1.45,2.61,1.61,3.2,1.61s2.07-.16,3.2-1.61l.03-.04c.18-.24.4-.53,1.05-.85.29-.15.54-.2.81-.26.39-.08.78-.17,1.26-.54,1.01-.82,1.13-1.84,1.13-2.23,0-.16-.02-.72-.23-1.16-.2-.39-.29-.81-.33-1.39l.83-.82-.93-.93Zm-1.26.16s.02.04.04.07c.01.03.02.06.04.08.08.21.11.45.11.68,0,.4-.09.88-.23,1.36-.25.89-.64,1.8-.86,2.26-.08-.2-.22-.53-.22-.53,0,0-.37.1-.6.16.23-.36.63-.98,1.04-1.67.28-.45.47-1.08.47-1.61,0-.22-.03-.42-.11-.58-.01-.05-.03-.08-.06-.12h0c-.12-.2-.32-.35-.6-.35-.37,0-.62.31-.62.6h.31s0-.02,0-.03c.02-.12.12-.26.31-.26.14,0,.24.06.3.15.01.02.03.04.04.06,0,0,.01.03.03.05.02.07.03.13.03.19,0,.35-.23.57-.6.57-.42,0-.72-.31-.72-.74,0-.34.28-.86.9-.86.53,0,.82.22.99.51Zm-8.87.41c.01-1.44.27-2.81.73-3.93v1.56s.48-.48.61-.6c.13.13.6.61.6.61v-1.38l2.94,1.94h-2.37s.48.48.6.61c-.12.12-.6.6-.6.6h4.1c.01.2.02.41.02.6h-6.63Zm6.63.31c-.03,1.67-.38,3.24-.99,4.42-.63,1.2-1.46,1.86-2.32,1.86s-1.69-.66-2.32-1.86c-.62-1.18-.97-2.75-1-4.42h6.63Zm-7.5-3.9c-.09-.37-.17-.76-.17-1.26,0-.09,0-.19.01-.3.05-.84.54-1.19.83-1.32.09-.04.18-.08.27-.1-.1.13-.16.29-.18.45v.07c0,.49.35.85.87.89.09,0,.18,0,.26,0-.11.16-.21.33-.31.51-.56,1.07-.91,2.42-1.01,3.89-.2-.26-.51-.45-.91-.47.22-.17.42-.51.46-1.16,0-.07,0-.12,0-.18,0-.36-.07-.68-.15-1.01Zm5.62-2.57v.02c-.21-.17-.43-.3-.66-.39,0-.15,0-.45.14-.7.4-.05.78-.13,1.1-.25-.07.06-.14.13-.21.19-.26.3-.4.71-.37,1.12Zm-1.43-1.32c-1.46,0-2.4-.42-2.47-.65h0s0-.02,0-.02c0-.36.98-.9,2.48-.9s2.48.54,2.48.9c0,.24-.97.68-2.48.68Zm.56.29c-.08.21-.1.41-.1.57-.15-.03-.3-.05-.46-.05s-.31.02-.46.05c0-.15-.02-.36-.09-.57.18.02.37.02.55.02s.37,0,.56-.02Zm-1.47-.04c.14.25.15.56.14.7-.23.09-.45.22-.66.39v-.02c.03-.41-.1-.82-.37-1.12-.06-.07-.13-.14-.2-.19.31.11.69.19,1.1.24Zm.91.87c.86,0,1.69.66,2.32,1.86.33.65.59,1.41.76,2.24l-4.79-3.17c.51-.61,1.1-.93,1.71-.93Zm3.16,4.52c.04.25.08.52.1.78l-5.48-3.62c.1-.18.21-.35.32-.5l5.06,3.34Zm-3.22.34h2.09l.89.59h-2.98c.09-.09.29-.29.29-.29,0,0-.2-.2-.29-.3Zm-1.63-2.45v.83c-.09-.09-.29-.29-.29-.29,0,0-.21.2-.3.29v-1.22l.59.39Zm4.28-.7c-.1-.18-.2-.36-.31-.51.08,0,.17.02.26,0,.52-.03.87-.39.87-.89,0-.02,0-.05,0-.07,0-.16-.07-.32-.17-.45.09.02.18.05.27.1.29.14.77.49.83,1.32,0,.11.01.21.01.3,0,.5-.09.89-.17,1.26-.07.33-.14.64-.14,1.01,0,.06,0,.12,0,.18.04.66.24,1,.46,1.16-.4.02-.71.21-.91.47-.1-1.46-.45-2.82-1.01-3.89Zm.28-2.82c.6-.04,1.15.12,1.53.46.38.33.6.83.64,1.43.03.54-.11,1.06-.24,1.52-.11.39-.21.76-.19,1.08.03.46.17.61.21.64l.05.03h.06c.49-.03.57.32.58.48.01.23-.2.43-.49.46-.5.03-.65-.55-.68-1.04-.03-.4.04-.73.13-1.1.1-.44.21-.94.16-1.64-.05-.73-.41-1.31-1.01-1.59-.46-.22-.99-.21-1.31.01h0c-.18.12-.29.32-.29.51v.02s.31,0,.31,0c0-.12.09-.3.3-.32.11,0,.21.03.29.1.11.09.16.24.16.33.03.36-.2.6-.57.63-.21.01-.4-.05-.54-.17-.15-.13-.23-.31-.24-.54-.02-.33.08-.66.3-.9.2-.24.49-.37.83-.4Zm-5.56-1.02c-.31-.52-.85-1.45-.91-1.55.01-.03.02-.03.03-.06.03,0,.04,0,.07,0,.05.07.18.3.18.3,0,0,.23-.14.3-.18.02.01.03.01.05.03,0,.03,0,.04,0,.07-.07.04-.29.19-.29.19l.43.72.14-.12s.39-.31.87-.5l.13-.05-.26-.96s-.28.07-.36.1c-.03-.02-.03-.03-.07-.06.02-.04.02-.05.03-.08.08-.03.36-.1.36-.1,0,0-.08-.28-.1-.37.02-.02.03-.03.06-.06.04.02.05.02.08.03.03.08.1.36.1.36,0,0,.28-.08.37-.1.02.03.03.03.06.06-.01.04-.01.04-.02.08-.09.02-.36.1-.36.1l.26.95.15-.04s.51-.14,1.11-.16h.15v-1.07h-.41s-.05-.07-.09-.13c.04-.05.05-.08.09-.13h.41v-.42s.07-.05.13-.09c.05.04.08.06.13.09v.42h.41s.05.07.09.13c-.04.05-.05.08-.09.13h-.41v1.06h.15c.6.04,1.11.18,1.11.18l.15.04.26-.95s-.28-.08-.36-.1c-.01-.04-.01-.04-.03-.08.03-.02.04-.03.07-.06.08.02.36.1.36.1,0,0,.08-.28.1-.36.03-.01.04-.02.08-.03.03.04.03.04.06.06-.02.09-.1.37-.1.37,0,0,.28.07.36.1.01.03.02.04.03.08-.03.03-.03.03-.06.06-.08-.02-.36-.1-.36-.1l-.26.96.13.05c.49.18.87.5.87.5l.14.12.09-.15.34-.56s-.22-.14-.29-.19c0-.03,0-.04,0-.07.03-.02.03-.02.05-.03.07.04.3.18.3.18,0,0,.14-.24.19-.3.03,0,.03,0,.07,0t.03.06c-.05.1-.6,1.03-.91,1.55-.34-.5-1.43-.88-2.68-.88s-2.34.38-2.68.88Zm-2.84,6.66c0-.16.08-.51.58-.48h.05s.05-.03.05-.03c.04-.03.19-.18.22-.64.02-.32-.08-.69-.19-1.08-.13-.46-.27-.98-.23-1.52.03-.6.26-1.09.64-1.43.38-.34.93-.5,1.52-.46.34.02.63.16.84.4.21.24.32.57.3.9-.02.22-.1.41-.25.54-.15.12-.33.18-.54.17-.37-.03-.6-.27-.57-.63,0-.09.05-.24.16-.33.08-.07.17-.1.28-.1.21.02.3.19.3.32l.31.02s0-.02,0-.02c0-.2-.11-.4-.29-.52h0c-.32-.23-.85-.24-1.31-.02-.59.28-.96.86-1.01,1.59-.05.7.07,1.2.17,1.64.09.38.16.7.13,1.1-.03.49-.18,1.07-.68,1.04-.29-.02-.5-.22-.49-.46Zm-.11,1.57s.02-.06.03-.08c.01-.02.03-.05.04-.07.16-.3.46-.51.99-.51.62,0,.9.52.9.86,0,.43-.31.74-.72.74-.37,0-.6-.22-.6-.57,0-.06.01-.12.04-.19.01-.02.02-.03.02-.03.02-.04.03-.06.05-.08.06-.08.16-.15.3-.15.19,0,.29.14.31.26v.02h.31c0-.28-.25-.59-.62-.59-.28,0-.48.15-.6.34h0s-.04.08-.06.12c-.07.17-.11.36-.11.58,0,.53.2,1.16.47,1.61.43.69.82,1.31,1.05,1.67-.23-.06-.6-.16-.6-.16,0,0-.14.33-.22.53-.21-.46-.61-1.37-.86-2.26-.14-.48-.23-.96-.23-1.36,0-.23.02-.46.11-.68Zm-.18,3.21c.05-.14.11-.28.15-.43v-.03s.02-.04.02-.06c.36,1.07.82,2.01.85,2.07l.15.31s.31-.74.38-.91c.19.05,1.1.29,1.1.29l-.21-.34s-.59-.92-1.25-1.99c-.2-.33-.34-.71-.4-1.07.16.14.37.21.62.21.31,0,.58-.13.77-.34.07,1.59.42,3.08,1.02,4.22.68,1.3,1.6,2.02,2.59,2.02s1.91-.72,2.59-2.02c.6-1.15.96-2.63,1.02-4.22.19.21.46.34.77.34.25,0,.46-.08.62-.21-.06.36-.19.74-.39,1.07-.66,1.07-1.25,1.99-1.25,1.99l-.22.34s.92-.24,1.1-.29c.08.17.38.91.38.91l.15-.31c.03-.06.5-1,.86-2.07,0,.02,0,.04.02.06v.03c.04.15.1.29.16.43.1.25.2.5.2.79,0,.19-.06,1.13-1.27,1.37-.65.13-1.14.3-1.85.81-.43.32-.67.63-.84.85-.06.08-.11.15-.16.2-.73.81-1.69.85-1.88.85s-1.15-.04-1.88-.85c-.05-.05-.1-.12-.16-.2-.18-.22-.41-.53-.84-.85-.71-.52-1.2-.69-1.86-.81-1.21-.24-1.27-1.18-1.27-1.37,0-.29.1-.55.2-.79Zm-1.49-2.59l.4-.4v.79l-.4-.39Zm14.26,2.35c.15.3.2.73.2,1.03,0,.36-.1,1.26-1.01,1.99-.41.33-.76.4-1.12.48-.27.06-.56.12-.88.28-.71.36-.97.7-1.17.94l-.03.04c-1.04,1.35-2.41,1.49-2.95,1.49s-1.91-.14-2.95-1.49l-.03-.04c-.19-.25-.46-.59-1.16-.94-.33-.16-.62-.22-.89-.28-.37-.07-.71-.15-1.12-.48-.91-.73-1.01-1.63-1.01-1.99,0-.3.05-.72.2-1.03.27-.55.37-1.13.37-2.06v-.92h.64c-.06.2-.1.43-.1.68,0,.41.09.9.22,1.39-.03.25-.08.43-.13.61v.03c-.04.13-.09.26-.14.39-.11.26-.22.56-.22.91,0,.64.39,1.45,1.52,1.67.63.12,1.06.27,1.73.76.4.29.61.57.79.79.06.08.11.15.17.21.82.91,1.91.95,2.11.95s1.29-.04,2.11-.95c.06-.06.11-.13.17-.21.17-.22.39-.5.78-.79.67-.49,1.1-.64,1.73-.76,1.13-.22,1.52-1.03,1.52-1.67,0-.35-.12-.65-.22-.91-.05-.14-.11-.26-.14-.39v-.03c-.05-.17-.1-.36-.14-.61.13-.49.22-.98.22-1.39,0-.25-.03-.48-.09-.68h.64v.92c0,.93.1,1.51.37,2.06Zm-.06-1.96s0-.06,0-.1v-.7l.4.4-.4.39Zm-22.19,13.13h61.06v-30.53h-61.06v30.53Zm30.52-30.11h30.08v29.6h-30.08v-29.6Zm-30.1,0h29.69v29.69h-29.69v-29.69Zm12.84,19.69h0v.03c0,.34.27.61.61.61h.1v.24c0,.26-.13.5-.32.64.06.09.12.17.18.25.27-.21.45-.53.45-.9v-.53h-.41c-.16,0-.3-.14-.3-.3v-.03c0-.14-.09-.26-.21-.29h0c-.12-.04-.2-.15-.2-.29,0,0,0-.04.01-.06,0-.01,0-.04,0-.09,0-.11-.06-.21-.15-.27h0c-.25-.14-.42-.4-.42-.71,0-.06,0-.11.02-.17l.98.28,1,1.19.52-.46v-.68h-.32s.15-.31.5-.31c.33,0,.49.24.55.46l.24.89.91-1.08.98-.28c0,.06.01.11.01.17,0,.31-.16.57-.41.71h0c-.1.05-.16.15-.16.27,0,.05.01.08.01.09,0,.03,0,.06,0,.06,0,.14-.08.25-.2.3h0c-.13.04-.21.15-.21.29v.03c0,.17-.13.3-.3.3h-.75s.03.53-.38.96c-.1.1-.23.36-.08.68.16.34.48.49.48.49.12-.06.3-.21.3-.21-.27-.08-.42-.26-.51-.42-.07-.13-.03-.27.06-.36.12-.11.26-.35.32-.5.07-.19.1-.34.1-.34h.46c.34,0,.61-.27.61-.61v-.03h0c.24-.08.41-.31.41-.58,0-.05,0-.1-.02-.15.34-.19.57-.56.57-.98,0-.2-.05-.38-.13-.54l-1.34.37-.6.72s-.05-.16-.09-.33c-.08-.36-.34-.52-.34-.52l.32-.69-.52.1-.29-.39-.3.39-.51-.1.32.69c-.21.15-.36.39-.36.7,0,.02,0,.07,0,.07h.35v.22s-.17.17-.17.17l-.86-1.02-1.34-.37c-.09.16-.14.35-.14.54,0,.42.23.79.57.98-.01.05-.02.1-.02.15,0,.27.17.5.41.58Zm1.89-2.26l.14-.2.14.2.14-.02-.07.14s-.12-.02-.22-.02-.22.02-.22.02l-.07-.14.14.02Z"/>
      <path class="cls-1" d="m380.56,195.49c-.01.16-.03.39-.03.61,0,.93-.01,1.56-.01,2.5,0,1.18-.83,1.94-2.11,1.94s-2.1-.64-2.1-1.91c0-1.12,0-1.68-.03-2.44,0-.22-.02-.45-.03-.69h.98c-.01.23-.03.47-.03.69,0,.81-.02,1.37-.02,2.25s.49,1.32,1.27,1.32,1.23-.49,1.22-1.23c0-.82-.03-1.62-.03-2.44,0-.22,0-.41-.03-.61h.95Z"/>
      <path class="cls-1" d="m383.04,196.83h-.03v2.92c0,.27.03.54.08.73h-1c.12-.77.14-1.86.14-2.82,0-.5,0-.93-.01-1.28,0-.35-.01-.65-.03-.91h.89l2.79,3.4h.04c0-.66,0-1.38,0-2.04,0-.45-.01-.91-.04-1.36h.9c-.04.45-.04.91-.06,1.36-.02.39-.02,1.99,0,2.56,0,.38.02.75.03,1.14h-.69l-3.01-3.71Z"/>
      <path class="cls-1" d="m388.07,198.05c0-1.52,1.01-2.6,2.53-2.6.62,0,1.07.09,1.46.23-.01.35-.03.66-.05,1.01-.35-.25-.83-.45-1.44-.45-.95,0-1.54.68-1.54,1.75,0,1.21.77,1.84,1.76,1.84.47,0,.88-.1,1.24-.27v.77c-.38.17-.84.22-1.44.22-1.45,0-2.52-.89-2.52-2.49Z"/>
    </g>
    <g>
      <path class="cls-3" d="m446,209.86c2.67-.18,5.36-.36,8.03-.55-2.85-.21-5.75.05-8.89.27-1.11-.37-2.14-.79-3.22-1.3,4.15-.3,9.03-.56,12.62-.91-4.99-.01-8.13.14-13.29.56-.79-.4-1.54-.84-2.24-1.31,5.31-.38,10.62-.72,15.93-1.14-5.67-.2-10.42.31-16.54.71-.55-.39-1.08-.83-1.56-1.24l18.33-1.34c-7.34-.16-11.99.3-18.9.8-.42-.39-.8-.81-1.16-1.24l20.46-1.42c-8.38-.23-14.02.41-20.9.87-.32-.39-.57-.78-.78-1.14l22.32-1.61c-8.22-.05-13.7.07-22.69.95-.21-.37-.38-.77-.53-1.16l23.85-1.63c-10.68-.21-15.45.16-24.12.86-.13-.38-.21-.75-.29-1.12,7.86-.21,16.81-1.08,25.11-1.62-8.67-.21-15.78.01-25.22.84-.02-.33-.07-.68-.05-1.03,8.37-.44,17.23-1.14,25.73-1.71-9.96-.06-14.11-.25-25.71.84.03-.33.08-.66.12-1,8.6-.39,17.6-1.11,26.29-1.68-11.78-.22-16.68-.09-26.06.67.09-.31.19-.61.31-.93,6.5-.14,17.32-1.08,25.82-1.61-8.16.08-15.5-.41-25.4.64.15-.3.27-.55.47-.88,8.57-.38,17.17-1.09,25.59-1.63-7.47.13-17.61-.37-24.82.49.18-.24.38-.49.6-.73l24.96-1.67c-7.66.09-16.69-.34-23.73.39.21-.21.44-.41.68-.62l23.46-1.64c-7.03.02-14.21-.08-21.36.08.28-.17.54-.33.83-.5l21.23-1.45-18.25-.06c.51-.21,1.03-.44,1.62-.63l17.89-1.2,1.15.24-19.42,1.39c7.44.03,20.65.31,23.34-.23l1.03.42-25.04,1.67c8.41.1,19.64.29,27.61-.46l1.06.65c-8.99.34-18.97,1.03-27.96,1.69,9.41.01,20.06.32,29.38-.73l.77.61-1.88.11,2.11.06.2.18c-8.59.03-19.91.88-29.84,1.63,12.85.32,20.67.09,30.72-.81l.55.61-3.01.3,3.34.03.15.18c-9.92-.13-21.06,1.08-31.22,1.62,10.19.07,20.83.18,31.64-1.06l.53.8-3.9.25,3.77.03v.21c-9.72-.21-20.27.81-31.13,1.52,11.18.36,22.22-.23,31.86-.97l.33.76-3.64.29,3.1.03v.19c-9.02-.13-20.69.84-30.76,1.67,10.01.21,21.64-.35,31.68-1.22.1.32.18.62.24.93l-3.62.29,2.96.04v.18c-9.35-.02-20.73.85-30.81,1.58,9.93.38,21.34-.39,31.63-1.21.03.35.07.69.07,1.04l-3.26.23,2.76.06v.2c-8.72-.03-20.55.83-30.49,1.62,9.73.27,20.28-.48,30.97-1.34-.02.4-.07.79-.14,1.18l-2.66.18,2.59.07-.03.16c-8.71-.15-20.2.87-30.13,1.64,10.84.31,20.26-.84,30.06-1.26-.11.41-.19.71-.34,1.11l-1.83.11,1.73.07-.06.13c-8.91.21-19.56,1.12-28.93,1.68,9.91.39,19.41-.86,28.79-1.3-.24.53-.5,1.01-.8,1.49-8.57.38-18.52.99-27.39,1.7,9.26.25,18.25-.81,27.08-1.22-.37.48-.76.99-1.19,1.47-7.94.45-16.93.87-24.9,1.65,8.61.14,16.9-.78,24.54-1.26-.59.58-1.11,1.07-1.78,1.61-7.13.49-15.12.87-22.22,1.46,6.09.23,14.7-.68,21.63-1.02-.89.64-1.86,1.25-2.95,1.82-5.75.33-12.11.55-17.72,1.07,3.44.22,11.42-.48,17.06-.73-1.75.81-3.33,1.41-5.4,1.95l-10.6.68c2.73.11,6-.19,9.07-.33-5.42,1.1-11.11,1.08-16.99-.7Z"/>
      <path class="cls-1" d="m462.08,208.75c-.09-.28-.21-.48-.34-.62-.14-.14-.31-.2-.52-.2-.31,0-.61.16-.89.48-.29.31-.52.73-.68,1.26-.16.5-.2.92-.12,1.23.09.31.29.46.59.46.18,0,.39-.07.62-.19.24-.13.51-.33.81-.62l-1.08,3.29c-.25.14-.47.19-.7.26-.23.07-.45.1-.65.1-.25,0-.49-.04-.7-.15-.21-.09-.39-.23-.53-.4-.32-.45-.52-.96-.55-1.64-.02-.68.09-1.46.35-2.34.21-.65.46-1.26.77-1.82.31-.55.66-1.04,1.05-1.47.4-.42.8-.76,1.22-.97.43-.22.83-.33,1.23-.33.22,0,.42.04.61.11.18.07.35.18.5.33l-1,3.24Z"/>
      <path class="cls-1" d="m467.69,209.61c-.2.64-.45,1.25-.76,1.8-.31.56-.66,1.06-1.07,1.5-.37.39-.72.64-1.1.85v-2.62c.1-.08.2-.17.3-.29.26-.31.47-.71.62-1.22.15-.5.18-.91.11-1.2-.08-.31-.25-.46-.53-.45-.17,0-.34.06-.51.18v-2.68s.08-.06.13-.08c.43-.23.85-.34,1.26-.35.41-.01.76.1,1.04.32.3.22.5.54.65.96.14.42.19.92.17,1.47-.02.55-.14,1.16-.33,1.8Zm-2.93,4.15s-.08.05-.13.07c-.42.23-.84.36-1.24.37-.41,0-.76-.1-1.04-.33-.29-.22-.54-.47-.68-.89-.15-.43-.21-.91-.18-1.46.03-.55.15-1.15.34-1.8.2-.65.45-1.26.76-1.81.3-.56.65-1.05,1.05-1.48.36-.39.73-.7,1.11-.93v2.68c-.1.07-.21.17-.31.29-.26.31-.47.71-.62,1.22-.15.5-.18.89-.1,1.2.07.3.25.44.53.44.17,0,.33-.06.5-.17v2.62Z"/>
      <path class="cls-1" d="m466.59,214.01l2.59-8.74h1.91l.22,4.58c.05-.21.09-.43.16-.68.07-.24.16-.57.27-.96l.87-2.94h1.95l-2.6,8.74h-1.99l-.22-4.54c-.04.21-.09.41-.15.64-.06.22-.13.47-.21.75l-.94,3.15h-1.88Z"/>
      <path class="cls-1" d="m475.85,210.83h.14l.14-.99c.07-.5.14-.89.18-1.16.06-.28.11-.53.17-.77h-.02c-.08.24-.17.49-.29.77-.07.2-.18.45-.32.76v-3.36l.41-.81h2.16l-.81,8.74h-1.76v-3.18Zm-.63,0h.63v3.18h-.33l.16-1.1h-1.38l-.48,1.1h-1.96l3.99-7.92v3.36c-.05.12-.11.25-.17.4l-.46.99Z"/>
      <polygon class="cls-1" points="477.52 214.01 480.12 205.27 483.77 205.27 483.06 207.65 481.45 207.65 481.2 208.48 482.66 208.48 481.99 210.72 480.53 210.72 480.26 211.64 481.91 211.64 481.21 214.01 477.52 214.01"/>
    </g>
    <g>
      <polyline class="cls-4" points="217.14 192.36 217.14 187.13 222.37 187.13"/>
      <path class="cls-4" d="m239.18,197.91h-10.22v2.95h7.15c-.75,3.25-3.67,5.68-7.15,5.68-4.06,0-7.34-3.29-7.34-7.34s3.29-7.34,7.34-7.34c2.48,0,4.67,1.23,6,3.11h3.4c-1.62-3.58-5.21-6.07-9.39-6.07-5.69,0-10.3,4.61-10.3,10.3s4.61,10.3,10.3,10.3,10.3-4.61,10.3-10.3c0-.44-.03-.86-.08-1.29Z"/>
      <path class="cls-1" d="m255.25,194.97v14.32h-2.96v-1.69c-.47.59-1.08,1.05-1.83,1.39-.75.34-1.56.51-2.4.51-1.13,0-2.14-.23-3.03-.7-.89-.47-1.59-1.16-2.11-2.08-.51-.92-.77-2.03-.77-3.33v-8.42h2.94v7.98c0,1.28.32,2.27.96,2.95.64.68,1.52,1.03,2.63,1.03s1.99-.34,2.64-1.03c.65-.68.97-1.67.97-2.95v-7.98h2.96Z"/>
      <path class="cls-1" d="m261.16,189.14v20.15h-2.96v-20.15h2.96Z"/>
      <path class="cls-1" d="m270.91,198.2c.6-1.12,1.43-1.98,2.48-2.59,1.06-.61,2.27-.91,3.64-.91,1.73,0,3.17.41,4.3,1.23,1.13.82,1.9,2,2.3,3.52h-3.2c-.26-.71-.68-1.26-1.25-1.66-.57-.4-1.29-.6-2.16-.6-1.21,0-2.18.43-2.9,1.29-.72.86-1.08,2.06-1.08,3.6s.36,2.75,1.08,3.61c.72.87,1.69,1.3,2.9,1.3,1.72,0,2.85-.75,3.41-2.26h3.2c-.42,1.46-1.2,2.61-2.34,3.47-1.14.86-2.56,1.29-4.26,1.29-1.37,0-2.58-.31-3.64-.92-1.06-.61-1.88-1.48-2.48-2.6-.6-1.12-.9-2.41-.9-3.89s.3-2.77.9-3.89Z"/>
      <path class="cls-1" d="m296.92,195.44c.86.47,1.53,1.16,2.03,2.08.49.92.74,2.03.74,3.33v8.45h-2.94v-8.01c0-1.28-.32-2.27-.96-2.95-.64-.68-1.52-1.03-2.63-1.03s-1.99.34-2.64,1.03c-.65.68-.97,1.67-.97,2.95v8.01h-2.96v-20.15h2.96v7.49c.5-.61,1.14-1.07,1.91-1.4.77-.33,1.62-.49,2.53-.49,1.09,0,2.07.23,2.92.7Z"/>
      <g>
        <path class="cls-1" d="m267.07,194.96v14.33h-2.96v-14.33h2.96Z"/>
        <circle class="cls-1" cx="265.62" cy="190.79" r="1.9"/>
      </g>
    </g>
  </g>
</svg>