<?xml version="1.0" encoding="UTF-8"?>
<svg id="Capa_1" data-name="Capa 1" xmlns="http://www.w3.org/2000/svg" viewBox="0 0 700.91 395.35">
  <defs>
    <style>
      .cls-1 {
        fill: #131e29;
      }

      .cls-2 {
        fill: #fff;
      }

      .cls-3 {
        fill: #e81f76;
      }

      .cls-4 {
        fill: #1a428a;
      }

      .cls-5 {
        fill: #3a76ab;
      }

      .cls-6 {
        fill: #b0b0b0;
      }

      .cls-7, .cls-8 {
        fill: #6aaae4;
      }

      .cls-8 {
        font-family: Poppins-Regular, Poppins;
        font-size: 6px;
      }
    </style>
  </defs>
  <path class="cls-4" d="m518.7,351.04c-84.75,0-153.45-68.7-153.45-153.45,0-42.41,17.21-80.81,45.02-108.58L316.65-4.63h30.26l-.37-.37h359.4v-.32H-5.02v406h710.95v-16.02l-78.64-78.64c-27.77,27.82-66.17,45.02-108.58,45.02Z"/>
  <text class="cls-8" transform="translate(9.16 384.51)"><tspan x="0" y="0">© INSTITUTO GULICH | Todos los derechos reservados.</tspan></text>
  <path class="cls-7" d="m365,197.52c0,.05,0,.11,0,.16,0-.05,0-.11,0-.16h0Z"/>
  <path class="cls-1" d="m365,197.84h0c0-.05,0-.11,0-.16,0,.05,0,.11,0,.16Z"/>
  <path class="cls-3" d="m346.9-4.63h-30.26l93.64,93.64c5.06-5.05,10.47-9.75,16.2-14.06L346.9-4.63Z"/>
  <path class="cls-3" d="m641.35,289.82c-4.31,5.72-9.01,11.14-14.06,16.2l78.64,78.64v-30.26l-64.58-64.58Z"/>
  <path class="cls-1" d="m426.48,74.95c25.67-19.34,57.61-30.8,92.22-30.8,84.75,0,153.45,68.7,153.45,153.45,0,34.62-11.47,66.55-30.8,92.22l64.58,64.58V-4.63h-359.03l79.58,79.58Zm245.93,122.56h0c0,.05,0,.11,0,.16,0,.05,0,.11,0,.16h0c0-.05,0-.11,0-.16s0-.11,0-.16Z"/>
  <path class="cls-7" d="m518.7,321.14c-68.18,0-123.46-55.27-123.46-123.46,0-34.15,13.87-65.07,36.28-87.42l-21.25-21.25c-27.82,27.77-45.02,66.17-45.02,108.58,0,84.75,68.7,153.45,153.45,153.45,42.41,0,80.81-17.21,108.58-45.02l-21.16-21.16c-22.35,22.41-53.26,36.28-87.42,36.28Z"/>
  <path class="cls-4" d="m606.12,284.85l21.16,21.16c5.05-5.06,9.75-10.47,14.06-16.2l-21.43-21.43c-4.12,5.88-8.73,11.4-13.79,16.47Z"/>
  <path class="cls-7" d="m448,96.47l-21.52-21.52c-5.72,4.31-11.14,9.01-16.2,14.06l21.25,21.25c5.07-5.06,10.58-9.67,16.47-13.79Z"/>
  <path class="cls-4" d="m518.7,44.15c-34.62,0-66.55,11.47-92.22,30.8l21.52,21.52c20.03-14.02,44.4-22.25,70.71-22.25,68.13,0,123.37,55.19,123.46,123.3h.07c0,.11,0,.22,0,.32h-.07c-.03,26.24-8.26,50.56-22.25,70.54l21.43,21.43c19.34-25.67,30.8-57.61,30.8-92.22,0-84.75-68.7-153.45-153.45-153.45Z"/>
  <path class="cls-2" d="m518.7,314.43c-64.48,0-116.75-52.27-116.75-116.75,0-32.3,13.12-61.54,34.32-82.67l-4.74-4.74c-22.41,22.35-36.28,53.26-36.28,87.42,0,68.18,55.27,123.46,123.46,123.46,34.15,0,65.07-13.87,87.42-36.28l-4.74-4.74c-21.14,21.2-50.37,34.32-82.67,34.32Z"/>
  <path class="cls-2" d="m436.28,115c5.07-5.06,10.61-9.65,16.54-13.71l-4.82-4.82c-5.88,4.12-11.4,8.73-16.47,13.79l4.74,4.74Z"/>
  <path class="cls-2" d="m601.38,280.11l4.74,4.74c5.06-5.07,9.67-10.58,13.79-16.47l-4.82-4.82c-4.06,5.93-8.65,11.47-13.71,16.54Z"/>
  <path class="cls-2" d="m615.09,263.56l4.82,4.82c13.99-19.99,22.21-44.3,22.25-70.54h-6.71c-.03,24.38-7.54,47.01-20.36,65.72Z"/>
  <path class="cls-2" d="m518.7,80.93c64.45,0,116.7,52.22,116.75,116.66,0-.03,0-.05,0-.08h6.71c-.09-68.11-55.33-123.3-123.46-123.3-26.3,0-50.68,8.23-70.71,22.25l4.82,4.82c18.75-12.84,41.44-20.36,65.88-20.36Z"/>
  <path class="cls-7" d="m672.41,197.52c0,.05,0,.11,0,.16,0-.05,0-.11,0-.16h0Z"/>
  <path class="cls-1" d="m672.41,197.84c0-.05,0-.11,0-.16,0,.05,0,.11,0,.16h0Z"/>
  <path class="cls-2" d="m642.16,197.84h.07c0-.11,0-.22,0-.32h-.07c0,.05,0,.11,0,.16s0,.11,0,.16Z"/>
  <path class="cls-2" d="m635.45,197.59s0,.06,0,.08c0,.05,0,.11,0,.16h6.71c0-.05,0-.11,0-.16s0-.11,0-.16h-6.71s0,.05,0,.08Z"/>
  <path class="cls-6" d="m635.45,197.84c0-.05,0-.11,0-.16,0-.03,0-.06,0-.08,0,.08,0,.16,0,.25h0Z"/>
  <g>
    <g>
      <path class="cls-2" d="m519.46,372.05h.09v-.16h.08v-.08h-.08v-.08h-.09v.08h-.08v.08h.08v.16Zm-.28.41h.09v-.38h-.09v.38Zm.77-.2s-.02-.02-.05-.03h-.07s-.02-.02-.03-.03h0s-.02-.01-.02-.02c0-.01,0-.02.02-.03,0,0,.03-.01.04-.01.03,0,.06.02.08.03h0s.04-.07.04-.07h0s-.07-.05-.12-.05-.09.01-.11.04c-.03.02-.04.05-.04.09s.01.07.04.09c.02,0,.03.02.07.03h.04s.02.01.03.02h0s.01.02.01.02c0,.02,0,.03-.03.04,0,0-.03,0-.04,0-.03,0-.07-.02-.08-.04h0s-.04.06-.04.06h0s.07.05.13.05c.05,0,.09-.01.11-.03.03-.02.04-.05.04-.09,0-.03-.01-.06-.04-.08h0Zm-.38-.05h-.13v-.14h-.09v.38h.09v-.16h.13v.16h.09v-.38h-.09v.14Zm-.69,1.72h-.22s-.16-.16-.16-.16c0,0-.13.13-.16.16h-.22v.22s-.16.16-.16.16c0,0,.13.13.16.16v.22h.22s.16.16.16.16c0,0,.13-.13.16-.16h.22v-.22s.16-.16.16-.16c0,0-.13-.13-.16-.16v-.22Zm-.16.48v.13h-.13s-.06.06-.09.09c-.04-.03-.09-.09-.09-.09h-.13v-.13s-.06-.06-.09-.09c.03-.04.09-.09.09-.09v-.13h.13s.06-.06.09-.09c.03.03.09.09.09.09h.13v.13s.06.06.09.09c-.03.03-.09.09-.09.09Zm.27,3.45h.01s.1.08.15.11c.18-.1.31-.29.31-.51h-.16c0,.19-.13.36-.31.4Zm.23-.56h-.16c0,.17-.1.32-.25.38.04.04.08.08.11.12.17-.1.29-.29.29-.5Zm3.78-2.66h-.51c-.07-.12-.17-.22-.3-.27.18-.05.3-.2.3-.36,0,0,0-.02,0-.02-.01-.19-.13-.39-.42-.4-.01-.03-.04-.09-.04-.19,0-.01,0-.02,0-.04,0-.13.04-.29.09-.46.06-.22.13-.47.13-.74,0-.03,0-.06,0-.1-.02-.35-.15-.64-.38-.84-.23-.2-.55-.3-.9-.28-.06,0-.12.01-.18.03.06-.04.1-.08.12-.13l.61-1.05-.1-.2h-.23s-.04.08-.06.11c-.03-.02-.1-.06-.1-.06l-.19.11v.22s.07.04.1.06c-.02.03-.03.04-.05.08-.08-.05-.2-.13-.35-.2.02-.06.03-.13.05-.2.04,0,.11.03.11.03l.18-.16-.08-.22s-.08-.02-.11-.03c0-.04.03-.12.03-.12l-.15-.18-.22.07s-.02.08-.03.11c-.04-.01-.11-.03-.11-.03l-.18.15.08.23s.08.02.11.03c-.02.06-.03.12-.05.18-.09-.02-.25-.05-.45-.07v-.23h.14l.15-.23-.15-.23h-.14v-.13l-.23-.16-.23.16v.13h-.14l-.15.23.15.23h.14v.23c-.19.01-.36.05-.45.07-.02-.06-.03-.12-.05-.18.04,0,.11-.03.11-.03l.08-.23-.18-.15s-.08.02-.11.03c0-.04-.03-.11-.03-.11l-.22-.07-.15.18s.02.08.03.12c-.04,0-.11.03-.11.03l-.07.22.18.16s.08-.02.11-.03c.02.07.04.14.05.2-.15.06-.27.14-.35.2-.02-.04-.03-.05-.05-.08.02-.02.09-.06.09-.06v-.22s-.18-.11-.18-.11c0,0-.07.04-.1.06-.02-.03-.06-.09-.06-.09h-.23s-.1.19-.1.19l.62,1.05s.07.09.12.13c-.05-.02-.12-.03-.18-.03-.35-.02-.67.08-.9.28-.23.2-.36.49-.38.84,0,.03,0,.07,0,.1,0,.27.07.52.13.74.05.18.09.33.09.46,0,.01,0,.02,0,.04,0,.11-.03.17-.04.19-.29,0-.41.21-.42.4v.02c0,.17.12.31.3.36-.13.06-.23.15-.3.27h-.51l-.48.48.42.42c-.02.3-.07.51-.17.71-.11.23-.12.51-.12.6,0,.2.06.73.58,1.15.24.19.45.24.64.28.14.03.27.06.42.13.33.16.45.31.54.44l.02.02c.58.75,1.34.83,1.64.83s1.06-.08,1.64-.83l.02-.02c.09-.12.21-.27.54-.44.15-.08.28-.1.41-.13.2-.04.4-.08.64-.28.52-.42.58-.94.58-1.15,0-.08,0-.37-.12-.6-.1-.2-.15-.41-.17-.71l.42-.42-.48-.48Zm-.65.08s.01.02.02.03c0,.01.01.03.02.04.04.11.05.23.05.35,0,.21-.05.45-.12.7-.13.46-.33.92-.44,1.16-.04-.1-.11-.27-.11-.27,0,0-.19.05-.31.08.12-.19.32-.5.54-.86.14-.23.24-.55.24-.83,0-.11-.02-.21-.05-.3,0-.02-.02-.04-.03-.06h0c-.06-.1-.17-.18-.31-.18-.19,0-.32.16-.32.31h.16s0,0,0-.01c0-.06.06-.13.16-.13.07,0,.12.03.16.07,0,0,.01.02.02.03,0,0,0,.02.01.02.01.03.02.07.02.1,0,.18-.12.29-.31.29-.22,0-.37-.16-.37-.38,0-.18.15-.44.46-.44.27,0,.42.11.51.26Zm-4.55.21c0-.74.14-1.44.38-2.02v.8s.24-.24.31-.31c.06.07.31.31.31.31v-.71l1.51.99h-1.22s.24.25.31.31c-.06.06-.31.31-.31.31h2.1c0,.1,0,.21,0,.31h-3.4Zm3.4.16c-.01.86-.19,1.66-.51,2.27-.32.61-.75.95-1.19.95s-.87-.34-1.19-.95c-.32-.61-.5-1.41-.51-2.27h3.4Zm-3.84-2c-.04-.19-.09-.39-.09-.65,0-.05,0-.1,0-.15.03-.43.28-.61.43-.68.05-.02.09-.04.14-.05-.05.07-.08.15-.09.23v.04c0,.25.18.44.45.45.05,0,.09,0,.13,0-.05.08-.11.17-.16.26-.29.55-.46,1.24-.52,1.99-.1-.13-.26-.23-.46-.24.11-.09.21-.26.24-.6,0-.03,0-.06,0-.09,0-.19-.04-.35-.08-.52Zm2.88-1.32h0c-.11-.07-.22-.14-.34-.19,0-.07,0-.23.07-.36.21-.03.4-.07.56-.13-.04.03-.07.06-.11.1-.13.16-.21.36-.19.58Zm-.73-.68c-.75,0-1.23-.21-1.27-.33h0s0-.01,0-.01c0-.19.5-.46,1.27-.46s1.27.28,1.27.46c0,.12-.5.35-1.27.35Zm.28.15c-.04.11-.05.21-.05.29-.08-.02-.15-.03-.23-.03s-.16,0-.24.03c0-.08-.01-.18-.05-.29.09,0,.19,0,.28,0s.19,0,.28,0Zm-.75-.02c.07.13.08.29.07.36-.12.05-.23.11-.34.2h0c.01-.22-.06-.43-.19-.59-.03-.04-.07-.07-.1-.1.16.06.36.1.56.12Zm.47.44c.44,0,.87.34,1.19.95.17.33.3.72.39,1.15l-2.46-1.62c.26-.31.56-.48.88-.48Zm1.62,2.32c.02.13.04.26.05.4l-2.81-1.85c.05-.09.11-.18.17-.26l2.59,1.71Zm-1.65.18h1.07l.46.3h-1.53s.15-.15.15-.15c0,0-.1-.1-.15-.15Zm-.83-1.26v.43s-.15-.15-.15-.15c0,0-.11.1-.15.15v-.62l.3.2Zm2.19-.36c-.05-.09-.1-.18-.16-.26.04,0,.09,0,.13,0,.27-.02.45-.2.45-.45,0-.01,0-.02,0-.04,0-.08-.04-.17-.09-.23.05.01.09.03.14.05.15.07.4.25.42.68,0,.05,0,.11,0,.15,0,.26-.04.45-.09.65-.04.17-.07.33-.07.52,0,.03,0,.06,0,.09.02.34.12.51.24.6-.21,0-.36.11-.47.24-.05-.75-.23-1.45-.52-1.99Zm.14-1.45c.31-.02.59.06.78.24.19.17.31.42.33.73.02.28-.06.54-.12.78-.06.2-.11.39-.1.55.01.24.09.31.11.33l.02.02h.03c.25-.02.29.17.3.25,0,.12-.1.22-.25.23-.26.01-.33-.28-.35-.53-.01-.2.02-.37.07-.57.05-.23.11-.48.08-.84-.03-.37-.21-.67-.52-.81-.24-.11-.51-.11-.67,0h0c-.09.06-.15.16-.15.26h0s.16,0,.16,0c0-.06.05-.15.15-.16.06,0,.11.01.15.05.06.05.08.12.08.17.01.18-.1.31-.29.32-.11,0-.2-.02-.28-.09-.07-.07-.12-.16-.12-.27-.01-.17.04-.34.15-.46.1-.12.25-.19.43-.2Zm-2.85-.52c-.16-.27-.44-.74-.47-.79,0-.01,0-.01.02-.03.02,0,.02,0,.03,0,.02.03.09.16.09.16,0,0,.12-.07.16-.09.01,0,.01,0,.03.02,0,.02,0,.02,0,.04-.03.02-.15.1-.15.1l.22.37.07-.06s.2-.16.44-.25l.07-.03-.13-.49s-.14.04-.18.05c-.02-.01-.02-.02-.03-.03,0-.02,0-.02.01-.04.04-.01.19-.05.19-.05,0,0-.04-.14-.05-.19.01-.01.02-.01.03-.03.02,0,.03,0,.04.02.01.04.05.18.05.18,0,0,.14-.04.19-.05.01.01.02.02.03.03,0,.02,0,.02-.01.04-.05.01-.19.05-.19.05l.13.49.08-.02s.26-.07.57-.08h.08v-.55h-.21s-.03-.04-.05-.07c.02-.03.03-.04.05-.07h.21v-.21s.04-.03.07-.05c.03.02.04.03.06.05v.21h.21s.02.04.04.07c-.02.03-.03.04-.04.07h-.21v.54h.08c.31.02.57.09.57.09l.08.02.13-.49s-.14-.04-.19-.05c0-.02,0-.02-.02-.04.02-.01.02-.02.03-.03.04.01.19.05.19.05,0,0,.04-.14.05-.18.02,0,.02,0,.04-.02.02.02.02.02.03.03-.01.05-.05.19-.05.19,0,0,.14.04.18.05,0,.02,0,.02.01.04-.02.01-.02.02-.03.03-.04-.01-.18-.05-.18-.05l-.14.49.07.03c.25.09.44.25.44.25l.07.06.05-.08.17-.29s-.11-.07-.15-.1c0-.02,0-.02,0-.04.01,0,.02,0,.03-.02.04.02.16.09.16.09,0,0,.07-.12.1-.16.01,0,.02,0,.04,0t.01.03c-.03.05-.31.53-.47.79-.17-.26-.73-.45-1.37-.45s-1.2.19-1.38.45Zm-1.45,3.41c0-.08.04-.26.3-.25h.03s.02-.02.02-.02c.02-.02.1-.09.11-.33,0-.16-.04-.35-.1-.55-.06-.24-.14-.5-.12-.78.02-.31.13-.56.33-.73.2-.17.47-.25.78-.24.18.01.32.08.43.2.11.12.16.29.15.46,0,.12-.05.21-.13.27-.07.06-.17.09-.28.09-.19-.01-.31-.14-.29-.32,0-.05.03-.12.08-.17.04-.03.09-.05.15-.05.11,0,.16.1.15.16h.16s0,0,0,0c0-.1-.06-.21-.15-.27h0c-.17-.12-.44-.12-.67,0-.3.14-.49.44-.52.81-.02.36.03.62.09.84.04.19.08.36.07.57-.02.25-.09.55-.35.53-.15-.01-.26-.11-.25-.23Zm-.05.81s.01-.03.02-.04c0-.01.01-.02.02-.03.08-.15.24-.26.51-.26.32,0,.46.26.46.44,0,.22-.16.38-.37.38-.19,0-.31-.11-.31-.29,0-.03,0-.06.02-.1,0,0,.01-.02.01-.02,0-.02.02-.03.03-.04.03-.04.08-.07.15-.07.1,0,.15.07.16.13h0s.16.01.16.01c0-.15-.13-.31-.32-.31-.14,0-.25.08-.31.18h0s-.02.04-.03.06c-.04.08-.06.19-.06.3,0,.27.1.6.24.83.22.35.42.67.54.86-.12-.03-.31-.08-.31-.08,0,0-.07.17-.11.27-.11-.24-.31-.7-.44-1.16-.07-.25-.12-.49-.12-.7,0-.12.01-.24.06-.35Zm-.09,1.64c.03-.07.06-.14.08-.22h0s0-.04,0-.05c.18.55.42,1.03.44,1.06l.08.16s.16-.38.19-.47c.1.03.57.15.57.15l-.11-.17s-.3-.47-.64-1.02c-.1-.17-.17-.36-.2-.55.08.07.19.11.32.11.16,0,.3-.07.4-.17.03.82.22,1.58.53,2.16.35.67.82,1.04,1.33,1.04s.98-.37,1.33-1.04c.31-.59.49-1.35.53-2.16.1.11.24.17.4.17.13,0,.24-.04.32-.11-.03.18-.1.38-.2.55-.34.55-.64,1.02-.64,1.02l-.11.17s.47-.12.57-.15c.04.09.2.47.2.47l.08-.16s.26-.51.44-1.06c0,.01,0,.02,0,.03h0c.02.09.05.17.08.24.05.13.1.26.1.41,0,.1-.03.58-.65.7-.33.06-.58.15-.95.42-.22.16-.34.32-.43.44-.03.04-.06.07-.08.1-.37.41-.87.44-.96.44s-.59-.02-.97-.44c-.02-.03-.05-.06-.08-.1-.09-.12-.21-.27-.43-.44-.37-.26-.61-.35-.95-.42-.62-.12-.65-.61-.65-.7,0-.15.05-.28.1-.41Zm-.76-1.33l.2-.2v.41l-.2-.2Zm7.31,1.21c.08.16.1.37.1.53,0,.18-.05.64-.52,1.02-.21.17-.39.21-.58.24-.14.03-.29.06-.45.15-.37.18-.5.36-.6.48l-.02.02c-.53.69-1.23.76-1.51.76s-.98-.07-1.51-.76l-.02-.02c-.1-.13-.23-.3-.6-.48-.17-.08-.32-.11-.46-.15-.19-.04-.36-.08-.58-.24-.47-.38-.52-.84-.52-1.02,0-.15.03-.37.1-.53.14-.28.19-.58.19-1.05v-.47h.33c-.03.1-.05.22-.05.35,0,.21.05.46.11.71-.02.13-.04.22-.06.31h0c-.02.08-.05.14-.07.21-.05.13-.11.29-.11.47,0,.33.2.75.78.86.32.06.54.14.89.39.2.15.32.29.4.41.03.04.06.08.09.11.42.47.98.49,1.08.49s.66-.02,1.08-.49c.03-.03.06-.07.09-.11.09-.12.2-.26.4-.41.34-.25.57-.33.89-.39.58-.11.78-.53.78-.86,0-.18-.06-.33-.11-.47-.03-.07-.06-.14-.07-.2h0c-.02-.1-.05-.2-.07-.32.07-.25.11-.5.11-.71,0-.13-.02-.24-.05-.35h.33v.47c0,.48.05.77.19,1.05Zm-.03-1s0-.03,0-.05v-.36l.21.2-.2.2Zm-11.38,6.73h31.3v-15.65h-31.3v15.65Zm15.64-15.44h15.42v15.17h-15.42v-15.17Zm-15.43,0h15.22v15.22h-15.22v-15.22Zm6.58,10.1h0c0,.19.14.33.31.33h.05v.12c0,.13-.07.25-.16.33.03.05.06.09.09.13.14-.11.23-.27.23-.46v-.27h-.21c-.08,0-.16-.07-.16-.16v-.02c0-.07-.04-.13-.11-.15h0c-.06-.02-.1-.08-.1-.15,0,0,0-.02,0-.03,0,0,0-.02,0-.05,0-.06-.03-.11-.08-.14h0c-.13-.07-.21-.21-.21-.36,0-.03,0-.06,0-.09l.5.14.51.61.27-.24v-.35h-.17s.08-.16.26-.16c.17,0,.25.12.28.24l.12.46.47-.55.5-.14s0,.06,0,.09c0,.16-.08.29-.21.36h0s-.08.08-.08.14c0,.03,0,.04,0,.05,0,.01,0,.03,0,.03,0,.07-.04.13-.1.15h0c-.06.02-.11.08-.11.15v.02c0,.09-.07.16-.16.16h-.38s.01.27-.19.49c-.05.05-.12.18-.04.35.08.18.25.25.25.25.06-.03.15-.11.15-.11-.14-.04-.21-.13-.26-.21-.04-.07-.02-.14.03-.18.06-.06.13-.18.16-.25.04-.1.05-.18.05-.18h.24c.17,0,.31-.14.31-.31h0s0-.01,0-.01c.12-.04.21-.16.21-.3,0-.03,0-.05,0-.08.17-.1.29-.29.29-.5,0-.1-.02-.19-.07-.28l-.69.19-.31.37s-.03-.08-.05-.17c-.04-.19-.18-.27-.18-.27l.16-.36-.27.05-.15-.2-.15.2-.26-.05.16.36c-.11.08-.19.2-.19.36,0,.01,0,.03,0,.03h.18v.11s-.09.09-.09.09l-.44-.52-.69-.19c-.05.08-.07.18-.07.28,0,.22.12.41.29.5,0,.02,0,.05,0,.08,0,.14.09.25.21.3Zm.97-1.16l.07-.1.07.1h.07s-.03.06-.03.06c0,0-.06-.01-.11-.01s-.11.01-.11.01l-.03-.07h.07Z"/>
      <path class="cls-2" d="m533.33,372.95c0,.08-.01.2-.01.31,0,.48,0,.8,0,1.28,0,.6-.43.99-1.08.99s-1.08-.33-1.08-.98c0-.58,0-.86-.01-1.25,0-.11,0-.23-.02-.36h.5c0,.12-.02.24-.02.36,0,.42-.01.7-.01,1.15s.25.68.65.68.63-.25.62-.63c0-.42-.01-.83-.01-1.25,0-.11,0-.21-.01-.31h.49Z"/>
      <path class="cls-2" d="m534.6,373.63h-.01v1.5c0,.14.01.28.04.37h-.51c.06-.4.07-.95.07-1.44,0-.26,0-.48,0-.66,0-.18,0-.33-.01-.47h.45l1.43,1.74h.02c0-.34,0-.71,0-1.05,0-.23,0-.47-.02-.7h.46c-.02.23-.02.46-.03.7-.01.2,0,1.02,0,1.31,0,.19,0,.39.02.58h-.35l-1.54-1.9Z"/>
      <path class="cls-2" d="m537.18,374.26c0-.78.52-1.33,1.3-1.33.32,0,.55.05.75.12,0,.18-.02.34-.02.52-.18-.13-.43-.23-.74-.23-.49,0-.79.35-.79.9,0,.62.4.94.9.94.24,0,.45-.05.63-.14v.39c-.2.09-.43.11-.74.11-.74,0-1.29-.46-1.29-1.28Z"/>
    </g>
    <g>
      <path class="cls-5" d="m566.87,380.31c1.37-.09,2.75-.18,4.12-.28-1.46-.11-2.95.02-4.56.14-.57-.19-1.1-.41-1.65-.66,2.13-.15,4.63-.29,6.47-.46-2.56,0-4.17.07-6.81.29-.41-.21-.79-.43-1.15-.67,2.72-.19,5.44-.37,8.17-.58-2.91-.1-5.34.16-8.48.36-.28-.2-.55-.42-.8-.63l9.4-.69c-3.76-.08-6.14.15-9.69.41-.22-.2-.41-.42-.59-.64l10.49-.73c-4.3-.12-7.19.21-10.71.45-.16-.2-.29-.4-.4-.58l11.44-.82c-4.22-.02-7.02.04-11.63.49-.11-.19-.19-.39-.27-.59l12.22-.83c-5.47-.11-7.92.08-12.37.44-.06-.19-.11-.38-.15-.58,4.03-.11,8.62-.55,12.87-.83-4.45-.11-8.09,0-12.93.43-.01-.17-.04-.35-.02-.53,4.29-.22,8.83-.58,13.19-.88-5.1-.03-7.23-.13-13.18.43.02-.17.04-.34.06-.51,4.41-.2,9.02-.57,13.48-.86-6.04-.11-8.55-.05-13.36.34.05-.16.1-.31.16-.48,3.33-.07,8.88-.55,13.24-.82-4.18.04-7.94-.21-13.02.33.08-.15.14-.28.24-.45,4.39-.19,8.8-.56,13.12-.83-3.83.06-9.03-.19-12.72.25.09-.12.19-.25.31-.38l12.79-.86c-3.93.05-8.56-.18-12.17.2.11-.11.22-.21.35-.32l12.02-.84c-3.6.01-7.28-.04-10.95.04.14-.09.28-.17.42-.26l10.88-.74-9.36-.03c.26-.11.53-.22.83-.32l9.17-.62.59.12-9.95.71c3.82.02,10.58.16,11.97-.12l.53.22-12.84.86c4.31.05,10.07.15,14.15-.24l.54.34c-4.61.18-9.73.53-14.34.86,4.82,0,10.28.16,15.06-.38l.39.31-.96.06,1.08.03.1.09c-4.4.02-10.21.45-15.3.83,6.59.16,10.6.05,15.75-.42l.28.31-1.54.15,1.71.02.08.09c-5.09-.06-10.8.55-16.01.83,5.22.03,10.68.09,16.22-.54l.27.41-2,.13,1.93.02v.11c-4.98-.11-10.39.42-15.96.78,5.73.18,11.39-.12,16.33-.5l.17.39-1.86.15,1.59.02v.1c-4.62-.06-10.61.43-15.77.86,5.13.11,11.1-.18,16.24-.62.05.16.09.32.12.48l-1.86.15,1.52.02v.09c-4.79-.01-10.63.44-15.79.81,5.09.19,10.94-.2,16.22-.62.02.18.04.35.04.54l-1.67.12,1.42.03v.1c-4.47-.02-10.54.42-15.63.83,4.99.14,10.39-.25,15.88-.69-.01.21-.03.41-.07.61l-1.36.09,1.33.04-.02.08c-4.46-.08-10.35.45-15.45.84,5.56.16,10.38-.43,15.41-.65-.06.21-.1.36-.18.57l-.94.06.89.04-.03.06c-4.57.11-10.03.58-14.83.86,5.08.2,9.95-.44,14.76-.66-.12.27-.26.52-.41.76-4.39.19-9.5.51-14.04.87,4.74.13,9.35-.42,13.88-.62-.19.25-.39.51-.61.75-4.07.23-8.68.45-12.77.85,4.42.07,8.66-.4,12.58-.65-.3.3-.57.55-.91.82-3.66.25-7.75.45-11.39.75,3.12.12,7.54-.35,11.09-.52-.46.33-.95.64-1.51.93-2.95.17-6.21.28-9.08.55,1.76.11,5.86-.25,8.74-.38-.9.42-1.71.72-2.77,1l-5.43.35c1.4.06,3.08-.1,4.65-.17-2.78.56-5.7.55-8.71-.36Z"/>
      <path class="cls-2" d="m575.12,379.74c-.05-.14-.11-.25-.18-.32-.07-.07-.16-.11-.27-.11-.16,0-.31.08-.46.25-.15.16-.27.38-.35.65-.08.26-.1.47-.06.63.05.16.15.24.3.24.09,0,.2-.04.32-.1.12-.06.26-.17.42-.32l-.55,1.69c-.13.07-.24.1-.36.14-.12.04-.23.05-.33.05-.13,0-.25-.02-.36-.08-.11-.05-.2-.12-.27-.21-.16-.23-.26-.49-.28-.84-.01-.35.05-.75.18-1.2.11-.33.24-.65.39-.94.16-.28.34-.54.54-.75.21-.22.41-.39.62-.5.22-.11.42-.17.63-.17.11,0,.22.02.31.06.09.04.18.09.26.17l-.51,1.66Z"/>
      <path class="cls-2" d="m577.99,380.18c-.1.33-.23.64-.39.92-.16.29-.34.54-.55.77-.19.2-.37.33-.57.43v-1.34c.05-.04.1-.09.15-.15.14-.16.24-.36.32-.62.08-.26.09-.46.06-.62-.04-.16-.13-.24-.27-.23-.09,0-.18.03-.26.09v-1.38s.04-.03.06-.04c.22-.12.44-.18.65-.18.21,0,.39.05.54.16.15.11.26.28.33.49.07.22.1.47.09.75-.01.28-.07.59-.17.92Zm-1.5,2.13s-.04.02-.06.04c-.22.12-.43.18-.63.19-.21,0-.39-.05-.53-.17-.15-.11-.28-.24-.35-.46-.08-.22-.11-.46-.09-.75.02-.28.08-.59.18-.92.1-.34.23-.65.39-.93.15-.29.33-.54.54-.76.18-.2.38-.36.57-.48v1.38c-.05.04-.11.09-.16.15-.14.16-.24.36-.32.62-.08.26-.09.46-.05.62.03.15.13.22.27.22.09,0,.17-.03.26-.09v1.34Z"/>
      <path class="cls-2" d="m577.43,382.44l1.33-4.48h.98l.11,2.35c.02-.11.05-.22.08-.35.03-.12.08-.29.14-.49l.45-1.51h1l-1.33,4.48h-1.02l-.11-2.33c-.02.11-.05.21-.08.33-.03.11-.06.24-.11.38l-.48,1.62h-.96Z"/>
      <path class="cls-2" d="m582.18,380.81h.07l.07-.51c.04-.26.07-.46.09-.59.03-.14.06-.27.09-.39h-.01c-.04.12-.09.25-.15.39-.04.1-.09.23-.16.39v-1.72l.21-.42h1.1l-.42,4.48h-.9v-1.63Zm-.32,0h.32v1.63h-.17l.08-.56h-.71l-.25.56h-1.01l2.05-4.06v1.72c-.02.06-.06.13-.09.21l-.24.51Z"/>
      <polygon class="cls-2" points="583.03 382.44 584.37 377.96 586.24 377.96 585.87 379.18 585.05 379.18 584.92 379.61 585.67 379.61 585.33 380.75 584.58 380.75 584.44 381.22 585.29 381.22 584.93 382.44 583.03 382.44"/>
    </g>
    <g>
      <polyline class="cls-7" points="449.55 371.34 449.55 368.66 452.24 368.66"/>
      <path class="cls-7" d="m460.85,374.19h-5.24v1.51h3.67c-.39,1.67-1.88,2.91-3.67,2.91-2.08,0-3.76-1.69-3.76-3.76s1.69-3.76,3.76-3.76c1.27,0,2.39.63,3.07,1.59h1.74c-.83-1.83-2.67-3.11-4.81-3.11-2.92,0-5.28,2.36-5.28,5.28s2.36,5.28,5.28,5.28,5.28-2.36,5.28-5.28c0-.22-.02-.44-.04-.66Z"/>
      <path class="cls-2" d="m469.09,372.68v7.34h-1.52v-.87c-.24.3-.55.54-.94.71-.39.17-.8.26-1.23.26-.58,0-1.09-.12-1.55-.36-.46-.24-.82-.6-1.08-1.07-.26-.47-.39-1.04-.39-1.71v-4.32h1.51v4.09c0,.66.16,1.16.49,1.51.33.35.78.53,1.35.53s1.02-.18,1.35-.53c.33-.35.5-.85.5-1.51v-4.09h1.52Z"/>
      <path class="cls-2" d="m472.12,369.69v10.33h-1.52v-10.33h1.52Z"/>
      <path class="cls-2" d="m477.12,374.34c.31-.57.73-1.01,1.27-1.33.54-.31,1.16-.47,1.87-.47.89,0,1.62.21,2.21.63.58.42.97,1.02,1.18,1.81h-1.64c-.13-.36-.35-.65-.64-.85-.29-.2-.66-.31-1.11-.31-.62,0-1.12.22-1.49.66-.37.44-.55,1.05-.55,1.85s.18,1.41.55,1.85c.37.44.86.67,1.49.67.88,0,1.46-.39,1.75-1.16h1.64c-.21.75-.61,1.34-1.2,1.78-.59.44-1.31.66-2.19.66-.7,0-1.32-.16-1.87-.47-.54-.32-.97-.76-1.27-1.33-.31-.57-.46-1.24-.46-1.99s.15-1.42.46-1.99Z"/>
      <path class="cls-2" d="m490.45,372.92c.44.24.79.6,1.04,1.07.25.47.38,1.04.38,1.71v4.33h-1.51v-4.1c0-.66-.16-1.16-.49-1.51-.33-.35-.78-.53-1.35-.53s-1.02.18-1.35.53c-.33.35-.5.86-.5,1.51v4.1h-1.52v-10.33h1.52v3.84c.26-.31.58-.55.98-.72.4-.17.83-.25,1.3-.25.56,0,1.06.12,1.5.36Z"/>
      <g>
        <path class="cls-2" d="m475.15,372.68v7.35h-1.52v-7.35h1.52Z"/>
        <circle class="cls-2" cx="474.4" cy="370.54" r=".97"/>
      </g>
    </g>
  </g>
</svg>