<?xml version="1.0" encoding="utf-8"?>
<!-- Generator: Adobe Illustrator 24.0.1, SVG Export Plug-In . SVG Version: 6.00 Build 0)  -->
<svg version="1.1" id="Capa_1" xmlns="http://www.w3.org/2000/svg" xmlns:xlink="http://www.w3.org/1999/xlink" x="0px" y="0px"
	 viewBox="0 0 431 147" style="enable-background:new 0 0 431 147;" xml:space="preserve">
<style type="text/css">
	.st0{fill:#003764;}
</style>
<path class="st0" d="M381.01,121.78c-1.87,0-3.35,0.65-4.46,1.95c-1.11,1.3-1.66,3.05-1.66,5.25c0,2.05,0.52,3.68,1.58,4.9
	c1.05,1.22,2.47,1.82,4.25,1.82c2.14,0,3.72-0.69,4.74-2.06c1.02-1.38,1.53-3.12,1.53-5.22c0-2.18-0.58-3.83-1.73-4.95
	C384.09,122.34,382.68,121.78,381.01,121.78z M383.88,132.16c-0.53,1.1-1.52,1.65-2.96,1.65c-1.31,0-2.27-0.46-2.87-1.39
	c-0.6-0.93-0.9-2.09-0.9-3.48c0-1.45,0.3-2.68,0.9-3.71c0.6-1.02,1.57-1.54,2.89-1.54c1.49,0,2.55,0.6,3.16,1.8
	c0.39,0.76,0.58,1.76,0.58,2.98C384.69,129.83,384.42,131.06,383.88,132.16z M378.62,90.15v17.94h2.2V90.15H378.62z M370.39,123.84
	c-0.49-0.61-0.94-1.04-1.33-1.29c-0.67-0.42-1.51-0.64-2.51-0.64c-1.8,0-3.18,0.7-4.15,2.09c-0.97,1.4-1.45,3.04-1.45,4.95
	c0,2.03,0.53,3.66,1.59,4.89c1.06,1.22,2.32,1.84,3.77,1.84c0.9,0,1.7-0.18,2.4-0.54c0.7-0.36,1.3-0.94,1.81-1.75v1.83h1.97v-18
	h-2.11V123.84z M369.49,132.46c-0.65,0.87-1.48,1.31-2.5,1.31c-1.3,0-2.25-0.47-2.84-1.41c-0.59-0.94-0.89-2.11-0.89-3.51
	c0-1.64,0.34-2.88,1.03-3.73c0.68-0.84,1.58-1.27,2.68-1.27c0.99,0,1.82,0.4,2.49,1.19c0.67,0.79,1.01,2.01,1.01,3.66
	C370.47,130.33,370.14,131.58,369.49,132.46z M385.65,69.54c-0.49-0.61-0.94-1.04-1.33-1.29c-0.67-0.42-1.51-0.64-2.51-0.64
	c-1.8,0-3.18,0.7-4.15,2.09c-0.97,1.39-1.45,3.04-1.45,4.95c0,2.03,0.53,3.66,1.59,4.89c1.06,1.22,2.32,1.84,3.77,1.84
	c0.9,0,1.7-0.18,2.4-0.54c0.7-0.36,1.3-0.94,1.81-1.75v1.83h1.97v-18h-2.11V69.54z M384.75,78.16c-0.65,0.87-1.48,1.31-2.5,1.31
	c-1.3,0-2.25-0.47-2.84-1.41c-0.59-0.94-0.89-2.11-0.89-3.51c0-1.64,0.34-2.88,1.03-3.73c0.68-0.85,1.58-1.27,2.68-1.27
	c0.99,0,1.82,0.4,2.49,1.19c0.67,0.79,1.01,2.01,1.01,3.66C385.73,76.03,385.4,77.28,384.75,78.16z M311.67,126.51
	c-0.15-0.88-0.44-1.64-0.87-2.3c-0.45-0.69-1.11-1.25-1.98-1.69c-0.87-0.43-1.76-0.65-2.68-0.65c-1.83,0-3.31,0.65-4.44,1.96
	s-1.7,3.01-1.7,5.11c0,2.13,0.56,3.79,1.69,4.97c1.12,1.18,2.5,1.77,4.11,1.77c0.66,0,1.26-0.07,1.78-0.2
	c0.98-0.23,1.8-0.67,2.46-1.32c0.4-0.37,0.75-0.86,1.08-1.45c0.32-0.59,0.51-1.12,0.57-1.6h-2.16c-0.16,0.58-0.43,1.09-0.81,1.53
	c-0.68,0.76-1.59,1.14-2.73,1.14c-1.22,0-2.12-0.4-2.7-1.21c-0.58-0.8-0.89-1.87-0.93-3.2h9.52
	C311.87,128.07,311.8,127.11,311.67,126.51z M302.4,127.64c0.04-1.12,0.4-2.04,1.08-2.76c0.68-0.72,1.52-1.08,2.52-1.08
	c1.4,0,2.39,0.53,2.99,1.58c0.32,0.57,0.53,1.32,0.62,2.27H302.4z M315.92,106.6c-0.3,0-0.5-0.07-0.59-0.21
	c-0.09-0.14-0.14-0.32-0.14-0.55v-7.53c0-1.24-0.48-2.15-1.43-2.74c-0.96-0.59-2.2-0.88-3.74-0.88c-1.32,0-2.49,0.32-3.49,0.95
	c-1,0.63-1.52,1.76-1.57,3.38h2.05c0.08-0.68,0.26-1.19,0.52-1.54c0.48-0.62,1.29-0.93,2.43-0.93c0.99,0,1.75,0.17,2.28,0.51
	c0.53,0.34,0.8,0.88,0.8,1.64c0,0.37-0.05,0.65-0.15,0.85c-0.17,0.36-0.51,0.57-1.01,0.63l-3.5,0.44c-1.23,0.15-2.22,0.57-2.97,1.23
	c-0.76,0.67-1.13,1.61-1.13,2.82c0,1.11,0.38,2.03,1.15,2.76c0.77,0.74,1.76,1.1,2.97,1.1c1.01,0,1.93-0.22,2.77-0.65
	c0.84-0.43,1.48-0.94,1.93-1.53c0.07,0.52,0.2,0.92,0.38,1.21c0.34,0.54,0.89,0.8,1.65,0.8c0.31,0,0.55-0.01,0.73-0.04
	c0.18-0.02,0.44-0.08,0.78-0.18v-1.62c-0.14,0.02-0.27,0.04-0.39,0.05C316.13,106.59,316.02,106.6,315.92,106.6z M312.99,103.21
	c0,1.35-0.61,2.32-1.83,2.91c-0.72,0.36-1.47,0.54-2.24,0.54c-0.63,0-1.18-0.18-1.64-0.55c-0.46-0.37-0.69-0.87-0.69-1.5
	c0-0.84,0.34-1.45,1.02-1.83c0.4-0.23,1-0.39,1.79-0.5l1.33-0.17c0.4-0.05,0.82-0.13,1.24-0.25c0.42-0.12,0.77-0.26,1.03-0.43
	V103.21z M344.88,121.78c-1.87,0-3.35,0.65-4.46,1.95c-1.11,1.3-1.66,3.05-1.66,5.25c0,2.05,0.52,3.68,1.58,4.9
	c1.05,1.22,2.47,1.82,4.25,1.82c2.14,0,3.72-0.69,4.74-2.06c1.02-1.38,1.53-3.12,1.53-5.22c0-2.18-0.58-3.83-1.73-4.95
	C347.96,122.34,346.55,121.78,344.88,121.78z M347.75,132.16c-0.53,1.1-1.52,1.65-2.96,1.65c-1.31,0-2.27-0.46-2.87-1.39
	c-0.6-0.93-0.9-2.09-0.9-3.48c0-1.45,0.3-2.68,0.9-3.71c0.6-1.02,1.57-1.54,2.89-1.54c1.49,0,2.55,0.6,3.16,1.8
	c0.39,0.76,0.58,1.76,0.58,2.98C348.55,129.83,348.29,131.06,347.75,132.16z M333.34,131.49c-0.92,1.37-2.26,2.06-4.02,2.06
	c-1.91,0-3.35-0.65-4.31-1.96c-0.96-1.3-1.45-3.01-1.45-5.1c0-2.56,0.53-4.46,1.6-5.7c1.07-1.24,2.47-1.86,4.21-1.86
	c1.42,0,2.53,0.34,3.32,1.01c0.79,0.68,1.31,1.59,1.58,2.75h2.38c-0.14-1.52-0.82-2.88-2.06-4.08c-1.24-1.2-2.98-1.8-5.23-1.8
	c-2.63,0-4.7,0.92-6.19,2.76c-1.38,1.69-2.08,3.86-2.08,6.51c0,3.48,0.92,6.06,2.77,7.73c1.4,1.26,3.13,1.89,5.19,1.89
	c2.39,0,4.29-0.77,5.7-2.31c1.17-1.28,1.87-2.86,2.08-4.75h-2.38C334.2,129.82,333.83,130.77,333.34,131.49z M375.63,108.33
	c0.18-0.02,0.44-0.08,0.78-0.18v-1.62c-0.14,0.02-0.27,0.04-0.39,0.05c-0.12,0.01-0.23,0.02-0.33,0.02c-0.3,0-0.5-0.07-0.59-0.21
	c-0.09-0.14-0.14-0.32-0.14-0.55v-7.53c0-1.24-0.48-2.15-1.43-2.74c-0.96-0.59-2.2-0.88-3.74-0.88c-1.32,0-2.49,0.32-3.49,0.95
	c-1,0.63-1.52,1.76-1.57,3.38h2.05c0.08-0.68,0.26-1.19,0.52-1.54c0.48-0.62,1.29-0.93,2.43-0.93c0.99,0,1.75,0.17,2.28,0.51
	c0.53,0.34,0.8,0.88,0.8,1.64c0,0.37-0.05,0.65-0.15,0.85c-0.17,0.36-0.51,0.57-1.01,0.63l-3.5,0.44c-1.23,0.15-2.22,0.57-2.97,1.23
	c-0.76,0.67-1.13,1.61-1.13,2.82c0,1.11,0.38,2.03,1.15,2.76c0.77,0.74,1.76,1.1,2.97,1.1c1.01,0,1.93-0.22,2.77-0.65
	c0.84-0.43,1.48-0.94,1.93-1.53c0.07,0.52,0.2,0.92,0.38,1.21c0.34,0.54,0.89,0.8,1.65,0.8
	C375.2,108.37,375.45,108.35,375.63,108.33z M372.75,103.21c0,1.35-0.61,2.32-1.83,2.91c-0.72,0.36-1.47,0.54-2.24,0.54
	c-0.63,0-1.18-0.18-1.64-0.55c-0.46-0.37-0.69-0.87-0.69-1.5c0-0.84,0.34-1.45,1.02-1.83c0.4-0.23,1-0.39,1.79-0.5l1.33-0.17
	c0.4-0.05,0.82-0.13,1.24-0.25c0.42-0.12,0.77-0.26,1.03-0.43V103.21z M346.53,106.49c1.02-1.37,1.53-3.12,1.53-5.22
	c0-2.18-0.58-3.83-1.73-4.95c-1.16-1.12-2.57-1.68-4.24-1.68c-1.87,0-3.35,0.65-4.46,1.95c-1.11,1.3-1.66,3.05-1.66,5.25
	c0,2.05,0.52,3.68,1.58,4.9s2.47,1.82,4.25,1.82C343.93,108.55,345.51,107.87,346.53,106.49z M339.13,105.27
	c-0.6-0.93-0.9-2.08-0.9-3.48c0-1.45,0.3-2.68,0.9-3.71c0.6-1.02,1.57-1.54,2.89-1.54c1.49,0,2.55,0.6,3.16,1.81
	c0.39,0.76,0.58,1.76,0.58,2.98c0,1.35-0.27,2.58-0.8,3.68c-0.53,1.1-1.52,1.65-2.96,1.65C340.69,106.66,339.73,106.2,339.13,105.27
	z M327.26,107.26c0.98-0.8,1.59-2.07,1.83-3.8h-2.14c-0.2,0.96-0.57,1.72-1.1,2.28c-0.53,0.56-1.25,0.83-2.16,0.83
	c-1.19,0-2.06-0.45-2.61-1.34c-0.55-0.89-0.83-1.99-0.83-3.3c0-1.3,0.19-2.39,0.58-3.28c0.6-1.36,1.6-2.05,3-2.05
	c1.02,0,1.77,0.27,2.23,0.8c0.46,0.53,0.76,1.2,0.89,2h2.14c-0.19-1.75-0.74-2.98-1.67-3.69c-0.92-0.71-2.12-1.07-3.59-1.07
	c-1.72,0-3.14,0.64-4.26,1.92c-1.11,1.28-1.67,3.06-1.67,5.36c0,1.87,0.51,3.43,1.52,4.68c1.02,1.25,2.38,1.87,4.09,1.87
	C325.04,108.46,326.29,108.06,327.26,107.26z M359.28,121.88c-0.87,0-1.64,0.31-2.31,0.94c-0.67,0.63-1.09,1.16-1.26,1.6v-2.26
	h-2.09v13.08h2.2v-7.52c0-0.93,0.3-1.75,0.89-2.46c0.59-0.71,1.45-1.07,2.56-1.07c0.13,0,0.25,0,0.36,0.01
	c0.11,0.01,0.23,0.03,0.36,0.05v-2.31c-0.24-0.02-0.4-0.04-0.5-0.05C359.39,121.88,359.32,121.88,359.28,121.88z M343.17,120.44
	h1.68l3.25-3.53h-2.71L343.17,120.44z M355.42,96.87c0.33-0.11,0.76-0.16,1.28-0.16c1.02,0,1.73,0.41,2.12,1.22
	c0.24,0.49,0.35,1.13,0.35,1.93v8.23h2.23V99.7c0-1.32-0.18-2.33-0.54-3.04c-0.65-1.29-1.9-1.94-3.76-1.94
	c-0.85,0-1.61,0.17-2.31,0.5c-0.69,0.33-1.35,0.89-1.96,1.65v-1.87h-2.09v13.08h2.2v-6.84c0-0.85,0.05-1.51,0.16-1.97
	c0.11-0.46,0.35-0.9,0.71-1.34C354.29,97.41,354.82,97.05,355.42,96.87z M307.1,74.1c0-0.85,0.06-1.51,0.17-1.97
	c0.11-0.46,0.35-0.9,0.71-1.34c0.45-0.54,0.98-0.89,1.59-1.07c0.33-0.11,0.76-0.16,1.28-0.16c1.02,0,1.73,0.41,2.12,1.22
	c0.24,0.49,0.35,1.13,0.35,1.93v8.23h2.23v-8.38c0-1.32-0.18-2.33-0.54-3.04c-0.65-1.29-1.9-1.94-3.76-1.94
	c-0.85,0-1.61,0.17-2.31,0.5c-0.69,0.33-1.35,0.89-1.96,1.65v-1.87h-2.09v13.08h2.2V74.1z M330.04,80.94l4.93-13.08h-2.4
	l-3.64,10.65l-3.5-10.65h-2.55l4.83,13.08H330.04z M341.9,81.39c0.66,0,1.26-0.06,1.78-0.19c0.98-0.23,1.8-0.67,2.46-1.32
	c0.4-0.37,0.75-0.86,1.08-1.45c0.32-0.59,0.51-1.12,0.57-1.6h-2.16c-0.16,0.58-0.43,1.09-0.81,1.53c-0.68,0.76-1.59,1.14-2.73,1.14
	c-1.22,0-2.12-0.4-2.7-1.21c-0.58-0.8-0.89-1.87-0.93-3.2h9.52c0-1.32-0.06-2.28-0.19-2.88c-0.15-0.88-0.44-1.64-0.87-2.3
	c-0.45-0.69-1.11-1.25-1.98-1.68c-0.87-0.43-1.76-0.65-2.68-0.65c-1.83,0-3.31,0.65-4.44,1.96c-1.13,1.31-1.7,3.01-1.7,5.11
	c0,2.13,0.56,3.79,1.69,4.97C338.91,80.8,340.28,81.39,341.9,81.39z M339.58,70.58c0.68-0.72,1.52-1.09,2.52-1.09
	c1.4,0,2.39,0.53,2.99,1.58c0.32,0.57,0.53,1.32,0.62,2.27h-7.2C338.55,72.23,338.91,71.31,339.58,70.58z M331.3,108.09h2.23V95.07
	h-2.23V108.09z M321.03,63h-2.23v2.48h2.23V63z M294.38,81.4c3.03,0,5.1-1.08,6.19-3.25c0.6-1.19,0.89-2.88,0.89-5.09V63h-2.45
	v11.08c0,1.29-0.2,2.32-0.6,3.09c-0.75,1.41-2.15,2.11-4.23,2.11c-1.73,0-2.96-0.65-3.68-1.95c-0.49-0.86-0.74-1.94-0.74-3.25V63
	h-2.45v10.07c0,2.21,0.3,3.9,0.89,5.09C289.29,80.32,291.34,81.4,294.38,81.4z M321.03,67.92h-2.23v13.02h2.23V67.92z M353.02,73.42
	c0-0.93,0.3-1.75,0.89-2.46c0.6-0.71,1.45-1.07,2.56-1.07c0.13,0,0.25,0,0.36,0.01c0.11,0.01,0.23,0.03,0.36,0.05v-2.31
	c-0.24-0.02-0.4-0.04-0.5-0.05c-0.1-0.01-0.17-0.01-0.21-0.01c-0.87,0-1.64,0.31-2.31,0.94c-0.67,0.63-1.09,1.16-1.26,1.6v-2.26
	h-2.09v13.08h2.2V73.42z M373.81,67.92h-2.23v13.02h2.23V67.92z M373.81,63h-2.23v2.48h2.23V63z M366.09,79.04
	c-0.63,0.35-1.36,0.53-2.19,0.53c-1.4,0-2.38-0.35-2.94-1.06c-0.31-0.39-0.49-0.95-0.56-1.69h-2.11c0.06,1.3,0.5,2.4,1.32,3.28
	c0.82,0.88,2.21,1.33,4.18,1.33c1.83,0,3.19-0.42,4.08-1.27c0.89-0.85,1.34-1.85,1.34-3.02c0-1.21-0.43-2.09-1.28-2.65
	c-0.55-0.36-1.63-0.73-3.24-1.11l-1.48-0.35c-0.65-0.15-1.14-0.33-1.47-0.54c-0.58-0.34-0.86-0.8-0.86-1.36
	c0-0.52,0.22-0.94,0.66-1.25c0.44-0.32,1.08-0.48,1.93-0.48c1.27,0,2.17,0.29,2.69,0.87c0.32,0.41,0.5,0.86,0.54,1.35h2.08
	c0.02-0.85-0.25-1.64-0.8-2.37c-0.88-1.16-2.32-1.74-4.32-1.74c-1.53,0-2.74,0.38-3.64,1.15c-0.9,0.77-1.36,1.77-1.36,3
	c0,1.05,0.48,1.87,1.44,2.47c0.54,0.34,1.37,0.65,2.51,0.93l1.77,0.44c0.95,0.24,1.59,0.44,1.91,0.62c0.5,0.29,0.76,0.72,0.76,1.28
	C367.03,78.14,366.72,78.69,366.09,79.04z M333.53,90.15h-2.23v2.48h2.23V90.15z M413.46,62.94v6.61c-0.49-0.61-0.94-1.04-1.33-1.29
	c-0.67-0.42-1.51-0.64-2.51-0.64c-1.8,0-3.18,0.7-4.15,2.09c-0.97,1.39-1.45,3.04-1.45,4.95c0,2.03,0.53,3.66,1.59,4.89
	c1.06,1.22,2.32,1.84,3.77,1.84c0.9,0,1.7-0.18,2.4-0.54c0.7-0.36,1.3-0.94,1.81-1.75v1.83h1.97v-18H413.46z M412.56,78.16
	c-0.65,0.87-1.48,1.31-2.5,1.31c-1.3,0-2.25-0.47-2.84-1.41c-0.59-0.94-0.89-2.11-0.89-3.51c0-1.64,0.34-2.88,1.03-3.73
	c0.68-0.85,1.58-1.27,2.68-1.27c0.99,0,1.82,0.4,2.49,1.19c0.67,0.79,1.01,2.01,1.01,3.66C413.54,76.03,413.21,77.28,412.56,78.16z
	 M402.07,79.45c-0.3,0-0.5-0.07-0.59-0.21c-0.09-0.14-0.14-0.32-0.14-0.55v-7.53c0-1.24-0.48-2.15-1.43-2.74
	c-0.96-0.59-2.2-0.88-3.74-0.88c-1.32,0-2.49,0.32-3.49,0.95c-1,0.63-1.52,1.76-1.56,3.38h2.05c0.08-0.68,0.26-1.19,0.52-1.54
	c0.48-0.62,1.29-0.93,2.43-0.93c0.99,0,1.75,0.17,2.28,0.51c0.53,0.34,0.8,0.88,0.8,1.64c0,0.37-0.05,0.65-0.15,0.85
	c-0.17,0.36-0.51,0.57-1.01,0.63l-3.5,0.44c-1.23,0.15-2.22,0.57-2.97,1.23c-0.76,0.67-1.13,1.61-1.13,2.82
	c0,1.11,0.38,2.03,1.15,2.76c0.77,0.74,1.76,1.1,2.97,1.1c1.01,0,1.93-0.22,2.77-0.65c0.84-0.43,1.48-0.94,1.93-1.53
	c0.07,0.52,0.2,0.92,0.38,1.21c0.34,0.54,0.89,0.8,1.65,0.8c0.31,0,0.55-0.01,0.73-0.04c0.18-0.02,0.44-0.08,0.78-0.18v-1.62
	c-0.14,0.02-0.27,0.04-0.39,0.05C402.28,79.44,402.17,79.45,402.07,79.45z M399.13,76.06c0,1.35-0.61,2.32-1.83,2.91
	c-0.72,0.36-1.47,0.54-2.24,0.54c-0.63,0-1.18-0.18-1.64-0.55c-0.46-0.37-0.69-0.87-0.69-1.5c0-0.84,0.34-1.45,1.02-1.83
	c0.4-0.23,1-0.39,1.79-0.5l1.33-0.17c0.41-0.05,0.82-0.13,1.24-0.25c0.42-0.12,0.77-0.26,1.03-0.43V76.06z M301.26,90.15h-2.31v14.5
	l-8.96-14.5h-2.86v17.94h2.31V93.58l9.09,14.51h2.72V90.15z M295.35,123.84c-0.49-0.61-0.94-1.04-1.33-1.29
	c-0.67-0.42-1.51-0.64-2.51-0.64c-1.8,0-3.18,0.7-4.15,2.09c-0.97,1.4-1.45,3.04-1.45,4.95c0,2.03,0.53,3.66,1.59,4.89
	c1.06,1.22,2.32,1.84,3.77,1.84c0.9,0,1.7-0.18,2.4-0.54c0.7-0.36,1.3-0.94,1.81-1.75v1.83h1.97v-18h-2.11V123.84z M294.46,132.46
	c-0.65,0.87-1.48,1.31-2.5,1.31c-1.3,0-2.25-0.47-2.84-1.41c-0.59-0.94-0.89-2.11-0.89-3.51c0-1.64,0.34-2.88,1.03-3.73
	c0.68-0.84,1.58-1.27,2.68-1.27c0.99,0,1.82,0.4,2.49,1.19c0.67,0.79,1.01,2.01,1.01,3.66
	C295.43,130.33,295.11,131.58,294.46,132.46z M395.54,121.81c-0.78,0-1.51,0.17-2.18,0.5c-0.67,0.33-1.25,0.81-1.73,1.44v-6.51
	h-2.14v18h2.03v-1.66c0.47,0.63,0.9,1.08,1.31,1.37c0.69,0.48,1.53,0.72,2.52,0.72c1.78,0,3.17-0.68,4.18-2.05
	c1-1.37,1.51-3.09,1.51-5.16c0-2.18-0.51-3.83-1.52-4.95C398.5,122.37,397.18,121.81,395.54,121.81z M397.89,132.3
	c-0.59,0.95-1.48,1.42-2.67,1.42c-1.58,0-2.66-0.72-3.24-2.16c-0.31-0.77-0.46-1.76-0.46-3c0-1.7,0.38-2.93,1.13-3.67
	c0.75-0.74,1.63-1.11,2.64-1.11c1.15,0,2.02,0.45,2.61,1.36c0.59,0.91,0.89,2.05,0.89,3.42
	C398.78,130.11,398.48,131.36,397.89,132.3z M414.62,133.75c-0.3,0-0.5-0.07-0.59-0.21c-0.09-0.14-0.14-0.32-0.14-0.55v-7.53
	c0-1.24-0.48-2.15-1.42-2.74c-0.96-0.59-2.21-0.88-3.74-0.88c-1.32,0-2.49,0.32-3.49,0.95c-1,0.63-1.52,1.76-1.56,3.38h2.05
	c0.08-0.68,0.26-1.19,0.52-1.54c0.48-0.62,1.29-0.93,2.43-0.93c0.99,0,1.75,0.17,2.28,0.51c0.53,0.34,0.8,0.89,0.8,1.64
	c0,0.37-0.05,0.65-0.15,0.85c-0.17,0.36-0.51,0.57-1.01,0.63l-3.5,0.44c-1.23,0.16-2.22,0.57-2.97,1.23
	c-0.76,0.67-1.13,1.61-1.13,2.82c0,1.11,0.38,2.03,1.15,2.76c0.77,0.74,1.76,1.1,2.97,1.1c1.01,0,1.93-0.22,2.77-0.65
	c0.84-0.43,1.48-0.94,1.93-1.53c0.07,0.52,0.2,0.92,0.38,1.21c0.34,0.54,0.89,0.8,1.65,0.8c0.31,0,0.55-0.01,0.73-0.04
	c0.18-0.02,0.44-0.09,0.78-0.18v-1.62c-0.14,0.02-0.27,0.04-0.39,0.05C414.82,133.75,414.71,133.75,414.62,133.75z M411.68,130.36
	c0,1.35-0.61,2.32-1.83,2.91c-0.72,0.36-1.47,0.54-2.24,0.54c-0.63,0-1.18-0.18-1.64-0.55c-0.46-0.37-0.69-0.86-0.69-1.5
	c0-0.84,0.34-1.45,1.02-1.83c0.4-0.23,1-0.39,1.79-0.5l1.33-0.17c0.41-0.05,0.82-0.13,1.24-0.24c0.42-0.12,0.77-0.26,1.03-0.43
	V130.36z M66.36,102.27c0.03,0.02,0.05,0.04,0.08,0.07c0.41,0.32,0.81,0.6,1.21,0.82c1.53-0.81,2.57-2.41,2.57-4.26h-1.31
	C68.92,100.5,67.84,101.85,66.36,102.27z M70.2,53.87h0.77c0,0,0-1.21,0-1.33c0.11,0,0.67,0,0.67,0v-0.66c0,0-0.56,0-0.67,0
	c0-0.11,0-0.67,0-0.67H70.2c0,0,0,0.55,0,0.67c-0.11,0-0.67,0-0.67,0v0.66c0,0,0.56,0,0.67,0C70.2,52.67,70.2,53.87,70.2,53.87z
	 M61.95,92.66L61.95,92.66l-0.01,0.13c0,1.43,1.16,2.59,2.6,2.59l0.44,0v1.01c-0.01,1.12-0.54,2.11-1.37,2.75
	c0.25,0.38,0.51,0.73,0.77,1.06c1.16-0.88,1.9-2.27,1.9-3.83v-2.28h-1.75c-0.71,0-1.29-0.58-1.29-1.29l0.01-0.14
	c0-0.58-0.39-1.08-0.92-1.24l0,0c-0.5-0.18-0.85-0.66-0.85-1.21c0-0.03,0-0.16,0.03-0.28c0.02-0.07,0.06-0.16,0.06-0.39
	c0-0.49-0.27-0.91-0.67-1.13l0,0c-1.06-0.6-1.77-1.74-1.77-3.05c0-0.25,0.02-0.49,0.07-0.72l4.17,1.18l4.27,5.07l2.21-1.96l0-2.92
	h-1.36c0,0,0.62-1.32,2.13-1.32c1.4,0,2.11,1.01,2.35,1.96l1.01,3.79l3.88-4.61l4.17-1.18c0.05,0.23,0.08,0.47,0.08,0.72
	c0,1.3-0.71,2.44-1.77,3.05l0,0c-0.4,0.22-0.67,0.64-0.67,1.13c0,0.22,0.04,0.31,0.06,0.39c0.03,0.12,0.03,0.24,0.03,0.28
	c0,0.56-0.36,1.04-0.85,1.21v0c-0.53,0.16-0.92,0.65-0.92,1.24l0.01,0.14c0,0.71-0.58,1.29-1.3,1.29h-3.2c0,0,0.11,2.27-1.62,4.1
	c-0.39,0.41-0.98,1.52-0.33,2.89c0.68,1.44,2.06,2.08,2.06,2.08c0.5-0.26,1.29-0.89,1.29-0.89c-1.17-0.34-1.8-1.09-2.19-1.79
	c-0.3-0.54-0.14-1.16,0.23-1.51c0.51-0.48,1.1-1.5,1.34-2.12c0.31-0.79,0.43-1.47,0.43-1.47l1.98,0c1.43,0,2.6-1.16,2.6-2.59v-0.13
	h0c1.03-0.35,1.77-1.32,1.77-2.46c0-0.22-0.03-0.44-0.08-0.65c1.46-0.83,2.44-2.4,2.44-4.19c0-0.83-0.21-1.61-0.58-2.3l-5.72,1.59
	l-2.57,3.06c0,0-0.21-0.66-0.37-1.39c-0.35-1.55-1.46-2.21-1.46-2.21l1.36-2.96l-2.22,0.44l-1.23-1.67l-1.26,1.67l-2.18-0.45
	l1.36,2.96c-0.89,0.61-1.54,1.63-1.54,2.97c0,0.1,0.01,0.27,0.01,0.27h1.52l0.01,0.97l-0.75,0.68l-3.65-4.34l-5.72-1.59
	c-0.37,0.68-0.58,1.46-0.58,2.3c0,1.8,0.98,3.36,2.44,4.19c-0.05,0.21-0.08,0.42-0.08,0.65C60.19,91.34,60.93,92.31,61.95,92.66z
	 M70.01,83.06l0.6-0.85l0.6,0.85l0.61-0.12l-0.29,0.62c0,0-0.51-0.12-0.92-0.12c-0.41,0-0.92,0.12-0.92,0.12l-0.28-0.62L70.01,83.06
	z M67.88,57.27h0.77v-3.18h-0.77V57.27z M74.29,55.61c-0.1-0.08-0.19-0.15-0.42-0.21l-0.54-0.12c-0.15-0.04-0.2-0.07-0.25-0.1
	l-0.04-0.02c-0.08-0.04-0.11-0.1-0.11-0.18c0-0.1,0.04-0.17,0.12-0.22c0.09-0.06,0.21-0.09,0.36-0.09c0.25,0,0.51,0.15,0.65,0.28
	L74.13,55l0.35-0.61l-0.05-0.04c-0.23-0.17-0.58-0.37-0.97-0.37c-0.4,0-0.72,0.1-0.93,0.29c-0.21,0.19-0.32,0.44-0.32,0.73
	c0,0.32,0.11,0.56,0.34,0.71c0.14,0.09,0.27,0.17,0.59,0.24l0.33,0.07c0.14,0.03,0.19,0.06,0.25,0.1l0.05,0.03
	c0.07,0.04,0.1,0.1,0.1,0.18c0,0.14-0.07,0.23-0.23,0.29c-0.09,0.03-0.21,0.05-0.35,0.05c-0.28,0-0.61-0.19-0.7-0.3l-0.06-0.07
	l-0.35,0.6l0.04,0.04c0.22,0.18,0.59,0.39,1.09,0.39c0.41,0,0.73-0.1,0.95-0.29c0.23-0.2,0.34-0.45,0.34-0.74
	c0-0.29-0.1-0.52-0.29-0.67L74.29,55.61z M71.1,55.25h-1.04c0-0.12,0-1.16,0-1.16h-0.77v3.18h0.77c0,0,0-1.24,0-1.36h1.04
	c0,0.12,0,1.36,0,1.36h0.77v-3.18H71.1C71.1,54.08,71.1,55.13,71.1,55.25z M65.39,69.57c0,0-1.5,0-1.87,0
	c-0.26-0.26-1.32-1.32-1.32-1.32s-1.06,1.06-1.32,1.32c-0.37,0-1.87,0-1.87,0s0,1.5,0,1.87c-0.26,0.26-1.32,1.32-1.32,1.32
	s1.06,1.06,1.32,1.32c0,0.36,0,1.87,0,1.87s1.5,0,1.87,0c0.26,0.26,1.32,1.32,1.32,1.32s1.06-1.06,1.32-1.32c0.36,0,1.87,0,1.87,0
	s0-1.5,0-1.87c0.26-0.26,1.32-1.32,1.32-1.32s-1.06-1.06-1.32-1.32C65.39,71.07,65.39,69.57,65.39,69.57z M64.06,73.53
	c0,0,0,0.69,0,1.09c-0.4,0-1.09,0-1.09,0s-0.48,0.48-0.77,0.77c-0.28-0.29-0.77-0.77-0.77-0.77s-0.69,0-1.09,0c0-0.4,0-1.09,0-1.09
	s-0.48-0.49-0.77-0.77c0.29-0.29,0.77-0.77,0.77-0.77s0-0.69,0-1.09c0.4,0,1.09,0,1.09,0s0.49-0.48,0.77-0.77
	c0.29,0.29,0.77,0.77,0.77,0.77s0.69,0,1.09,0c0,0.4,0,1.09,0,1.09s0.49,0.49,0.77,0.77C64.55,73.04,64.06,73.53,64.06,73.53z
	 M68.25,97.63h-1.31c0,1.42-0.84,2.64-2.05,3.19c0.31,0.36,0.63,0.69,0.95,0.98C67.28,100.97,68.25,99.42,68.25,97.63z M99.68,75.47
	h-4.21c-0.58-1.03-1.41-1.8-2.47-2.27c1.48-0.4,2.51-1.6,2.51-3.01c0-0.06,0-0.13-0.01-0.19c-0.1-1.54-1.09-3.28-3.51-3.29
	c-0.11-0.24-0.28-0.72-0.34-1.62c-0.01-0.1-0.01-0.2-0.01-0.3c0-1.09,0.36-2.37,0.77-3.84c0.51-1.84,1.09-3.9,1.09-6.13
	c0-0.27-0.01-0.54-0.03-0.82c-0.19-2.91-1.29-5.33-3.18-6.99c-1.91-1.67-4.56-2.49-7.47-2.29c-0.52,0.03-1.02,0.12-1.49,0.25
	c0.46-0.33,0.81-0.7,1.01-1.09l5.12-8.69l-0.81-1.71l-1.9,0.09c0,0-0.33,0.54-0.47,0.78c-0.24-0.14-0.81-0.48-0.81-0.48l-1.62,0.91
	l0.1,1.82c0,0,0.5,0.32,0.71,0.46c-0.17,0.28-0.22,0.37-0.4,0.67c-0.62-0.44-1.65-1.11-2.91-1.65c0.14-0.53,0.29-1.09,0.45-1.67
	c0.3,0.08,0.94,0.26,0.94,0.26l1.48-1.29l-0.62-1.86c0,0-0.65-0.18-0.95-0.26c0.08-0.3,0.26-0.95,0.26-0.95l-1.29-1.48l-1.86,0.62
	c0,0-0.18,0.65-0.26,0.95c-0.3-0.08-0.94-0.26-0.94-0.26l-1.5,1.28l0.64,1.87c0,0,0.64,0.18,0.94,0.26
	c-0.15,0.54-0.27,0.98-0.41,1.51c-0.76-0.17-2.13-0.44-3.73-0.56v-1.94c0.39,0,1.14,0,1.14,0l1.25-1.87l-1.25-1.88
	c0,0-0.75,0-1.14,0c0-0.39,0-1.12,0-1.12l-1.88-1.34l-1.87,1.34c0,0,0,0.74,0,1.12c-0.39,0-1.14,0-1.14,0l-1.25,1.88l1.25,1.87
	c0,0,0.75,0,1.14,0v1.94c-1.59,0.12-2.96,0.39-3.73,0.56c-0.14-0.52-0.27-0.97-0.41-1.51c0.3-0.08,0.94-0.26,0.94-0.26l0.64-1.87
	l-1.5-1.28c0,0-0.64,0.18-0.94,0.26c-0.08-0.3-0.26-0.95-0.26-0.95l-1.86-0.62l-1.29,1.48c0,0,0.18,0.65,0.26,0.95
	c-0.3,0.08-0.95,0.26-0.95,0.26l-0.62,1.86l1.48,1.29c0,0,0.64-0.18,0.94-0.26c0.16,0.58,0.31,1.14,0.45,1.67
	c-1.25,0.54-2.29,1.21-2.91,1.65c-0.18-0.3-0.23-0.39-0.4-0.67c0.21-0.13,0.71-0.46,0.71-0.46l0.1-1.82l-1.62-0.91
	c0,0-0.57,0.34-0.81,0.48c-0.14-0.24-0.47-0.78-0.47-0.78l-1.9-0.09l-0.81,1.71l5.11,8.67c0.2,0.4,0.55,0.77,1.02,1.11
	c-0.47-0.13-0.97-0.22-1.49-0.25c-2.91-0.19-5.57,0.62-7.47,2.29c-1.89,1.66-2.99,4.07-3.18,6.99c-0.02,0.27-0.03,0.55-0.03,0.82
	c0,2.23,0.57,4.29,1.09,6.13c0.41,1.47,0.77,2.75,0.77,3.84c0,0.1,0,0.2-0.01,0.3c-0.06,0.9-0.23,1.39-0.34,1.62
	c-2.42,0.01-3.41,1.75-3.51,3.29c-0.01,0.06-0.01,0.13-0.01,0.19c0,1.41,1.03,2.61,2.51,3.01c-1.06,0.47-1.89,1.24-2.47,2.27h-4.21
	l-3.96,3.96l3.51,3.51c-0.15,2.49-0.58,4.27-1.4,5.94c-0.92,1.88-0.99,4.27-0.99,4.96c0,1.71,0.47,6.05,4.81,9.52
	c2.01,1.61,3.71,1.96,5.34,2.31c1.14,0.24,2.21,0.47,3.46,1.09c2.76,1.38,3.72,2.63,4.49,3.63l0.15,0.19
	c4.8,6.19,11.14,6.86,13.63,6.86c2.49,0,8.83-0.67,13.63-6.86l0.15-0.19c0.77-1,1.73-2.26,4.49-3.63c1.25-0.62,2.33-0.85,3.46-1.09
	c1.64-0.35,3.33-0.71,5.34-2.31c4.34-3.47,4.81-7.82,4.81-9.52c0-0.69-0.07-3.08-0.99-4.96c-0.82-1.68-1.25-3.45-1.4-5.94l3.51-3.51
	L99.68,75.47z M94.32,76.13c0.06,0.1,0.11,0.2,0.16,0.3c0.05,0.12,0.11,0.24,0.15,0.36c0.35,0.91,0.46,1.93,0.46,2.88
	c0,1.72-0.4,3.76-0.97,5.82c-1.07,3.81-2.74,7.67-3.65,9.64c-0.35-0.84-0.94-2.24-0.94-2.24s-1.56,0.41-2.54,0.66
	c0.99-1.55,2.65-4.18,4.45-7.1c1.18-1.92,2.03-4.6,2.03-6.88c0-0.92-0.14-1.77-0.45-2.48c-0.07-0.17-0.15-0.34-0.25-0.5
	c0,0,0-0.01,0-0.01l0,0c-0.51-0.84-1.39-1.46-2.57-1.46c-1.59,0-2.65,1.32-2.65,2.55h1.33c0-0.04,0-0.08,0.01-0.12
	c0.07-0.5,0.52-1.09,1.31-1.09c0.59,0,1.01,0.26,1.28,0.61c0.07,0.09,0.13,0.17,0.18,0.27c0.04,0.07,0.07,0.14,0.1,0.21
	c0.12,0.28,0.17,0.57,0.17,0.82c0,1.48-1.01,2.44-2.57,2.44c-1.79,0-3.09-1.33-3.09-3.17c0-1.48,1.22-3.66,3.84-3.66
	C92.34,73.96,93.61,74.88,94.32,76.13z M56.5,77.89c0.05-6.17,1.15-12.01,3.12-16.78v6.67c0,0,2.04-2.04,2.58-2.58
	c0.54,0.54,2.58,2.6,2.58,2.6v-5.89l12.51,8.25h-10.1c0,0,2.04,2.04,2.57,2.58c-0.53,0.54-2.57,2.58-2.57,2.58l17.5,0
	c0.05,0.85,0.08,1.7,0.08,2.56H56.5z M84.77,79.22c-0.11,7.13-1.61,13.79-4.25,18.84c-2.68,5.11-6.19,7.93-9.88,7.93
	c-3.69,0-7.2-2.82-9.88-7.93c-2.64-5.05-4.14-11.71-4.25-18.84H84.77z M52.8,62.6c-0.36-1.58-0.72-3.21-0.72-5.35
	c0-0.41,0.01-0.84,0.04-1.29c0.24-3.56,2.32-5.07,3.54-5.65c0.38-0.18,0.77-0.31,1.16-0.41c-0.42,0.54-0.7,1.23-0.74,1.92
	c-0.01,0.1-0.01,0.2-0.01,0.3c0,2.09,1.49,3.63,3.71,3.77c0.38,0.03,0.75,0.01,1.11-0.05c-0.45,0.69-0.89,1.43-1.3,2.22
	c-2.38,4.54-3.86,10.32-4.29,16.57c-0.85-1.11-2.18-1.93-3.88-2c0.94-0.73,1.79-2.17,1.97-4.97c0.02-0.26,0.03-0.52,0.03-0.78
	C53.42,65.35,53.11,64.01,52.8,62.6z M76.74,51.64c0,0.03,0.01,0.06,0.01,0.09c-0.91-0.72-1.85-1.28-2.82-1.66
	c-0.02-0.62,0.01-1.9,0.6-2.99c1.73-0.22,3.35-0.57,4.68-1.05c-0.31,0.24-0.61,0.52-0.87,0.82C77.2,48.13,76.62,49.88,76.74,51.64z
	 M70.64,45.99c-6.21,0-10.25-1.76-10.55-2.78c0,0,0,0,0,0c-0.01-0.04-0.02-0.08-0.02-0.11c0-1.53,4.21-3.84,10.57-3.84
	c6.35,0,10.57,2.31,10.57,3.84C81.2,44.09,77.09,45.99,70.64,45.99z M73,47.23c-0.32,0.89-0.4,1.77-0.42,2.42
	c-0.64-0.15-1.29-0.22-1.95-0.22c-0.66,0-1.31,0.07-1.95,0.22c-0.01-0.64-0.1-1.53-0.42-2.42c0.78,0.06,1.58,0.09,2.37,0.09
	C71.42,47.32,72.22,47.29,73,47.23z M66.76,47.08c0.58,1.09,0.62,2.37,0.6,2.99c-0.97,0.39-1.92,0.94-2.82,1.66
	c0-0.03,0.01-0.06,0.01-0.09c0.12-1.76-0.46-3.51-1.59-4.8c-0.27-0.3-0.56-0.58-0.87-0.82C63.4,46.51,65.03,46.86,66.76,47.08z
	 M70.64,50.75c3.69,0,7.2,2.82,9.88,7.93c1.44,2.76,2.54,6,3.27,9.53L63.36,54.73C65.55,52.14,68.05,50.75,70.64,50.75z
	 M84.12,70.03c0.18,1.09,0.32,2.2,0.43,3.33L61.17,57.93c0.44-0.78,0.9-1.5,1.38-2.15L84.12,70.03z M70.39,71.5
	c2.05,0,7.62,0,8.92,0L83.1,74c-3.67,0-10.8,0-12.71,0c0.38-0.38,1.25-1.25,1.25-1.25S70.77,71.87,70.39,71.5z M63.46,61.03v3.54
	c-0.38-0.38-1.25-1.26-1.25-1.26s-0.88,0.87-1.25,1.25v-5.19L63.46,61.03z M81.69,58.07c-0.41-0.79-0.85-1.53-1.3-2.22
	c0.36,0.06,0.73,0.08,1.12,0.05c2.22-0.15,3.7-1.68,3.7-3.77c0-0.1,0-0.2-0.01-0.3c-0.04-0.69-0.32-1.38-0.74-1.92
	c0.39,0.09,0.78,0.23,1.16,0.41c1.22,0.58,3.31,2.08,3.54,5.65c0.03,0.45,0.04,0.88,0.04,1.29c0,2.14-0.37,3.77-0.73,5.35
	c-0.32,1.41-0.62,2.75-0.62,4.3c0,0.25,0.01,0.51,0.03,0.78c0.19,2.8,1.04,4.24,1.97,4.97c-1.7,0.07-3.03,0.89-3.88,2
	C85.55,68.39,84.07,62.61,81.69,58.07z M82.91,46.04c2.56-0.17,4.87,0.53,6.51,1.97c1.62,1.42,2.57,3.52,2.74,6.07
	c0.15,2.31-0.47,4.54-1.02,6.5c-0.46,1.65-0.89,3.21-0.8,4.58c0.13,1.96,0.73,2.59,0.92,2.73l0.2,0.16l0.26-0.02
	c2.1-0.14,2.43,1.38,2.48,2.04c0.06,1-0.85,1.84-2.08,1.92c-2.14,0.14-2.75-2.33-2.89-4.42c-0.11-1.69,0.2-3.08,0.56-4.7
	c0.43-1.89,0.91-4.03,0.71-7.02c-0.2-3.1-1.77-5.56-4.3-6.76c-1.98-0.94-4.22-0.91-5.59,0.07l0.01,0.01
	c-0.77,0.5-1.23,1.35-1.23,2.17c0,0.05,0,0.1,0,0.14l1.33-0.09c-0.04-0.52,0.39-1.28,1.27-1.34c0.47-0.03,0.88,0.1,1.21,0.39
	c0.47,0.41,0.66,1.03,0.69,1.44c0.1,1.51-0.86,2.55-2.46,2.66c-0.9,0.06-1.7-0.19-2.31-0.72c-0.62-0.55-0.99-1.34-1.05-2.3
	c-0.09-1.41,0.37-2.81,1.27-3.83C80.21,46.72,81.45,46.14,82.91,46.04z M59.2,41.71c-1.31-2.23-3.64-6.18-3.88-6.59
	c0.06-0.12,0.07-0.14,0.13-0.27c0.14,0.01,0.17,0.01,0.3,0.01c0.18,0.31,0.79,1.31,0.79,1.31s0.98-0.59,1.29-0.77
	c0.1,0.06,0.12,0.07,0.23,0.12c-0.01,0.15-0.01,0.17-0.02,0.31c-0.28,0.18-1.22,0.79-1.22,0.79l1.84,3.07l0.6-0.49
	c0.02-0.01,1.63-1.34,3.7-2.11l0.57-0.21l-1.11-4.11c0,0-1.19,0.33-1.55,0.42c-0.12-0.1-0.15-0.13-0.28-0.24
	c0.05-0.16,0.07-0.2,0.11-0.35c0.36-0.1,1.54-0.42,1.54-0.42s-0.33-1.18-0.42-1.54c0.1-0.12,0.13-0.15,0.24-0.28
	c0.16,0.05,0.2,0.07,0.35,0.12c0.1,0.36,0.42,1.54,0.42,1.54s1.19-0.33,1.54-0.42c0.12,0.1,0.15,0.13,0.28,0.24
	c-0.06,0.17-0.07,0.2-0.12,0.35c-0.36,0.1-1.55,0.42-1.55,0.42l1.11,4.05l0.64-0.18c0.02,0,2.18-0.59,4.72-0.72l0.63-0.03v-4.53
	c0,0-1.35,0-1.76,0c-0.13-0.2-0.21-0.31-0.36-0.55c0.15-0.23,0.23-0.34,0.36-0.55c0.4,0,1.76,0,1.76,0s0-1.37,0-1.77
	c0.19-0.14,0.31-0.22,0.55-0.39c0.24,0.17,0.35,0.25,0.55,0.39c0,0.4,0,1.77,0,1.77s1.35,0,1.76,0c0.14,0.2,0.21,0.31,0.36,0.55
	c-0.15,0.23-0.23,0.34-0.36,0.55c-0.4,0-1.76,0-1.76,0v4.53l0.63,0.03c2.54,0.13,4.7,0.71,4.72,0.72l0.64,0.18l1.11-4.05
	c0,0-1.19-0.33-1.55-0.42c-0.05-0.15-0.06-0.18-0.12-0.35c0.13-0.11,0.16-0.14,0.28-0.24c0.36,0.1,1.54,0.42,1.54,0.42
	s0.32-1.18,0.42-1.54c0.15-0.05,0.18-0.06,0.35-0.12c0.11,0.13,0.14,0.16,0.24,0.28c-0.1,0.36-0.42,1.54-0.42,1.54
	s1.18,0.33,1.54,0.42c0.05,0.15,0.06,0.18,0.11,0.35c-0.13,0.11-0.16,0.14-0.28,0.24c-0.36-0.1-1.55-0.42-1.55-0.42l-1.11,4.11
	l0.57,0.21c2.07,0.78,3.69,2.1,3.7,2.11l0.6,0.49l0.4-0.66l1.44-2.41c0,0-0.94-0.6-1.22-0.79c-0.01-0.13-0.01-0.16-0.02-0.31
	c0.11-0.06,0.12-0.07,0.22-0.12c0.31,0.19,1.29,0.77,1.29,0.77s0.6-1,0.79-1.31c0.13-0.01,0.16-0.01,0.3-0.01
	c0.06,0.13,0.07,0.16,0.13,0.27c-0.24,0.4-2.57,4.36-3.88,6.59c-1.44-2.15-6.09-3.78-11.44-3.78C65.29,37.93,60.64,39.55,59.2,41.71
	z M47.1,70.08c0.04-0.66,0.37-2.18,2.48-2.04l0.26,0.02l0.2-0.16c0.18-0.15,0.79-0.77,0.92-2.73c0.09-1.37-0.34-2.93-0.81-4.58
	c-0.55-1.96-1.17-4.19-1.02-6.5c0.17-2.55,1.11-4.65,2.74-6.07c1.64-1.44,3.95-2.14,6.51-1.97c1.46,0.1,2.7,0.68,3.58,1.68
	c0.9,1.02,1.36,2.42,1.27,3.83c-0.06,0.96-0.43,1.75-1.05,2.3c-0.61,0.53-1.4,0.78-2.31,0.72c-1.59-0.11-2.56-1.15-2.46-2.66
	c0.03-0.41,0.22-1.03,0.69-1.44c0.33-0.29,0.73-0.42,1.21-0.39c0.88,0.06,1.31,0.82,1.27,1.34l1.33,0.09c0-0.05,0-0.1,0-0.14
	c0-0.82-0.46-1.67-1.23-2.17l0.01-0.01c-1.37-0.98-3.62-1-5.59-0.07c-2.53,1.2-4.09,3.66-4.3,6.76c-0.2,2.99,0.29,5.13,0.71,7.02
	c0.36,1.61,0.68,3,0.56,4.7c-0.14,2.09-0.75,4.56-2.89,4.42C47.94,71.93,47.03,71.08,47.1,70.08z M46.65,76.79
	c0.05-0.12,0.1-0.24,0.15-0.36c0.05-0.1,0.1-0.21,0.16-0.3c0.7-1.25,1.98-2.17,4.21-2.17c2.62,0,3.84,2.18,3.84,3.66
	c0,1.84-1.3,3.17-3.09,3.17c-1.56,0-2.57-0.96-2.57-2.44c0-0.24,0.06-0.54,0.17-0.82c0.03-0.07,0.07-0.15,0.1-0.21
	c0.05-0.09,0.11-0.18,0.18-0.27c0.27-0.35,0.69-0.61,1.28-0.61c0.8,0,1.25,0.6,1.32,1.09c0,0.04,0.01,0.08,0.01,0.12h1.33
	c0-1.23-1.07-2.55-2.65-2.55c-1.17,0-2.05,0.62-2.57,1.46v0c0,0,0,0.01-0.01,0.01c-0.09,0.16-0.18,0.33-0.25,0.5
	c-0.31,0.72-0.45,1.56-0.45,2.48c0,2.28,0.84,4.96,2.03,6.88c1.8,2.92,3.47,5.56,4.45,7.1c-0.98-0.25-2.54-0.66-2.54-0.66
	s-0.58,1.4-0.93,2.24c-0.91-1.97-2.59-5.83-3.65-9.64c-0.58-2.06-0.97-4.1-0.97-5.82C46.19,78.72,46.3,77.71,46.65,76.79z
	 M45.87,90.46c0.24-0.6,0.49-1.22,0.64-1.84l0.03-0.12c0.02-0.09,0.04-0.17,0.06-0.26c1.53,4.56,3.51,8.56,3.65,8.83l0.65,1.3
	c0,0,1.32-3.16,1.62-3.89c0.8,0.21,4.71,1.23,4.71,1.23l-0.92-1.43c-0.02-0.04-2.53-3.92-5.35-8.51c-0.85-1.37-1.42-3.01-1.68-4.53
	c0.67,0.57,1.57,0.91,2.62,0.91c1.34,0,2.5-0.55,3.3-1.44c0.28,6.79,1.81,13.12,4.36,18c2.92,5.57,6.84,8.64,11.06,8.64
	c4.21,0,8.14-3.07,11.06-8.64c2.56-4.89,4.08-11.21,4.36-18c0.8,0.9,1.96,1.44,3.3,1.44c1.05,0,1.95-0.34,2.62-0.91
	c-0.25,1.52-0.83,3.16-1.68,4.53c-2.82,4.59-5.33,8.47-5.35,8.51l-0.92,1.43c0,0,3.92-1.02,4.71-1.23c0.3,0.73,1.62,3.89,1.62,3.89
	l0.65-1.3c0.14-0.27,2.12-4.27,3.65-8.83c0.02,0.09,0.04,0.18,0.06,0.26l0.03,0.12c0.15,0.63,0.4,1.25,0.64,1.84
	c0.42,1.05,0.86,2.13,0.86,3.38c0,0.8-0.26,4.82-5.42,5.82c-2.79,0.54-4.88,1.26-7.9,3.48c-1.84,1.35-2.86,2.66-3.61,3.62
	c-0.25,0.33-0.47,0.61-0.68,0.84c-3.11,3.45-7.22,3.62-8.02,3.62c-0.79,0-4.91-0.17-8.02-3.62c-0.21-0.23-0.43-0.51-0.68-0.84
	c-0.74-0.96-1.76-2.27-3.61-3.62c-3.02-2.22-5.11-2.93-7.9-3.48c-5.16-1-5.42-5.03-5.42-5.82C45.02,92.59,45.45,91.51,45.87,90.46z
	 M39.51,79.43l1.69-1.69v2.97c0,0.14,0,0.28,0,0.41L39.51,79.43z M100.34,89.47c0.63,1.29,0.86,3.1,0.86,4.37
	c0,1.51-0.42,5.38-4.31,8.48c-1.76,1.41-3.23,1.72-4.79,2.05c-1.17,0.25-2.38,0.51-3.78,1.2c-3.03,1.51-4.14,2.96-4.95,4.01
	l-0.14,0.18c-4.44,5.73-10.28,6.35-12.58,6.35c-2.3,0-8.14-0.62-12.58-6.35l-0.14-0.18c-0.81-1.05-1.92-2.5-4.95-4.01
	c-1.4-0.7-2.61-0.96-3.78-1.2c-1.56-0.33-3.03-0.64-4.79-2.05c-3.89-3.11-4.31-6.97-4.31-8.48c0-1.27,0.23-3.09,0.86-4.37
	c1.15-2.34,1.59-4.79,1.59-8.76v-3.91h2.71c-0.26,0.84-0.39,1.81-0.39,2.88c0,1.77,0.38,3.84,0.94,5.91
	c-0.16,1.05-0.37,1.87-0.55,2.6l-0.03,0.12c-0.13,0.54-0.35,1.08-0.59,1.67c-0.45,1.11-0.95,2.37-0.95,3.88
	c0,2.71,1.7,6.2,6.49,7.13c2.66,0.52,4.53,1.16,7.37,3.24c1.69,1.24,2.61,2.42,3.34,3.37c0.26,0.33,0.5,0.65,0.74,0.92
	c3.49,3.86,8.11,4.06,9,4.06c0.89,0,5.52-0.2,9-4.06c0.24-0.27,0.49-0.58,0.74-0.92c0.73-0.95,1.65-2.12,3.34-3.37
	c2.84-2.08,4.71-2.73,7.37-3.24c4.79-0.93,6.5-4.42,6.5-7.13c0-1.51-0.51-2.76-0.96-3.88c-0.23-0.58-0.45-1.13-0.59-1.67l-0.03-0.12
	c-0.18-0.73-0.38-1.55-0.55-2.6c0.56-2.07,0.94-4.13,0.94-5.91c0-1.07-0.13-2.03-0.39-2.88h2.71v3.91
	C98.74,84.67,99.19,87.13,100.34,89.47z M100.07,81.12c0-0.14,0-0.27,0-0.41v-2.97l1.69,1.69L100.07,81.12z M5.43,137.09h260.34
	V6.91H5.43V137.09z M228.54,58.86c2.62,0,5,0.77,7.28,2.34l-0.46,4.83c-1.96-2.1-4.09-3.15-6.54-3.15c-4.83,0-8.4,3.71-8.4,9.17
	c0,5.22,3.4,9,8.16,9c2.76,0,5.14-1.22,7.56-3.67l-0.25,5.5c-2.2,1.57-4.76,2.42-7.45,2.42c-2.84,0-5.53-0.95-7.7-2.7
	c-3.04-2.45-4.79-6.16-4.79-10.5C215.94,64.46,221.36,58.86,228.54,58.86z M190.84,58.89h0.46l15.96,16.55V59.7h4.23v25.59h-0.46
	l-15.99-16.56v15.75h-4.2V58.89z M164.73,59.7h4.41v14.45c0,4.8,2.07,7.25,6.02,7.25c3.89,0,5.95-2.49,5.95-7.35V59.7H185v14.42
	c0,7.25-4.02,11.17-9.94,11.17c-6.47,0-10.33-3.85-10.33-11.1V59.7z M7.21,8.69h126.62V135.3H7.21V8.69z"/>
</svg>
